<?xml version="1.0" encoding="UTF-8" standalone="no"?>
<svg
   xmlns:dc="http://purl.org/dc/elements/1.1/"
   xmlns:cc="http://creativecommons.org/ns#"
   xmlns:rdf="http://www.w3.org/1999/02/22-rdf-syntax-ns#"
   xmlns:svg="http://www.w3.org/2000/svg"
   xmlns="http://www.w3.org/2000/svg"
   viewBox="0 0 606.96399 620.31598"
   height="620.31598"
   width="606.96399"
   xml:space="preserve"
   id="svg2"
   version="1.1"><metadata
     id="metadata8"><rdf:RDF><cc:Work
         rdf:about=""><dc:format>image/svg+xml</dc:format><dc:type
           rdf:resource="http://purl.org/dc/dcmitype/StillImage" /></cc:Work></rdf:RDF></metadata><defs
     id="defs6"><clipPath
       id="clipPath18"
       clipPathUnits="userSpaceOnUse"><path
         id="path16"
         d="M 0,465.237 H 455.223 V 0 H 0 Z" /></clipPath><clipPath
       id="clipPath50"
       clipPathUnits="userSpaceOnUse"><path
         id="path48"
         d="m 134.655,459.082 -51.167,-127 h 287.28 l 51.167,127 z" /></clipPath><clipPath
       id="clipPath76"
       clipPathUnits="userSpaceOnUse"><path
         id="path74"
         d="m 134.655,459.082 -51.167,-127 h 287.28 l 51.167,127 z" /></clipPath><clipPath
       id="clipPath118"
       clipPathUnits="userSpaceOnUse"><path
         id="path116"
         d="M 133.786,136.226 81.58,6.646 h 290.058 l 52.205,129.58 z" /></clipPath><clipPath
       id="clipPath352"
       clipPathUnits="userSpaceOnUse"><path
         id="path350"
         d="M 133.786,136.226 81.58,6.646 h 290.058 l 52.205,129.58 z" /></clipPath><clipPath
       id="clipPath374"
       clipPathUnits="userSpaceOnUse"><path
         id="path372"
         d="M 134.626,296.033 83.532,169.213 h 287.266 l 51.095,126.82 z" /></clipPath><clipPath
       id="clipPath430"
       clipPathUnits="userSpaceOnUse"><path
         id="path428"
         d="M 134.626,296.033 83.532,169.213 h 287.266 l 51.095,126.82 z" /></clipPath><clipPath
       id="clipPath480"
       clipPathUnits="userSpaceOnUse"><path
         id="path478"
         d="M 0,465.237 H 455.223 V 0 H 0 Z" /></clipPath></defs><g
     transform="matrix(1.3333333,0,0,-1.3333333,0,620.316)"
     id="g10"><g
       id="g12"><g
         clip-path="url(#clipPath18)"
         id="g14"><g
           transform="translate(89.4632,251.8631)"
           id="g20"><path
             id="path22"
             style="fill:none;stroke:#e53054;stroke-width:1;stroke-linecap:butt;stroke-linejoin:miter;stroke-miterlimit:10;stroke-dasharray:none;stroke-opacity:1"
             d="m 0,0 c 0,0 -57.743,31.017 -70.589,70.626 -12.846,39.61 4.077,104.176 46.52,83.419" /></g><g
           transform="translate(92.1565,259.6703)"
           id="g24"><path
             id="path26"
             style="fill:none;stroke:#e53054;stroke-width:1;stroke-linecap:butt;stroke-linejoin:miter;stroke-miterlimit:10;stroke-dasharray:none;stroke-opacity:1"
             d="m 0,0 c 0,0 -57.743,31.017 -70.589,70.626 -12.846,39.61 4.077,104.176 46.52,83.419" /></g><g
           transform="translate(68.0874,413.7153)"
           id="g28"><path
             id="path30"
             style="fill:none;stroke:#e53054;stroke-width:1;stroke-linecap:round;stroke-linejoin:round;stroke-miterlimit:10;stroke-dasharray:none;stroke-opacity:1"
             d="m 0,0 2.127,4.934 12.521,-16.161 -19.492,-1.294 2.151,4.714" /></g><g
           transform="translate(393.0936,1.4604)"
           id="g32"><path
             id="path34"
             style="fill:none;stroke:#e53054;stroke-width:1;stroke-linecap:butt;stroke-linejoin:miter;stroke-miterlimit:10;stroke-dasharray:none;stroke-opacity:1"
             d="m 0,0 h -336.634 c -1.656,0 -2.537,1.148 -1.966,2.564 l 53.805,133.547 c 0.57,1.416 2.375,2.564 4.032,2.564 H 55.871 c 1.656,0 2.537,-1.148 1.966,-2.564 L 4.032,2.564 C 3.462,1.148 1.657,0 0,0 Z" /></g><g
           transform="translate(393.0936,163.2842)"
           id="g36"><path
             id="path38"
             style="fill:none;stroke:#e53054;stroke-width:1;stroke-linecap:butt;stroke-linejoin:miter;stroke-miterlimit:10;stroke-dasharray:none;stroke-opacity:1"
             d="m 0,0 h -336.634 c -1.656,0 -2.537,1.148 -1.966,2.564 l 53.805,133.547 c 0.57,1.416 2.375,2.564 4.032,2.564 H 55.871 c 1.656,0 2.537,-1.148 1.966,-2.564 L 4.032,2.564 C 3.462,1.148 1.657,0 0,0 Z" /></g><g
           transform="translate(393.0936,325.1079)"
           id="g40"><path
             id="path42"
             style="fill:none;stroke:#e53054;stroke-width:1;stroke-linecap:butt;stroke-linejoin:miter;stroke-miterlimit:10;stroke-dasharray:none;stroke-opacity:1"
             d="m 0,0 h -336.634 c -1.656,0 -2.537,1.148 -1.966,2.564 l 53.805,133.547 c 0.57,1.416 2.375,2.564 4.032,2.564 H 55.871 c 1.656,0 2.537,-1.148 1.966,-2.564 L 4.032,2.564 C 3.462,1.148 1.657,0 0,0 Z" /></g></g></g><g
       id="g44"><g
         clip-path="url(#clipPath50)"
         id="g46"><g
           transform="matrix(0.9971499,0,-0.3433463,-0.8522094,0,0)"
           id="g52"><g
             transform="translate(172.254,-530.4916)"
             id="g54"><path
               id="path56"
               style="fill:none;stroke:#000000;stroke-width:1;stroke-linecap:butt;stroke-linejoin:miter;stroke-miterlimit:10;stroke-dasharray:none;stroke-opacity:1"
               d="m 0,0 c 6.47,-9.021 17.228,-10.53 25.611,-0.962 4.179,4.769 6.502,15.683 15.349,26.5 8.846,10.817 22.117,19.592 22.506,28.962 0.389,9.369 -1.554,17.512 -1.356,31.666 0.359,25.646 5.927,43.951 -2.952,49.882 -11.161,7.456 -27.1,-4.123 -46.394,-3.699 -19.656,0.432 -34.899,10.147 -47.415,3.445 -12.515,-6.702 -2.053,-25.445 -1.87,-45.068 0.159,-16.928 -4.057,-21.384 -3.163,-34.891 C -38.851,43.26 -24.02,36.891 -13.662,23.58 -5.711,13.363 -3.362,4.689 0,0 Z" /></g></g><g
           transform="matrix(0.9971499,0,-0.3433463,-0.8522094,0,0)"
           id="g58"><g
             transform="translate(137.2012,-492.1069)"
             id="g60"><path
               id="path62"
               style="fill:#000000;fill-opacity:1;fill-rule:nonzero;stroke:none"
               d="m 0,0 c -1.756,-1.512 -3.5,-3.082 -4.945,-5.009 -1.455,-1.899 -2.711,-4.03 -3.531,-6.399 -0.823,-2.36 -1.182,-4.954 -0.929,-7.52 0.245,-2.565 1.089,-5.078 2.443,-7.281 1.355,-2.2 3.195,-4.124 5.44,-5.504 2.24,-1.375 4.88,-2.225 7.612,-2.289 2.734,-0.091 5.473,0.742 7.747,2.096 2.292,1.361 4.129,3.213 5.612,5.193 1.051,1.403 0.766,3.394 -0.638,4.445 -1.404,1.052 -3.394,0.766 -4.446,-0.637 l -0.039,-0.054 -0.025,-0.036 c -2.095,-2.952 -4.997,-4.937 -8.138,-4.901 -1.558,0.01 -3.146,0.465 -4.576,1.297 -1.43,0.834 -2.658,2.07 -3.575,3.493 -1.859,2.864 -2.298,6.537 -1.158,9.92 0.553,1.699 1.458,3.326 2.574,4.847 1.097,1.541 2.539,2.881 3.995,4.195 l 0.128,0.116 c 1.101,0.993 1.188,2.691 0.195,3.792 C 2.767,0.849 1.102,0.947 0,0" /></g></g><g
           transform="matrix(0.9971499,0,-0.3433463,-0.8522094,0,0)"
           id="g64"><g
             transform="translate(157.6167,-509.9575)"
             id="g66"><path
               id="path68"
               style="fill:#000000;fill-opacity:1;fill-rule:nonzero;stroke:none"
               d="m 0,0 c -2.936,-2.624 -7.142,-5.583 -10.657,-6.937 l 6.511,-0.91 4.421,-4.865 C -0.588,-9.045 -0.515,-3.903 0,0" /></g></g></g></g><g
       id="g70"><g
         clip-path="url(#clipPath76)"
         id="g72"><text
           id="text80"
           style="font-variant:normal;font-weight:normal;font-stretch:normal;font-size:9.0944891px;font-family:'RNUZK Q +cmr 7';-inkscape-font-specification:cmr7;writing-mode:lr-tb;fill:#000000;fill-opacity:1;fill-rule:nonzero;stroke:none"
           transform="matrix(0.94551767,0,-0.32557079,-0.80808279,262.7813,405.9987)"><tspan
             id="tspan78"
             y="0"
             x="0">1</tspan></text>
<g
           transform="matrix(0.9971499,0,-0.3433463,-0.8522094,0,0)"
           id="g82"><g
             transform="translate(8.7464,-458.3538)"
             id="g84"><path
               id="path86"
               style="fill:#000000;fill-opacity:1;fill-rule:nonzero;stroke:none"
               d="m 0,0 c -1.596,-1.596 -3.193,-3.23 -4.443,-5.221 -1.271,-1.953 -2.324,-4.135 -2.867,-6.534 -0.55,-2.388 -0.542,-4.979 0.124,-7.409 0.655,-2.434 1.934,-4.677 3.637,-6.502 1.705,-1.822 3.817,-3.277 6.218,-4.108 2.386,-0.842 5.067,-1.097 7.664,-0.513 2.593,0.602 4.957,2.099 6.668,4.003 1.733,1.906 2.87,4.136 3.678,6.375 0.505,1.399 -0.22,2.944 -1.619,3.45 -1.4,0.505 -2.945,-0.22 -3.45,-1.62 -0.003,-0.008 -0.006,-0.016 -0.009,-0.024 l -0.027,-0.079 c -0.596,-1.731 -1.408,-3.327 -2.498,-4.565 -1.085,-1.24 -2.431,-2.108 -3.947,-2.503 -3.046,-0.753 -6.715,0.48 -9.069,2.998 -2.415,2.473 -3.487,6.041 -2.718,9.495 0.732,3.48 3.005,6.722 5.793,9.462 l 0.067,0.066 c 0.895,0.88 0.908,2.32 0.027,3.215 C 2.349,0.882 0.91,0.894 0.014,0.014 Z" /></g></g><g
           transform="matrix(0.9971499,0,-0.3433463,-0.8522094,0,0)"
           id="g88"><g
             transform="translate(28.1588,-470.8773)"
             id="g90"><path
               id="path92"
               style="fill:#000000;fill-opacity:1;fill-rule:nonzero;stroke:none"
               d="m 0,0 c -1.78,-2.817 -4.516,-6.2 -7.062,-8.118 l 5.51,0.77 4.726,-2.932 C 1.621,-7.497 0.487,-3.296 0,0" /></g></g><text
           id="text98"
           style="font-variant:normal;font-weight:normal;font-stretch:normal;font-size:14.5175209px;font-family:'RNUZK Q +cmr 7';-inkscape-font-specification:cmr7;writing-mode:lr-tb;fill:#000000;fill-opacity:1;fill-rule:nonzero;stroke:none"
           transform="matrix(0.94551958,0,-0.32556523,-0.80807876,168.1934,398.7266)"><tspan
             id="tspan94"
             y="0"
             x="0 8.2604694">10</tspan><tspan
             id="tspan96"
             y="-37.469723"
             x="135.53557 143.79604">12</tspan></text>
<g
           transform="matrix(0.9971499,0,-0.3433463,-0.8522094,0,0)"
           id="g100"><g
             transform="translate(75.8518,-474.0461)"
             id="g102"><path
               id="path104"
               style="fill:none;stroke:#000000;stroke-width:1;stroke-linecap:round;stroke-linejoin:round;stroke-miterlimit:4;stroke-dasharray:none;stroke-opacity:1"
               d="M 0,0 H 56.681" /></g></g><g
           transform="matrix(0.9971499,0,-0.3433463,-0.8522094,0,0)"
           id="g106"><g
             transform="translate(-45.8947,-401.3525)"
             id="g108"><path
               id="path110"
               style="fill:none;stroke:#000000;stroke-width:1;stroke-linecap:butt;stroke-linejoin:miter;stroke-miterlimit:10;stroke-dasharray:none;stroke-opacity:1"
               d="m 0,0 c -5.065,-16.99 36.773,-39.473 52.417,-50.311 15.644,-10.839 39.606,-40.277 58.03,-38.229 18.425,2.047 8.949,32.557 8.788,48.737 -0.16,16.18 10.082,38.823 0.429,47.188 -7.539,6.534 -22.783,1.328 -44.4,-0.861 C 60.321,5.011 43.657,4.846 32.631,6.498 21.605,8.15 5.065,16.99 0,0 Z" /></g></g></g></g><g
       id="g112"><g
         clip-path="url(#clipPath118)"
         id="g114"><g
           transform="matrix(0.9911492,0,-0.34128,-0.8470809,0,0)"
           id="g120"><g
             transform="translate(275.3118,-108.5849)"
             id="g122"><path
               id="path124"
               style="fill:#b5b4b4;fill-opacity:1;fill-rule:nonzero;stroke:none"
               d="m 0,0 c 10.966,-2.236 21.555,16.248 16.512,23.956 -4.618,7.058 -26.994,9.349 -30.206,1.065 C -16.629,17.452 -9.92,2.022 0,0" /></g></g><g
           transform="matrix(0.9911492,0,-0.34128,-0.8470809,0,0)"
           id="g126"><g
             transform="translate(191.0486,-108.521)"
             id="g128"><path
               id="path130"
               style="fill:#b5b4b4;fill-opacity:1;fill-rule:nonzero;stroke:none"
               d="M 0,0 C 11.096,1.46 15.085,22.384 7.805,28.029 1.14,33.197 -20.762,28.073 -21.1,19.194 -21.408,11.081 -10.038,-1.32 0,0" /></g></g><g
           transform="matrix(0.9911492,0,-0.34128,-0.8470809,0,0)"
           id="g132"><g
             transform="translate(133.0763,-72.449)"
             id="g134"><path
               id="path136"
               style="fill:#b5b4b4;fill-opacity:1;fill-rule:nonzero;stroke:none"
               d="M 0,0 C 8.264,-7.547 26.839,2.881 26.467,12.085 26.126,20.513 8.098,33.964 1.09,28.503 -5.314,23.513 -7.476,6.827 0,0" /></g></g><g
           transform="matrix(0.9911492,0,-0.34128,-0.8470809,0,0)"
           id="g138"><g
             transform="translate(198.9718,-36.7485)"
             id="g140"><path
               id="path142"
               style="fill:#b5b4b4;fill-opacity:1;fill-rule:nonzero;stroke:none"
               d="M 0,0 C 8.149,7.671 -0.848,26.98 -10.054,27.303 -18.483,27.6 -33.256,10.638 -28.339,3.237 -23.847,-3.525 -7.372,-6.94 0,0" /></g></g><g
           transform="matrix(0.9911492,0,-0.34128,-0.8470809,0,0)"
           id="g144"><g
             transform="translate(96.1441,-41.684)"
             id="g146"><path
               id="path148"
               style="fill:#b5b4b4;fill-opacity:1;fill-rule:nonzero;stroke:none"
               d="m 0,0 c 10.966,-2.236 21.555,16.248 16.512,23.956 -4.618,7.058 -26.994,9.349 -30.206,1.065 C -16.629,17.452 -9.92,2.022 0,0" /></g></g><g
           transform="matrix(0.9911492,0,-0.34128,-0.8470809,0,0)"
           id="g150"><g
             transform="translate(278.5175,-41.6587)"
             id="g152"><path
               id="path154"
               style="fill:#b5b4b4;fill-opacity:1;fill-rule:nonzero;stroke:none"
               d="M 0,0 C 11.183,0.433 17.079,20.903 10.348,27.193 4.186,32.952 -18.094,29.862 -19.246,21.052 -20.299,13.002 -10.117,-0.392 0,0" /></g></g><g
           transform="matrix(0.9911492,0,-0.34128,-0.8470809,0,0)"
           id="g156"><g
             transform="translate(314.1754,-158.0575)"
             id="g158"><path
               id="path160"
               style="fill:#b5b4b4;fill-opacity:1;fill-rule:nonzero;stroke:none"
               d="m 0,0 c 10.966,-2.236 21.555,16.248 16.512,23.956 -4.618,7.058 -26.994,9.349 -30.206,1.065 C -16.629,17.452 -9.92,2.022 0,0" /></g></g><g
           transform="matrix(0.9911492,0,-0.34128,-0.8470809,0,0)"
           id="g162"><g
             transform="translate(341.3673,-105.2398)"
             id="g164"><path
               id="path166"
               style="fill:#b5b4b4;fill-opacity:1;fill-rule:nonzero;stroke:none"
               d="M 0,0 C 7.53,-8.28 26.99,0.383 27.472,9.582 27.914,18.005 11.209,33.068 3.725,28.279 -3.114,23.904 -6.812,7.491 0,0" /></g></g><g
           transform="matrix(0.9911492,0,-0.34128,-0.8470809,0,0)"
           id="g168"><g
             transform="translate(351.1014,-41.684)"
             id="g170"><path
               id="path172"
               style="fill:#b5b4b4;fill-opacity:1;fill-rule:nonzero;stroke:none"
               d="m 0,0 c 10.966,-2.236 21.555,16.248 16.512,23.956 -4.618,7.058 -26.994,9.349 -30.206,1.065 C -16.629,17.452 -9.921,2.022 0,0" /></g></g><g
           transform="matrix(0.9911492,0,-0.34128,-0.8470809,0,0)"
           id="g174"><g
             transform="translate(315.8837,-152.9956)"
             id="g176"><path
               id="path178"
               style="fill:#000000;fill-opacity:1;fill-rule:nonzero;stroke:none"
               d="M 0,0 C 5.523,0 10,4.477 10,10 10,15.523 5.523,20 0,20 -5.523,20 -10,15.523 -10,10 -10,4.477 -5.523,0 0,0" /></g></g><g
           transform="matrix(0.9911492,0,-0.34128,-0.8470809,0,0)"
           id="g180"><g
             transform="translate(315.8837,-152.9956)"
             id="g182"><path
               id="path184"
               style="fill:none;stroke:#000000;stroke-width:1;stroke-linecap:butt;stroke-linejoin:miter;stroke-miterlimit:4;stroke-dasharray:none;stroke-opacity:1"
               d="M 0,0 C 5.523,0 10,4.477 10,10 10,15.523 5.523,20 0,20 -5.523,20 -10,15.523 -10,10 -10,4.477 -5.523,0 0,0 Z" /></g></g><g
           transform="matrix(0.9911492,0,-0.34128,-0.8470809,0,0)"
           id="g186"><g
             transform="translate(352.7801,-102.9964)"
             id="g188"><path
               id="path190"
               style="fill:#000000;fill-opacity:1;fill-rule:nonzero;stroke:none"
               d="M 0,0 C 5.523,0 10,4.477 10,10 10,15.523 5.523,20 0,20 -5.523,20 -10,15.523 -10,10 -10,4.477 -5.523,0 0,0" /></g></g><g
           transform="matrix(0.9911492,0,-0.34128,-0.8470809,0,0)"
           id="g192"><g
             transform="translate(352.7801,-102.9964)"
             id="g194"><path
               id="path196"
               style="fill:none;stroke:#000000;stroke-width:1;stroke-linecap:butt;stroke-linejoin:miter;stroke-miterlimit:4;stroke-dasharray:none;stroke-opacity:1"
               d="M 0,0 C 5.523,0 10,4.477 10,10 10,15.523 5.523,20 0,20 -5.523,20 -10,15.523 -10,10 -10,4.477 -5.523,0 0,0 Z" /></g></g><g
           transform="matrix(0.9911492,0,-0.34128,-0.8470809,0,0)"
           id="g198"><g
             transform="translate(276.5991,-102.9964)"
             id="g200"><path
               id="path202"
               style="fill:#000000;fill-opacity:1;fill-rule:nonzero;stroke:none"
               d="M 0,0 C 5.523,0 10,4.477 10,10 10,15.523 5.523,20 0,20 -5.523,20 -10,15.523 -10,10 -10,4.477 -5.523,0 0,0" /></g></g><g
           transform="matrix(0.9911492,0,-0.34128,-0.8470809,0,0)"
           id="g204"><g
             transform="translate(276.5991,-102.9964)"
             id="g206"><path
               id="path208"
               style="fill:none;stroke:#000000;stroke-width:1;stroke-linecap:butt;stroke-linejoin:miter;stroke-miterlimit:4;stroke-dasharray:none;stroke-opacity:1"
               d="M 0,0 C 5.523,0 10,4.477 10,10 10,15.523 5.523,20 0,20 -5.523,20 -10,15.523 -10,10 -10,4.477 -5.523,0 0,0 Z" /></g></g><g
           transform="matrix(0.9911492,0,-0.34128,-0.8470809,0,0)"
           id="g210"><g
             transform="translate(352.7801,-35.0004)"
             id="g212"><path
               id="path214"
               style="fill:#000000;fill-opacity:1;fill-rule:nonzero;stroke:none"
               d="M 0,0 C 5.523,0 10,4.477 10,10 10,15.523 5.523,20 0,20 -5.523,20 -10,15.523 -10,10 -10,4.477 -5.523,0 0,0" /></g></g><g
           transform="matrix(0.9911492,0,-0.34128,-0.8470809,0,0)"
           id="g216"><g
             transform="translate(352.7801,-35.0004)"
             id="g218"><path
               id="path220"
               style="fill:none;stroke:#000000;stroke-width:1;stroke-linecap:butt;stroke-linejoin:miter;stroke-miterlimit:4;stroke-dasharray:none;stroke-opacity:1"
               d="M 0,0 C 5.523,0 10,4.477 10,10 10,15.523 5.523,20 0,20 -5.523,20 -10,15.523 -10,10 -10,4.477 -5.523,0 0,0 Z" /></g></g><g
           transform="matrix(0.9911492,0,-0.34128,-0.8470809,0,0)"
           id="g222"><g
             transform="translate(276.5991,-35.0004)"
             id="g224"><path
               id="path226"
               style="fill:#000000;fill-opacity:1;fill-rule:nonzero;stroke:none"
               d="M 0,0 C 5.523,0 10,4.477 10,10 10,15.523 5.523,20 0,20 -5.523,20 -10,15.523 -10,10 -10,4.477 -5.523,0 0,0" /></g></g><g
           transform="matrix(0.9911492,0,-0.34128,-0.8470809,0,0)"
           id="g228"><g
             transform="translate(276.5991,-35.0004)"
             id="g230"><path
               id="path232"
               style="fill:none;stroke:#000000;stroke-width:1;stroke-linecap:butt;stroke-linejoin:miter;stroke-miterlimit:4;stroke-dasharray:none;stroke-opacity:1"
               d="M 0,0 C 5.523,0 10,4.477 10,10 10,15.523 5.523,20 0,20 -5.523,20 -10,15.523 -10,10 -10,4.477 -5.523,0 0,0 Z" /></g></g><g
           transform="matrix(0.9911492,0,-0.34128,-0.8470809,0,0)"
           id="g234"><g
             transform="translate(276.5991,-92.9964)"
             id="g236"><path
               id="path238"
               style="fill:none;stroke:#000000;stroke-width:1;stroke-linecap:round;stroke-linejoin:round;stroke-miterlimit:4;stroke-dasharray:none;stroke-opacity:1"
               d="M 0,0 39.285,-49.125" /></g></g><g
           transform="matrix(0.9911492,0,-0.34128,-0.8470809,0,0)"
           id="g240"><g
             transform="translate(141.9106,-59.3991)"
             id="g242"><path
               id="path244"
               style="fill:none;stroke:#000000;stroke-width:1;stroke-linecap:round;stroke-linejoin:round;stroke-miterlimit:4;stroke-dasharray:none;stroke-opacity:1"
               d="M 0,0 45.913,-33.597" /></g></g><g
           transform="matrix(0.9911492,0,-0.34128,-0.8470809,0,0)"
           id="g246"><g
             transform="translate(352.7801,-92.9964)"
             id="g248"><path
               id="path250"
               style="fill:none;stroke:#000000;stroke-width:1;stroke-linecap:round;stroke-linejoin:round;stroke-miterlimit:4;stroke-dasharray:none;stroke-opacity:1"
               d="M 0,0 -36.896,-49.125" /></g></g><g
           transform="matrix(0.9911492,0,-0.34128,-0.8470809,0,0)"
           id="g252"><g
             transform="translate(352.7801,-33.5556)"
             id="g254"><path
               id="path256"
               style="fill:none;stroke:#000000;stroke-width:1;stroke-linecap:round;stroke-linejoin:round;stroke-miterlimit:4;stroke-dasharray:none;stroke-opacity:1"
               d="M 0,0 V -59.441" /></g></g><g
           transform="matrix(0.9911492,0,-0.34128,-0.8470809,0,0)"
           id="g258"><g
             transform="translate(276.5991,-33.5556)"
             id="g260"><path
               id="path262"
               style="fill:none;stroke:#000000;stroke-width:1;stroke-linecap:round;stroke-linejoin:round;stroke-miterlimit:4;stroke-dasharray:none;stroke-opacity:1"
               d="M 0,0 V -59.441" /></g></g><g
           transform="matrix(0.9911492,0,-0.34128,-0.8470809,0,0)"
           id="g264"><g
             transform="translate(187.2257,-33.5556)"
             id="g266"><path
               id="path268"
               style="fill:none;stroke:#000000;stroke-width:1;stroke-linecap:round;stroke-linejoin:round;stroke-miterlimit:4;stroke-dasharray:none;stroke-opacity:1"
               d="M 0,0 V -59.441" /></g></g><g
           transform="matrix(0.9911492,0,-0.34128,-0.8470809,0,0)"
           id="g270"><g
             transform="translate(187.2257,-25.0004)"
             id="g272"><path
               id="path274"
               style="fill:none;stroke:#000000;stroke-width:1;stroke-linecap:round;stroke-linejoin:round;stroke-miterlimit:4;stroke-dasharray:none;stroke-opacity:1"
               d="M 0,0 -43.953,-34.399" /></g></g><g
           transform="matrix(0.9911492,0,-0.34128,-0.8470809,0,0)"
           id="g276"><g
             transform="translate(276.5991,-92.9964)"
             id="g278"><path
               id="path280"
               style="fill:none;stroke:#000000;stroke-width:1;stroke-linecap:round;stroke-linejoin:round;stroke-miterlimit:4;stroke-dasharray:none;stroke-opacity:1"
               d="M 0,0 H 76.181" /></g></g><g
           transform="matrix(0.9911492,0,-0.34128,-0.8470809,0,0)"
           id="g282"><g
             transform="translate(187.2257,-92.9964)"
             id="g284"><path
               id="path286"
               style="fill:none;stroke:#000000;stroke-width:1;stroke-linecap:round;stroke-linejoin:round;stroke-miterlimit:4;stroke-dasharray:none;stroke-opacity:1"
               d="M 0,0 H 89.373" /></g></g><g
           transform="matrix(0.9911492,0,-0.34128,-0.8470809,0,0)"
           id="g288"><g
             transform="translate(96.4668,-25.0004)"
             id="g290"><path
               id="path292"
               style="fill:none;stroke:#000000;stroke-width:1;stroke-linecap:round;stroke-linejoin:round;stroke-miterlimit:4;stroke-dasharray:none;stroke-opacity:1"
               d="M 0,0 H 90.759" /></g></g><g
           transform="matrix(0.9911492,0,-0.34128,-0.8470809,0,0)"
           id="g294"><g
             transform="translate(276.5991,-25.0004)"
             id="g296"><path
               id="path298"
               style="fill:none;stroke:#000000;stroke-width:1;stroke-linecap:round;stroke-linejoin:round;stroke-miterlimit:4;stroke-dasharray:none;stroke-opacity:1"
               d="M 0,0 H 76.181" /></g></g><g
           transform="matrix(0.9911492,0,-0.34128,-0.8470809,0,0)"
           id="g300"><path
             id="path302"
             style="fill:#000000;fill-opacity:1;fill-rule:nonzero;stroke:none"
             d="m 195.967,-84.255 h -17.483 v -17.483 h 17.483 z" /></g><g
           transform="matrix(0.9911492,0,-0.34128,-0.8470809,0,0)"
           id="g304"><g
             transform="translate(195.9674,-84.2547)"
             id="g306"><path
               id="path308"
               style="fill:none;stroke:#000000;stroke-width:1;stroke-linecap:butt;stroke-linejoin:miter;stroke-miterlimit:4;stroke-dasharray:none;stroke-opacity:1"
               d="M 0,0 H -17.483 V -17.483 H 0 Z" /></g></g><g
           transform="matrix(0.9911492,0,-0.34128,-0.8470809,0,0)"
           id="g310"><path
             id="path312"
             style="fill:#000000;fill-opacity:1;fill-rule:nonzero;stroke:none"
             d="m 195.967,-16.259 h -17.483 v -17.483 h 17.483 z" /></g><g
           transform="matrix(0.9911492,0,-0.34128,-0.8470809,0,0)"
           id="g314"><g
             transform="translate(195.9674,-16.2587)"
             id="g316"><path
               id="path318"
               style="fill:none;stroke:#000000;stroke-width:1;stroke-linecap:butt;stroke-linejoin:miter;stroke-miterlimit:4;stroke-dasharray:none;stroke-opacity:1"
               d="M 0,0 H -17.483 V -17.483 H 0 Z" /></g></g><g
           transform="matrix(0.9911492,0,-0.34128,-0.8470809,0,0)"
           id="g320"><path
             id="path322"
             style="fill:#000000;fill-opacity:1;fill-rule:nonzero;stroke:none"
             d="m 151.391,-50.658 h -17.483 v -17.483 h 17.483 z" /></g><g
           transform="matrix(0.9911492,0,-0.34128,-0.8470809,0,0)"
           id="g324"><g
             transform="translate(151.3914,-50.6577)"
             id="g326"><path
               id="path328"
               style="fill:none;stroke:#000000;stroke-width:1;stroke-linecap:butt;stroke-linejoin:miter;stroke-miterlimit:4;stroke-dasharray:none;stroke-opacity:1"
               d="M 0,0 H -17.483 V -17.483 H 0 Z" /></g></g><g
           transform="matrix(0.9911492,0,-0.34128,-0.8470809,0,0)"
           id="g330"><g
             transform="translate(96.7368,-25.0004)"
             id="g332"><path
               id="path334"
               style="fill:none;stroke:#000000;stroke-width:1;stroke-linecap:round;stroke-linejoin:round;stroke-miterlimit:4;stroke-dasharray:none;stroke-opacity:1"
               d="M 0,0 45.913,-33.597" /></g></g><g
           transform="matrix(0.9911492,0,-0.34128,-0.8470809,0,0)"
           id="g336"><path
             id="path338"
             style="fill:#000000;fill-opacity:1;fill-rule:nonzero;stroke:none"
             d="M 106.217,-16.259 H 88.734 v -17.483 h 17.483 z" /></g><g
           transform="matrix(0.9911492,0,-0.34128,-0.8470809,0,0)"
           id="g340"><g
             transform="translate(106.2175,-16.2587)"
             id="g342"><path
               id="path344"
               style="fill:none;stroke:#000000;stroke-width:1;stroke-linecap:butt;stroke-linejoin:miter;stroke-miterlimit:4;stroke-dasharray:none;stroke-opacity:1"
               d="M 0,0 H -17.483 V -17.483 H 0 Z" /></g></g></g></g><g
       id="g346"><g
         clip-path="url(#clipPath352)"
         id="g348"><text
           id="text366"
           style="font-variant:normal;font-weight:normal;font-stretch:normal;font-size:11.05785275px;font-family:'RNUZK Q +cmr 7';-inkscape-font-specification:cmr7;writing-mode:lr-tb;fill:#ffffff;fill-opacity:1;fill-rule:nonzero;stroke:none"
           transform="matrix(0.9455181,0,-0.32556953,-0.80808636,357.8538,118.2761)"><tspan
             id="tspan354"
             y="0"
             x="0">0</tspan><tspan
             id="tspan356"
             y="52.303642"
             x="38.636139">1</tspan><tspan
             id="tspan358"
             y="123.80372"
             x="38.636139 -41.489063">23</tspan><tspan
             id="tspan360"
             y="52.303642"
             x="-41.865032 -134.97215">45</tspan><tspan
             id="tspan362"
             y="87.755119"
             x="-181.80215">6</tspan><tspan
             id="tspan364"
             y="123.80372"
             x="-229.63843 -134.62936">78</tspan></text>
</g></g><g
       id="g368"><g
         clip-path="url(#clipPath374)"
         id="g370"><g
           transform="matrix(0.997106,0,-0.3433311,-0.8521719,0,0)"
           id="g376"><g
             transform="translate(236.8521,-338.7616)"
             id="g378"><path
               id="path380"
               style="fill:none;stroke:#000000;stroke-width:1;stroke-linecap:butt;stroke-linejoin:miter;stroke-miterlimit:10;stroke-dasharray:none;stroke-opacity:1"
               d="m 0,0 c 6.47,-9.021 19.774,-11.117 28.158,-1.549 4.178,4.769 5.206,15.815 14.053,26.632 8.846,10.818 23.006,21.993 23.429,29.248 0.689,11.824 -6.701,20.812 -21.807,14 -8.429,-3.8 -44.252,-8.111 -60.42,-1.008 -11.17,4.907 -24.32,-1.329 -23.064,-11.332 0.983,-7.827 14.63,-17.717 24.989,-31.028 C -6.712,14.746 -3.362,4.689 0,0 Z" /></g></g><g
           transform="matrix(0.997106,0,-0.3433311,-0.8521719,0,0)"
           id="g382"><g
             transform="translate(288.3314,-230.274)"
             id="g384"><path
               id="path386"
               style="fill:none;stroke:#000000;stroke-width:1;stroke-linecap:butt;stroke-linejoin:miter;stroke-miterlimit:10;stroke-dasharray:none;stroke-opacity:1"
               d="m 0,0 c 14.414,3.865 21.441,21.568 5.253,27.198 -9.744,3.389 -21.685,-0.874 -39.041,-1.261 -20.41,-0.454 -32.216,4.057 -43.499,3.062 C -95.243,27.414 -97.287,6.47 -78.46,1.101 -66.972,-2.174 -56.116,0.407 -36.434,0.932 -20.855,1.347 -9.832,-2.636 0,0 Z" /></g></g><g
           transform="matrix(0.997106,0,-0.3433311,-0.8521719,0,0)"
           id="g388"><g
             transform="translate(249.673,-229.92)"
             id="g390"><path
               id="path392"
               style="fill:none;stroke:#000000;stroke-width:1.5;stroke-linecap:round;stroke-linejoin:round;stroke-miterlimit:4;stroke-dasharray:none;stroke-opacity:1"
               d="M 0,0 V -44.807" /></g></g><g
           transform="matrix(0.997106,0,-0.3433311,-0.8521719,0,0)"
           id="g394"><g
             transform="translate(143.192,-282.7707)"
             id="g396"><path
               id="path398"
               style="fill:none;stroke:#000000;stroke-width:1;stroke-linecap:round;stroke-linejoin:round;stroke-miterlimit:4;stroke-dasharray:none;stroke-opacity:1"
               d="M 0,0 H 53.925" /></g></g><g
           transform="matrix(0.997106,0,-0.3433311,-0.8521719,0,0)"
           id="g400"><g
             transform="translate(200.6678,-226.0966)"
             id="g402"><path
               id="path404"
               style="fill:#000000;fill-opacity:1;fill-rule:nonzero;stroke:none"
               d="M 0,0 C -1.382,-1.798 -2.611,-3.829 -3.082,-6.199 -3.307,-7.377 -3.321,-8.635 -3,-9.851 c 0.324,-1.212 1.012,-2.343 1.95,-3.197 1.889,-1.727 4.698,-2.203 7.053,-1.426 2.4,0.743 4.252,2.586 5.418,4.634 0.266,0.466 0.103,1.059 -0.363,1.324 C 10.593,-8.251 10,-8.413 9.735,-8.879 L 9.728,-8.891 C 8.752,-10.645 7.27,-12.11 5.439,-12.7 c -1.802,-0.623 -3.909,-0.264 -5.3,0.977 -0.69,0.618 -1.203,1.426 -1.461,2.334 -0.251,0.911 -0.262,1.901 -0.089,2.879 0.361,1.97 1.425,3.835 2.689,5.514 l 0.011,0.015 C 1.559,-0.624 1.487,-0.116 1.13,0.153 0.774,0.421 0.271,0.351 0,0" /></g></g><g
           transform="matrix(0.997106,0,-0.3433311,-0.8521719,0,0)"
           id="g406"><g
             transform="translate(212.8462,-230.9017)"
             id="g408"><path
               id="path410"
               style="fill:#000000;fill-opacity:1;fill-rule:nonzero;stroke:none"
               d="m 0,0 c -1.578,-1.839 -3.905,-3.984 -5.94,-5.094 l 4.046,-0.029 3.091,-2.61 C 0.374,-5.566 0.002,-2.423 0,0" /></g></g><g
           transform="matrix(0.997106,0,-0.3433311,-0.8521719,0,0)"
           id="g412"><g
             transform="translate(211.9449,-306.0191)"
             id="g414"><path
               id="path416"
               style="fill:#000000;fill-opacity:1;fill-rule:nonzero;stroke:none"
               d="m 0,0 c -2.772,-1.22 -5.507,-3.032 -7.285,-5.827 -0.877,-1.386 -1.451,-3.001 -1.624,-4.664 -0.17,-1.664 0.061,-3.362 0.656,-4.924 0.6,-1.558 1.545,-3.009 2.869,-4.137 1.322,-1.105 3.069,-1.915 4.942,-1.919 1.871,-0.013 3.646,0.75 4.972,1.803 1.347,1.056 2.344,2.352 3.193,3.68 0.506,0.79 0.275,1.841 -0.516,2.347 -0.791,0.506 -1.842,0.275 -2.348,-0.516 -0.003,-0.004 -0.006,-0.009 -0.008,-0.014 l -0.038,-0.06 C 4.14,-15.32 3.37,-16.324 2.472,-17.05 c -0.896,-0.73 -1.899,-1.138 -2.903,-1.159 -1.006,-0.018 -2.026,0.411 -2.904,1.107 -0.871,0.715 -1.561,1.719 -2.003,2.817 -0.907,2.215 -0.689,4.815 0.599,6.891 1.281,2.101 3.467,3.675 5.885,4.781 l 0.022,0.01 C 1.885,-2.275 2.2,-1.428 1.872,-0.712 1.547,-0.002 0.712,0.313 0,0" /></g></g><g
           transform="matrix(0.997106,0,-0.3433311,-0.8521719,0,0)"
           id="g418"><g
             transform="translate(220.6918,-315.2896)"
             id="g420"><path
               id="path422"
               style="fill:#000000;fill-opacity:1;fill-rule:nonzero;stroke:none"
               d="m 0,0 c -2.221,-2.277 -5.446,-4.893 -8.204,-6.179 l 5.297,-0.374 3.831,-3.675 C 0.027,-7.321 -0.199,-3.174 0,0" /></g></g></g></g><g
       id="g424"><g
         clip-path="url(#clipPath430)"
         id="g426"><text
           id="text434"
           style="font-variant:normal;font-weight:normal;font-stretch:normal;font-size:9.09407806px;font-family:'RNUZK Q +cmr 7';-inkscape-font-specification:cmr7;writing-mode:lr-tb;fill:#000000;fill-opacity:1;fill-rule:nonzero;stroke:none"
           transform="matrix(0.94551639,0,-0.3255745,-0.8080863,262.4232,242.1516)"><tspan
             id="tspan432"
             y="0"
             x="0">1</tspan></text>
<g
           transform="matrix(0.997106,0,-0.3433311,-0.8521719,0,0)"
           id="g436"><g
             transform="translate(74.5956,-267.7423)"
             id="g438"><path
               id="path440"
               style="fill:#000000;fill-opacity:1;fill-rule:nonzero;stroke:none"
               d="m 0,0 c -1.596,-1.596 -3.193,-3.23 -4.443,-5.221 -1.271,-1.953 -2.324,-4.135 -2.867,-6.534 -0.55,-2.388 -0.542,-4.979 0.124,-7.409 0.655,-2.434 1.934,-4.677 3.637,-6.502 1.705,-1.822 3.817,-3.277 6.218,-4.108 2.386,-0.842 5.067,-1.097 7.664,-0.513 2.593,0.602 4.957,2.099 6.668,4.003 1.733,1.906 2.87,4.137 3.678,6.375 0.505,1.399 -0.22,2.944 -1.619,3.45 -1.4,0.505 -2.945,-0.22 -3.45,-1.62 -0.003,-0.008 -0.006,-0.016 -0.009,-0.024 l -0.027,-0.079 c -0.596,-1.731 -1.408,-3.327 -2.498,-4.565 -1.085,-1.24 -2.431,-2.108 -3.947,-2.503 -3.046,-0.753 -6.715,0.48 -9.069,2.999 -2.415,2.472 -3.487,6.04 -2.718,9.494 0.732,3.48 3.005,6.722 5.793,9.462 l 0.067,0.066 c 0.895,0.88 0.908,2.32 0.027,3.215 C 2.349,0.882 0.91,0.894 0.014,0.014 Z" /></g></g><g
           transform="matrix(0.997106,0,-0.3433311,-0.8521719,0,0)"
           id="g442"><g
             transform="translate(94.008,-280.2658)"
             id="g444"><path
               id="path446"
               style="fill:#000000;fill-opacity:1;fill-rule:nonzero;stroke:none"
               d="m 0,0 c -1.78,-2.817 -4.516,-6.2 -7.062,-8.118 l 5.51,0.77 4.726,-2.932 C 1.621,-7.497 0.487,-3.296 0,0" /></g></g><text
           id="text450"
           style="font-variant:normal;font-weight:normal;font-stretch:normal;font-size:14.51688862px;font-family:'RNUZK Q +cmr 7';-inkscape-font-specification:cmr7;writing-mode:lr-tb;fill:#000000;fill-opacity:1;fill-rule:nonzero;stroke:none"
           transform="matrix(0.94551944,0,-0.32556564,-0.80807952,168.4018,236.2755)"><tspan
             id="tspan448"
             y="0"
             x="0 8.2601089">10</tspan></text>
<text
           id="text454"
           style="font-variant:normal;font-weight:normal;font-stretch:normal;font-size:11.84852409px;font-family:'RNUZK Q +cmr 7';-inkscape-font-specification:cmr7;writing-mode:lr-tb;fill:#000000;fill-opacity:1;fill-rule:nonzero;stroke:none"
           transform="matrix(0.94551863,0,-0.32556798,-0.80808379,315.5536,266.104)"><tspan
             id="tspan452"
             y="0"
             x="0">6</tspan></text>
<text
           id="text460"
           style="font-variant:normal;font-weight:normal;font-stretch:normal;font-size:10.1407795px;font-family:'RNUZK Q +cmr 7';-inkscape-font-specification:cmr7;writing-mode:lr-tb;fill:#000000;fill-opacity:1;fill-rule:nonzero;stroke:none"
           transform="matrix(0.94551908,0,-0.3255667,-0.80808387,336.5953,212.5802)"><tspan
             id="tspan456"
             y="0"
             x="0">2</tspan><tspan
             id="tspan458"
             y="20.606064"
             x="-52.721909">2</tspan></text>
<g
           transform="matrix(0.997106,0,-0.3433311,-0.8521719,0,0)"
           id="g462"><g
             transform="translate(21.429,-210.4194)"
             id="g464"><path
               id="path466"
               style="fill:none;stroke:#000000;stroke-width:1;stroke-linecap:butt;stroke-linejoin:miter;stroke-miterlimit:10;stroke-dasharray:none;stroke-opacity:1"
               d="m 0,0 c -5.065,-16.99 36.773,-39.473 52.417,-50.311 15.644,-10.839 39.606,-40.277 58.03,-38.229 18.425,2.047 8.949,32.557 8.788,48.737 -0.16,16.18 10.082,38.823 0.429,47.188 -7.539,6.534 -22.783,1.328 -44.4,-0.861 C 60.321,5.011 43.657,4.846 32.631,6.498 21.605,8.15 5.065,16.99 0,0 Z" /></g></g></g></g><text
       id="text472"
       style="font-variant:normal;font-weight:normal;font-stretch:normal;font-size:12.33889961px;font-family:BKM-cmr7;-inkscape-font-specification:cmr7;writing-mode:lr-tb;fill:#e53054;fill-opacity:1;fill-rule:nonzero;stroke:none"
       transform="matrix(1,0,0,-1,19.0771,232.2998)"><tspan
         id="tspan468"
         y="0"
         x="0 7.020834 12.610355 18.113504 22.863981 30.649828 37.670662 43.260185">1st pass</tspan><tspan
         id="tspan470"
         y="-191.16658"
         x="7.1442232 14.165057 21.950903 29.73675 34.487225 42.273071 49.293907 54.883427">2nd pass</tspan></text>
<g
       id="g474"><g
         clip-path="url(#clipPath480)"
         id="g476"><g
           transform="translate(77.6729,61.259)"
           id="g482"><path
             id="path484"
             style="fill:none;stroke:#e53054;stroke-width:1;stroke-linecap:butt;stroke-linejoin:miter;stroke-miterlimit:10;stroke-dasharray:none;stroke-opacity:1"
             d="m 0,0 c 0,0 -57.743,31.017 -70.589,70.626 -12.846,39.61 4.077,104.176 46.52,83.419" /></g><g
           transform="translate(80.3662,69.0663)"
           id="g486"><path
             id="path488"
             style="fill:none;stroke:#e53054;stroke-width:1;stroke-linecap:butt;stroke-linejoin:miter;stroke-miterlimit:10;stroke-dasharray:none;stroke-opacity:1"
             d="m 0,0 c 0,0 -57.743,31.017 -70.589,70.626 -12.846,39.61 4.077,104.176 46.52,83.419" /></g><g
           transform="translate(56.2971,223.1113)"
           id="g490"><path
             id="path492"
             style="fill:none;stroke:#e53054;stroke-width:1;stroke-linecap:round;stroke-linejoin:round;stroke-miterlimit:10;stroke-dasharray:none;stroke-opacity:1"
             d="m 0,0 2.127,4.934 12.521,-16.161 -19.492,-1.294 2.151,4.714" /></g></g></g><text
       id="text496"
       style="font-variant:normal;font-weight:normal;font-stretch:normal;font-size:13.1232996px;font-family:BKM-cmmi10;-inkscape-font-specification:cmmi10;writing-mode:lr-tb;fill:#000000;fill-opacity:1;fill-rule:nonzero;stroke:none"
       transform="matrix(1,0,0,-1,113.6914,125.0313)"><tspan
         id="tspan494"
         y="0"
         x="0">Q</tspan></text>
<text
       id="text500"
       style="font-variant:normal;font-weight:normal;font-stretch:normal;font-size:13.1232996px;font-family:BKM-cmsy10;-inkscape-font-specification:cmsy10;writing-mode:lr-tb;fill:#000000;fill-opacity:1;fill-rule:nonzero;stroke:none"
       transform="matrix(1,0,0,-1,127.70708,125.0313)"><tspan
         id="tspan498"
         y="0"
         x="0 13.858205">≈−</tspan></text>
<text
       id="text504"
       style="font-variant:normal;font-weight:normal;font-stretch:normal;font-size:13.1232996px;font-family:BKM-cmr10;-inkscape-font-specification:cmr10;writing-mode:lr-tb;fill:#000000;fill-opacity:1;fill-rule:nonzero;stroke:none"
       transform="matrix(1,0,0,-1,151.76209,125.0313)"><tspan
         id="tspan502"
         y="0"
         x="0">0</tspan></text>
<text
       id="text508"
       style="font-variant:normal;font-weight:normal;font-stretch:normal;font-size:13.1232996px;font-family:BKM-cmmi10;-inkscape-font-specification:cmmi10;writing-mode:lr-tb;fill:#000000;fill-opacity:1;fill-rule:nonzero;stroke:none"
       transform="matrix(1,0,0,-1,158.32374,125.0313)"><tspan
         id="tspan506"
         y="0"
         x="0">.</tspan></text>
<text
       id="text512"
       style="font-variant:normal;font-weight:normal;font-stretch:normal;font-size:13.1232996px;font-family:BKM-cmr10;-inkscape-font-specification:cmr10;writing-mode:lr-tb;fill:#000000;fill-opacity:1;fill-rule:nonzero;stroke:none"
       transform="matrix(1,0,0,-1,161.97202,125.0313)"><tspan
         id="tspan510"
         y="0"
         x="0 6.5616498 13.1233">118</tspan></text>
<text
       id="text516"
       style="font-variant:normal;font-weight:normal;font-stretch:normal;font-size:13.1232996px;font-family:BKM-cmmi10;-inkscape-font-specification:cmmi10;writing-mode:lr-tb;fill:#000000;fill-opacity:1;fill-rule:nonzero;stroke:none"
       transform="matrix(1,0,0,-1,113.03524,285.16181)"><tspan
         id="tspan514"
         y="0"
         x="0">Q</tspan></text>
<text
       id="text520"
       style="font-variant:normal;font-weight:normal;font-stretch:normal;font-size:13.1232996px;font-family:BKM-cmsy10;-inkscape-font-specification:cmsy10;writing-mode:lr-tb;fill:#000000;fill-opacity:1;fill-rule:nonzero;stroke:none"
       transform="matrix(1,0,0,-1,127.05092,285.16181)"><tspan
         id="tspan518"
         y="0"
         x="0">≈</tspan></text>
<text
       id="text524"
       style="font-variant:normal;font-weight:normal;font-stretch:normal;font-size:13.1232996px;font-family:BKM-cmr10;-inkscape-font-specification:cmr10;writing-mode:lr-tb;fill:#000000;fill-opacity:1;fill-rule:nonzero;stroke:none"
       transform="matrix(1,0,0,-1,140.90912,285.16181)"><tspan
         id="tspan522"
         y="0"
         x="0">0</tspan></text>
<text
       id="text528"
       style="font-variant:normal;font-weight:normal;font-stretch:normal;font-size:13.1232996px;font-family:BKM-cmmi10;-inkscape-font-specification:cmmi10;writing-mode:lr-tb;fill:#000000;fill-opacity:1;fill-rule:nonzero;stroke:none"
       transform="matrix(1,0,0,-1,147.47077,285.16181)"><tspan
         id="tspan526"
         y="0"
         x="0">.</tspan></text>
<text
       id="text532"
       style="font-variant:normal;font-weight:normal;font-stretch:normal;font-size:13.1232996px;font-family:BKM-cmr10;-inkscape-font-specification:cmr10;writing-mode:lr-tb;fill:#000000;fill-opacity:1;fill-rule:nonzero;stroke:none"
       transform="matrix(1,0,0,-1,151.11905,285.16181)"><tspan
         id="tspan530"
         y="0"
         x="0 6.5616498 13.1233">372</tspan></text>
<text
       id="text536"
       style="font-variant:normal;font-weight:normal;font-stretch:normal;font-size:13.1232996px;font-family:BKM-cmmi10;-inkscape-font-specification:cmmi10;writing-mode:lr-tb;fill:#000000;fill-opacity:1;fill-rule:nonzero;stroke:none"
       transform="matrix(1,0,0,-1,113.67828,447.16895)"><tspan
         id="tspan534"
         y="0"
         x="0">Q</tspan></text>
<text
       id="text540"
       style="font-variant:normal;font-weight:normal;font-stretch:normal;font-size:13.1232996px;font-family:BKM-cmsy10;-inkscape-font-specification:cmsy10;writing-mode:lr-tb;fill:#000000;fill-opacity:1;fill-rule:nonzero;stroke:none"
       transform="matrix(1,0,0,-1,127.69396,447.16895)"><tspan
         id="tspan538"
         y="0"
         x="0">≈</tspan></text>
<text
       id="text544"
       style="font-variant:normal;font-weight:normal;font-stretch:normal;font-size:13.1232996px;font-family:BKM-cmr10;-inkscape-font-specification:cmr10;writing-mode:lr-tb;fill:#000000;fill-opacity:1;fill-rule:nonzero;stroke:none"
       transform="matrix(1,0,0,-1,141.55217,447.16895)"><tspan
         id="tspan542"
         y="0"
         x="0">0</tspan></text>
<text
       id="text548"
       style="font-variant:normal;font-weight:normal;font-stretch:normal;font-size:13.1232996px;font-family:BKM-cmmi10;-inkscape-font-specification:cmmi10;writing-mode:lr-tb;fill:#000000;fill-opacity:1;fill-rule:nonzero;stroke:none"
       transform="matrix(1,0,0,-1,148.11382,447.16895)"><tspan
         id="tspan546"
         y="0"
         x="0">.</tspan></text>
<text
       id="text552"
       style="font-variant:normal;font-weight:normal;font-stretch:normal;font-size:13.1232996px;font-family:BKM-cmr10;-inkscape-font-specification:cmr10;writing-mode:lr-tb;fill:#000000;fill-opacity:1;fill-rule:nonzero;stroke:none"
       transform="matrix(1,0,0,-1,151.76209,447.16895)"><tspan
         id="tspan550"
         y="0"
         x="0 6.5616498 13.1233">413</tspan></text>
</g></svg>