<?xml version="1.0" encoding="UTF-8"?><svg id="a" xmlns="http://www.w3.org/2000/svg" width="292.08" height="149.47" viewBox="0 0 292.08 149.47"><path d="m2.87,136.85c-5.07-16.99,36.77-39.47,52.42-50.31s39.61-40.28,58.03-38.23,8.95,32.56,8.79,48.74,10.08,38.82.43,47.19c-7.54,6.53-22.78,1.33-44.4-.86-14.94-1.51-31.61-1.68-42.63-.03s-27.57,10.49-32.63-6.5Z" style="fill:#b4b4b4; opacity:.3;"/><path d="m287.01,59.47c4.72,13.35-6.85,26.45-20.29,17.22-8.09-5.55-11.95-17.13-21.12-30.73-10.78-16-15.05-14.29-20.4-23.57-8.52-14.76,7.66-28.43,22.32-17.01,8.95,6.96,7.29,10.51,17.62,25.99,8.17,12.25,18.65,18.99,21.87,28.1Z" style="fill:#b4b4b4; opacity:.3;"/><path d="m196.89,49.01c11.42-2.33,22.44,16.92,17.19,24.94-4.81,7.35-28.11,9.73-31.45,1.11-3.06-7.88,3.93-23.95,14.26-26.05Z" style="fill:#b4b4b4;"/><path d="m196.27,117.18c.6-.12,1.19-.18,1.78-.18s1.18.05,1.76.15c9.54,1.66,17.47,16.85,12.97,23.61-4.62,6.95-26.99,9.2-30.21,1.05-2.94-7.45,3.77-22.63,13.69-24.62Z" style="fill:#b4b4b4; opacity:.3;"/><path d="m272.48,116.7c10.97-2.24,21.56,16.25,16.51,23.96-4.62,7.06-26.99,9.35-30.21,1.07-2.94-7.57,3.77-23,13.69-25.02Z" style="fill:#b4b4b4; opacity:.3;"/><circle cx="237.26" cy="15.38" r="10" style="opacity:.3; stroke:#000;"/><circle cx="274.16" cy="65.38" r="10" style="opacity:.3; stroke:#000;"/><circle cx="197.97" cy="65.38" r="10" style="stroke:#000;"/><circle cx="274.16" cy="133.38" r="10" style="opacity:.3; stroke:#000;"/><circle cx="197.97" cy="133.38" r="10" style="opacity:.3; stroke:#000;"/><line x1="204.22" y1="57.57" x2="231.09" y2="23.12" style="fill:none; stroke:#000; stroke-linecap:round; stroke-linejoin:round;"/><line x1="72.77" y1="91.42" x2="99.86" y2="72.22" style="fill:none; opacity:.3; stroke:#000; stroke-linecap:round; stroke-linejoin:round;"/><line x1="268.05" y1="57.46" x2="242.82" y2="23.7" style="fill:none; opacity:.3; stroke:#000; stroke-linecap:round; stroke-linejoin:round;"/><line x1="274.16" y1="123.38" x2="274.16" y2="75.38" style="fill:none; opacity:.3; stroke:#000; stroke-linecap:round; stroke-linejoin:round;"/><line x1="197.97" y1="123.38" x2="197.97" y2="75.38" style="fill:none; stroke:#000; stroke-linecap:round; stroke-linejoin:round;"/><line x1="203.41" y1="80.95" x2="203.41" y2="95.07" style="fill:none; stroke:#2981b3; stroke-linecap:round; stroke-linejoin:round; stroke-width:.8px;"/><path d="m203.41,98.45c-.59-1.59-1.6-3.56-2.66-4.79l2.66.96,2.66-.96c-1.07,1.22-2.07,3.2-2.66,4.79Z" style="fill:#2981b3;"/><line x1="204.59" y1="48.19" x2="219.47" y2="28.74" style="fill:none; stroke:#2981b3; stroke-linecap:round; stroke-linejoin:round;"/><path d="m222.04,25.38c-.62,2.03-1.12,4.75-.99,6.77l-1.91-2.98-3.38-1.07c1.99-.4,4.49-1.6,6.28-2.73Z" style="fill:#2981b3;"/><line x1="108.6" y1="124.64" x2="108.6" y2="74.12" style="fill:none; opacity:.3; stroke:#000; stroke-linecap:round; stroke-linejoin:round;"/><line x1="99.86" y1="125.83" x2="72.77" y2="105.83" style="fill:none; opacity:.3; stroke:#000; stroke-linecap:round; stroke-linejoin:round;"/><line x1="207.97" y1="65.38" x2="264.16" y2="65.38" style="fill:none; stroke:#000; stroke-linecap:round; stroke-linejoin:round;"/><line x1="117.34" y1="65.38" x2="187.97" y2="65.38" style="fill:none; stroke:#000; stroke-linecap:round; stroke-linejoin:round;"/><line x1="27.59" y1="133.38" x2="99.86" y2="133.38" style="fill:none; opacity:.3; stroke:#000; stroke-linecap:round; stroke-linejoin:round;"/><line x1="207.97" y1="133.38" x2="264.16" y2="133.38" style="fill:none; opacity:.3; stroke:#000; stroke-linecap:round; stroke-linejoin:round;"/><rect x="99.86" y="56.64" width="17.48" height="17.48" style="opacity:.3; stroke:#000;"/><rect x="99.86" y="124.64" width="17.48" height="17.48" style="opacity:.3; stroke:#000;"/><rect x="55.28" y="90.24" width="17.48" height="17.48" style="opacity:.3; stroke:#000;"/><line x1="27.59" y1="126.28" x2="55.28" y2="106.74" style="fill:none; opacity:.3; stroke:#000; stroke-linecap:round; stroke-linejoin:round;"/><rect x="10.11" y="124.64" width="17.48" height="17.48" style="opacity:.3; stroke:#000;"/><g style="fill:none; opacity:.3;"><path d="m234.88,15.4c0-1.66.39-3.65,2.46-3.65s2.46,1.99,2.46,3.65-.41,3.56-2.46,3.56-2.46-1.92-2.46-3.56Zm3.91-.18c0-1.11,0-3.13-1.46-3.13s-1.46,2.02-1.46,3.13,0,3.41,1.46,3.41,1.46-2.29,1.46-3.41Z" style="fill:#fff;"/></g><g style="fill:none; opacity:.3;"><path d="m272.41,68.23c.28,0,1.46,0,1.46-.32v-5.45c-.46.22-.99.29-1.52.29v-.42c.74,0,1.54-.14,2.1-.67h.19c.07.02.11.05.13.13v6.14c0,.32,1.17.32,1.46.32v.42c-.63,0-1.27-.04-1.9-.04s-1.28.04-1.91.04v-.42Z" style="fill:#fff;"/></g><g style="fill:none; opacity:.25;"><path d="m271.87,136.55s.02-.06.04-.08l1.88-1.83c.12-.13.24-.24.36-.36.63-.63,1.33-1.39,1.33-2.34s-.66-1.66-1.61-1.66c-.61,0-1.19.34-1.45.9h.03c.33,0,.59.25.59.58s-.26.58-.59.58-.58-.25-.58-.58c0-1.16,1.1-1.9,2.17-1.9,1.23,0,2.48.71,2.48,2.08s-1.38,2.11-2.29,2.89l-1.29,1.1h.97c.68,0,1.89,0,1.95-.05.14-.16.21-.63.26-.97h.4l-.32,1.96h-4.34v-.31Z" style="fill:#fff;"/></g><g style="fill:none; opacity:.3;"><path d="m197.72,136.69c.94,0,1.31-.84,1.31-1.67s-.38-1.67-1.32-1.67h-.79c-.05,0-.12-.06-.12-.12v-.11c0-.05.06-.12.12-.12l.66-.04c.8,0,1.23-.98,1.23-1.67s-.42-1.11-1.1-1.11c-.51,0-1.1.14-1.44.54.31,0,.53.28.53.57,0,.32-.24.56-.56.56s-.57-.24-.57-.56c0-1.04,1.18-1.44,2.05-1.44s2.14.42,2.14,1.44c0,.92-.69,1.58-1.52,1.86.91.18,1.86.85,1.86,1.86,0,1.29-1.32,2.05-2.48,2.05-.99,0-2.37-.44-2.37-1.64,0-.34.26-.6.61-.6s.6.26.6.6-.25.61-.58.61c.39.51,1.13.65,1.74.65Z" style="fill:#fff;"/></g><path d="m194.83,66.5l3.51-4.78s.09-.07.15-.07h.21c.08,0,.16.06.16.15v4.7h1.14v.42h-1.16v.99c0,.32.86.32,1.14.32v.42c-.53,0-1.06-.04-1.59-.04s-1.08.04-1.6.04v-.42c.27,0,1.13,0,1.13-.32v-.99h-3.08v-.42Zm3.15,0v-3.68l-2.7,3.68h2.7Z" style="fill:#fff;"/><g style="fill:none; opacity:.3;"><path d="m108.36,68.48c1.16,0,1.52-.95,1.52-1.95,0-.76-.14-1.95-1.16-1.95-1.2,0-1.4.75-1.65.81h-.12c-.07-.02-.11-.05-.13-.14v-3.49c0-.06.06-.12.13-.12h.03c.53.22,1.09.35,1.66.35s1.13-.13,1.67-.35h.03c.06,0,.13.05.13.12v.11s-.01.05-.03.07c-.55.63-1.36.99-2.19.99-.34,0-.66-.03-.99-.12v1.93c.41-.35.93-.51,1.47-.51,1.25,0,2.2,1.08,2.2,2.3,0,1.37-1.25,2.32-2.56,2.32-1.08,0-2.1-.78-2.1-1.92,0-.31.24-.55.55-.55s.55.24.55.55-.23.56-.55.56h-.04c.27.61.93.98,1.59.98Z" style="fill:#fff;"/></g><g style="fill:none; opacity:.3;"><path d="m61.49,99.06c0-1.74,1.17-3.58,3.07-3.58.76,0,1.49.34,1.49,1.19,0,.29-.23.52-.52.52s-.53-.22-.53-.52c0-.25.2-.52.47-.52-.22-.26-.59-.34-.92-.34-.63,0-1.21.38-1.54.91-.42.65-.48,1.46-.48,2.22.31-.57.85-.98,1.51-.98,1.32,0,2.29,1.04,2.29,2.34s-1.08,2.37-2.41,2.37c-1.95,0-2.43-2.05-2.43-3.62Zm3.8,1.24c0-.93-.1-2-1.31-2-.93,0-1.39.97-1.39,1.78v.27c0,.84.29,1.94,1.33,1.94,1.23,0,1.37-1.01,1.37-1.99Z" style="fill:#fff;"/></g><g style="fill:none; opacity:.3;"><path d="m19.07,132.23l.97-1.22h-1.22c-.75,0-2.06,0-2.12.05-.15.17-.22.63-.27.97h-.4l.37-2.3h.4v.03c0,.17.22.23.35.24.53.06,1.17.06,1.75.06h2.15v.28s-.01.06-.03.08l-1.59,1.99c-.93,1.15-.93,2.72-.93,4.11,0,.29-.23.53-.52.53s-.53-.23-.53-.53c0-1.57.64-3.09,1.62-4.31Z" style="fill:#fff;"/></g><g style="fill:none; opacity:.3;"><path d="m108.09,133.31l-.36-.21c-.52-.31-.91-.85-.91-1.46,0-1.12,1.09-1.77,2.1-1.77.93,0,2.1.48,2.1,1.57,0,.8-.65,1.3-1.31,1.6l.6.36c.59.34,1.03.95,1.03,1.66,0,1.28-1.27,2.01-2.42,2.01-1.08,0-2.43-.58-2.43-1.83,0-.96.79-1.57,1.59-1.92Zm.83,3.37c.75,0,1.75-.38,1.75-1.26,0-.43-.31-.78-.65-.99l-1.54-.9c-.69.32-1.31.91-1.31,1.7,0,.92.92,1.46,1.75,1.46Zm.42-3.86c.54-.27,1.08-.74,1.08-1.39,0-.79-.79-1.23-1.5-1.23-.61,0-1.5.29-1.5,1.03,0,.34.25.62.54.78l1.38.81Z" style="fill:#fff;"/></g><path d="m200.46,46.81c-.06-.05-.08-.14-.03-.21l1.38-1.77-1.77-1.38c-.06-.05-.06-.15-.02-.21.05-.06.14-.08.2-.04l1.77,1.38,1.38-1.77c.05-.06.15-.06.2-.01.06.05.08.14.04.2l-1.38,1.77,1.77,1.38c.06.05.06.14.01.21s-.14.08-.2.04l-1.77-1.38-1.38,1.77c-.05.07-.15.07-.21.02Z" style="fill:#2981b3;"/><path d="m203.62,41.9c-.85-.66-1.96-1.79-1.1-2.9.86-1.11,2.22-.3,3.07.37.84.66,1.92,1.76,1.07,2.86-.86,1.11-2.2.33-3.04-.33Zm1.47-2.08c-.56-.44-1.83-1.43-2.41-.69-.58.75.69,1.74,1.25,2.18.56.44,1.99,1.55,2.57.81.58-.74-.85-1.85-1.41-2.29Z" style="fill:#2981b3;"/><path d="m207.7,39.27c.14-.18.4-.21.58-.07.18.14.22.4.08.58-.14.18-.41.21-.59.07-.18-.14-.21-.41-.07-.59Z" style="fill:#2981b3;"/><path d="m207.28,37.22c-.85-.66-1.96-1.79-1.1-2.9.86-1.11,2.22-.3,3.07.37.84.66,1.93,1.76,1.07,2.86-.86,1.11-2.2.33-3.04-.33Zm1.47-2.08c-.56-.44-1.83-1.43-2.41-.69-.58.75.69,1.74,1.25,2.18.56.44,1.99,1.55,2.57.81.58-.74-.85-1.85-1.41-2.29Z" style="fill:#2981b3;"/><path d="m212.26,34.63c.26-.33.22-.78.05-1.14-.24-.5-.69-.86-1.11-1.18.2.37.25.82-.02,1.17-.57.73-1.58.68-2.28.14-.73-.57-.94-1.58-.35-2.34.8-1.03,2.22-.21,3.01.4.87.68,1.71,2.1.92,3.12-.33.43-.85.7-1.34.32-.16-.13-.18-.35-.06-.51.13-.16.35-.19.51-.07.16.13.19.35.06.51h0c.26,0,.47-.22.63-.42Zm-1.74-2.84l-.14-.11c-.42-.32-1.22-.83-1.66-.27-.53.68.11,1.25.62,1.64.47.37,1.2.92,1.7.27.42-.54-.09-1.2-.52-1.54Z" style="fill:#2981b3;"/><path d="m212.57,28.98l-.34-1.14-.54.69c-.3.38-.83,1.07-.83,1.12.03.15.27.4.44.58l-.14.17-1.11-1.18.14-.17h.02c.17.15.91-.78,1.04-.94l.87-1.12.15.12s0,.02.01.02l.51,1.74c.33.99,1.23,1.69,2.03,2.32.16.13.19.35.06.51-.13.16-.35.19-.51.06-.89-.69-1.49-1.7-1.8-2.78Z" style="fill:#2981b3;"/><line x1="216.4" y1="60.95" x2="240.3" y2="61.09" style="fill:none; stroke:#2981b3; stroke-linecap:round; stroke-linejoin:round;"/><path d="m244.52,61.11c-1.99.73-4.47,1.97-6,3.29l1.22-3.32-1.19-3.34c1.52,1.34,3.98,2.61,5.96,3.36Z" style="fill:#2981b3;"/><path d="m215.87,57.45c0-.08.06-.15.15-.15l2.25.03.03-2.25c0-.08.08-.14.15-.14s.15.06.15.14l-.03,2.25,2.25.03c.08,0,.14.08.14.15s-.06.15-.14.15l-2.25-.03-.03,2.25c0,.08-.08.14-.15.13-.08,0-.15-.06-.15-.14l.02-2.25-2.25-.03c-.08,0-.14-.08-.14-.15Z" style="fill:#2981b3;"/><path d="m221.69,56.99c.01-1.08.23-2.65,1.64-2.63,1.4.02,1.58,1.59,1.57,2.67-.01,1.07-.23,2.6-1.63,2.58-1.4-.02-1.59-1.55-1.58-2.62Zm2.55-.09c0-.71.03-2.33-.91-2.34-.95-.01-.96,1.61-.97,2.32,0,.72-.03,2.53.92,2.54.94.01.96-1.8.97-2.51Z" style="fill:#2981b3;"/><path d="m226.25,58.64c.23,0,.41.2.41.42,0,.23-.19.42-.42.42-.23,0-.42-.2-.42-.42,0-.23.2-.42.42-.41Z" style="fill:#2981b3;"/><path d="m227.63,57.06c.01-1.08.23-2.65,1.64-2.63,1.4.02,1.58,1.59,1.57,2.67-.01,1.07-.23,2.6-1.63,2.58-1.4-.02-1.59-1.55-1.58-2.62Zm2.55-.09c0-.71.03-2.33-.91-2.34-.95-.01-.96,1.61-.97,2.32,0,.72-.03,2.53.92,2.54.94.01.96-1.8.97-2.51Z" style="fill:#2981b3;"/><path d="m232.71,59.46c.42,0,.76-.3.94-.65.25-.49.26-1.07.27-1.6-.17.39-.5.7-.95.69-.93,0-1.5-.85-1.49-1.73.01-.92.69-1.71,1.64-1.7,1.3.01,1.52,1.64,1.5,2.63-.01,1.1-.63,2.63-1.92,2.62-.54,0-1.07-.26-1.07-.88,0-.21.16-.36.37-.35.21,0,.36.16.36.36,0,.21-.17.36-.37.36h-.02c.17.2.47.23.72.24Zm1.2-3.11v-.18c0-.53-.08-1.47-.79-1.48-.86,0-.93.84-.93,1.49,0,.59,0,1.51.81,1.52.68,0,.9-.8.91-1.35Z" style="fill:#2981b3;"/><path d="m237.38,56.28l.71-.96h-.88c-.49-.02-1.36-.03-1.4.01-.1.11-.16.46-.2.7h-.22s.27-1.6.27-1.6h.22v.02c0,.22,1.18.24,1.39.25l1.42.02v.19s0,.01,0,.02l-1.07,1.46c-.59.86-.6,2-.61,3.01,0,.21-.16.36-.37.36-.21,0-.36-.17-.36-.37.01-1.13.45-2.22,1.12-3.12Z" style="fill:#2981b3;"/><path d="m205.07,87.93c0-.07.06-.14.13-.14h2.08v-2.08c0-.07.07-.13.14-.13s.14.06.14.13v2.08h2.08c.07,0,.13.07.13.14s-.06.14-.13.14h-2.08v2.08c0,.07-.07.13-.14.13s-.14-.06-.14-.13v-2.08h-2.08c-.08,0-.13-.07-.13-.14Z" style="fill:#2981b3;"/><path d="m210.46,87.45c0-1,.18-2.45,1.49-2.45s1.48,1.46,1.48,2.45-.19,2.41-1.48,2.41-1.49-1.42-1.49-2.41Zm2.36-.11c0-.66,0-2.15-.87-2.15s-.88,1.5-.88,2.15,0,2.34.88,2.34.87-1.67.87-2.34Z" style="fill:#2981b3;"/><path d="m214.69,88.92c.21,0,.38.18.38.39s-.17.39-.38.39-.39-.18-.39-.39.18-.39.39-.39Z" style="fill:#2981b3;"/><path d="m215.95,87.45c0-1,.18-2.45,1.49-2.45s1.48,1.46,1.48,2.45-.19,2.41-1.48,2.41-1.49-1.42-1.49-2.41Zm2.36-.11c0-.66,0-2.15-.87-2.15s-.88,1.5-.88,2.15,0,2.34.88,2.34.87-1.67.87-2.34Z" style="fill:#2981b3;"/><path d="m220.82,89.61c.76,0,.9-.75.9-1.34,0-.24,0-.5-.06-.74-.08-.29-.29-.62-.63-.62-.71,0-.89.54-.99.56h-.07s-.07-.04-.07-.06v-2.36s.04-.06.06-.06h.02c.32.15.66.23,1.01.23s.7-.08,1.02-.23h.02s.06.03.06.06v.06s0,.04-.01.04c-.32.42-.83.68-1.36.68-.2,0-.4-.03-.58-.08v1.33c.24-.23.55-.35.88-.35.83,0,1.34.8,1.34,1.55,0,.86-.69,1.58-1.55,1.58-.71,0-1.26-.61-1.26-1.31,0-.21.16-.36.36-.36s.37.16.37.36-.17.36-.37.36c-.04,0-.1-.01-.1-.01.14.43.55.72,1,.72Z" style="fill:#2981b3;"/><path d="m223.03,87.42c0-1.07.64-2.42,1.86-2.42.49,0,.9.27.9.79,0,.19-.15.34-.34.34s-.34-.15-.34-.34.15-.34.34-.34h.04c-.13-.18-.37-.25-.59-.25-.44,0-.77.32-.96.69-.22.44-.24.95-.24,1.43.16-.37.47-.66.88-.66.86,0,1.39.78,1.39,1.58s-.58,1.61-1.46,1.61c-1.24,0-1.47-1.5-1.47-2.44Zm2.27.83c0-.55,0-1.4-.76-1.4-.62,0-.83.75-.83,1.25,0,.05,0,.09,0,.14,0,.01,0,.02,0,.04,0,.51.11,1.33.79,1.33.78,0,.8-.78.8-1.36Z" style="fill:#2981b3;"/><line x1="159.96" y1="60.77" x2="181.87" y2="60.77" style="fill:none; stroke:#2981b3; stroke-linecap:round; stroke-linejoin:round; stroke-width:.6px;"/><path d="m157.6,60.77c1.11.41,2.48,1.11,3.33,1.85l-.67-1.85.67-1.85c-.85.74-2.23,1.44-3.33,1.85Z" style="fill:#2981b3;"/><path d="m163.35,58.03c0-.06.05-.12.12-.12h3.59c.06,0,.11.06.11.12s-.05.13-.11.13h-3.59c-.07,0-.12-.06-.12-.13Z" style="fill:#2981b3;"/><path d="m167.94,57.6c0-.88.16-2.17,1.32-2.17s1.31,1.29,1.31,2.17-.17,2.13-1.31,2.13-1.32-1.26-1.32-2.13Zm2.09-.1c0-.58,0-1.91-.77-1.91s-.78,1.33-.78,1.91,0,2.07.78,2.07.77-1.48.77-2.07Z" style="fill:#2981b3;"/><path d="m171.69,58.91c.19,0,.34.16.34.34s-.15.34-.34.34-.34-.16-.34-.34.16-.34.34-.34Z" style="fill:#2981b3;"/><path d="m172.8,57.6c0-.88.16-2.17,1.32-2.17s1.31,1.29,1.31,2.17-.17,2.13-1.31,2.13-1.32-1.26-1.32-2.13Zm2.09-.1c0-.58,0-1.91-.77-1.91s-.78,1.33-.78,1.91,0,2.07.78,2.07.77-1.48.77-2.07Z" style="fill:#2981b3;"/><path d="m175.94,57.58c0-.95.56-2.15,1.65-2.15.43,0,.79.24.79.7,0,.17-.13.3-.3.3s-.3-.13-.3-.3.13-.3.3-.3h.03c-.12-.16-.33-.22-.53-.22-.39,0-.68.29-.85.61-.19.39-.21.84-.21,1.27.14-.33.41-.58.78-.58.76,0,1.23.69,1.23,1.4s-.51,1.43-1.29,1.43c-1.09,0-1.3-1.33-1.3-2.16Zm2.01.74c0-.49,0-1.24-.68-1.24-.55,0-.73.66-.73,1.11,0,.04,0,.08,0,.12,0,.01,0,.02,0,.03,0,.45.1,1.18.7,1.18.69,0,.71-.69.71-1.21Z" style="fill:#2981b3;"/><path d="m180.1,59.52c.34,0,.62-.25.76-.54.2-.41.21-.88.21-1.31-.14.32-.41.58-.77.58-.76,0-1.24-.68-1.24-1.4,0-.76.55-1.41,1.33-1.41,1.07,0,1.26,1.33,1.26,2.15,0,.9-.49,2.16-1.55,2.16-.44,0-.88-.2-.88-.71,0-.17.13-.29.3-.29s.3.12.3.29-.13.3-.3.3h-.01c.14.16.39.19.59.19Zm.96-2.56v-.14c0-.43-.08-1.21-.66-1.21-.71,0-.75.7-.75,1.23,0,.49,0,1.24.68,1.24.56,0,.73-.66.73-1.11Z" style="fill:#2981b3;"/></svg>