<?xml version="1.0" encoding="UTF-8"?><svg id="a" xmlns="http://www.w3.org/2000/svg" width="292.65" height="152.97" viewBox="0 0 292.65 152.97"><path d="m195.71,52.23c10.97-2.24,21.56,16.25,16.51,23.96-4.62,7.06-26.99,9.35-30.21,1.07-2.94-7.57,3.77-23,13.69-25.02Z" style="fill:#b4b4b4;"/><path d="m111.44,52.3c11.1,1.46,15.08,22.38,7.8,28.03-6.67,5.17-28.57.04-28.9-8.84-.31-8.11,11.06-20.51,21.1-19.19Z" style="fill:#b4b4b4;"/><path d="m53.47,88.37c8.26-7.55,26.84,2.88,26.47,12.09-.34,8.43-18.37,21.88-25.38,16.42-6.4-4.99-8.57-21.68-1.09-28.5Z" style="fill:#b4b4b4;"/><path d="m119.37,124.07c8.15,7.67-.85,26.98-10.05,27.3-8.43.3-23.2-16.67-18.29-24.07,4.49-6.76,20.97-10.18,28.34-3.24Z" style="fill:#b4b4b4;"/><path d="m16.54,119.13c10.97-2.24,21.56,16.25,16.51,23.96-4.62,7.06-26.99,9.35-30.21,1.07-2.94-7.57,3.77-23,13.69-25.02Z" style="fill:#b4b4b4;"/><path d="m198.91,119.16c11.18.43,17.08,20.9,10.35,27.19-6.16,5.76-28.44,2.67-29.59-6.14-1.05-8.05,9.13-21.44,19.25-21.05Z" style="fill:#b4b4b4;"/><path d="m234.57,2.76c10.97-2.24,21.56,16.25,16.51,23.96-4.62,7.06-26.99,9.35-30.21,1.07-2.94-7.57,3.77-23,13.69-25.02Z" style="fill:#b4b4b4;"/><path d="m261.76,55.58c7.53-8.28,26.99.38,27.47,9.58.44,8.42-16.26,23.49-23.75,18.7-6.84-4.38-10.54-20.79-3.72-28.28Z" style="fill:#b4b4b4;"/><path d="m271.49,119.13c10.97-2.24,21.56,16.25,16.51,23.96-4.62,7.06-26.99,9.35-30.21,1.07-2.94-7.57,3.77-23,13.69-25.02Z" style="fill:#b4b4b4;"/><circle cx="236.28" cy="17.82" r="10" style="stroke:#000;"/><circle cx="273.17" cy="67.82" r="10" style="stroke:#000;"/><circle cx="196.99" cy="67.82" r="10" style="stroke:#000;"/><circle cx="273.17" cy="135.82" r="10" style="stroke:#000;"/><circle cx="196.99" cy="135.82" r="10" style="stroke:#000;"/><line x1="196.99" y1="67.82" x2="236.28" y2="18.7" style="fill:none; stroke:#000; stroke-linecap:round; stroke-linejoin:round;"/><line x1="62.3" y1="101.42" x2="108.22" y2="67.82" style="fill:none; stroke:#000; stroke-linecap:round; stroke-linejoin:round;"/><line x1="273.17" y1="67.82" x2="236.28" y2="18.7" style="fill:none; stroke:#000; stroke-linecap:round; stroke-linejoin:round;"/><line x1="273.17" y1="127.26" x2="273.17" y2="67.82" style="fill:none; stroke:#000; stroke-linecap:round; stroke-linejoin:round;"/><line x1="196.99" y1="127.26" x2="196.99" y2="67.82" style="fill:none; stroke:#000; stroke-linecap:round; stroke-linejoin:round;"/><line x1="107.62" y1="127.26" x2="107.62" y2="67.82" style="fill:none; stroke:#000; stroke-linecap:round; stroke-linejoin:round;"/><line x1="107.62" y1="135.82" x2="63.67" y2="101.42" style="fill:none; stroke:#000; stroke-linecap:round; stroke-linejoin:round;"/><line x1="196.99" y1="67.82" x2="273.17" y2="67.82" style="fill:none; stroke:#000; stroke-linecap:round; stroke-linejoin:round;"/><line x1="107.62" y1="67.82" x2="196.99" y2="67.82" style="fill:none; stroke:#000; stroke-linecap:round; stroke-linejoin:round;"/><line x1="16.86" y1="135.82" x2="107.62" y2="135.82" style="fill:none; stroke:#000; stroke-linecap:round; stroke-linejoin:round;"/><line x1="196.99" y1="135.82" x2="273.17" y2="135.82" style="fill:none; stroke:#000; stroke-linecap:round; stroke-linejoin:round;"/><rect x="98.88" y="59.08" width="17.48" height="17.48" style="stroke:#000;"/><rect x="98.88" y="127.08" width="17.48" height="17.48" style="stroke:#000;"/><rect x="54.3" y="92.68" width="17.48" height="17.48" style="stroke:#000;"/><line x1="17.13" y1="135.82" x2="63.04" y2="102.22" style="fill:none; stroke:#000; stroke-linecap:round; stroke-linejoin:round;"/><rect x="9.13" y="127.08" width="17.48" height="17.48" style="stroke:#000;"/><path d="m233.9,17.84c0-1.66.39-3.65,2.46-3.65s2.46,1.99,2.46,3.65-.41,3.56-2.46,3.56-2.46-1.92-2.46-3.56Zm3.91-.18c0-1.11,0-3.13-1.46-3.13s-1.46,2.02-1.46,3.13,0,3.41,1.46,3.41,1.46-2.29,1.46-3.41Z" style="fill:#fff;"/><path d="m271.43,70.66c.28,0,1.46,0,1.46-.32v-5.45c-.46.22-.99.29-1.52.29v-.42c.74,0,1.54-.14,2.1-.67h.19c.07.02.11.05.13.13v6.14c0,.32,1.17.32,1.46.32v.42c-.63,0-1.27-.04-1.9-.04s-1.28.04-1.91.04v-.42Z" style="fill:#fff;"/><path d="m270.89,138.99s.02-.06.04-.08l1.88-1.83c.12-.13.24-.24.36-.36.63-.63,1.33-1.39,1.33-2.34s-.66-1.66-1.61-1.66c-.61,0-1.19.34-1.44.9h.03c.33,0,.59.25.59.58s-.26.58-.59.58-.58-.25-.58-.58c0-1.16,1.1-1.9,2.17-1.9,1.23,0,2.48.71,2.48,2.08s-1.38,2.11-2.29,2.89l-1.29,1.1h.97c.69,0,1.89,0,1.95-.05.14-.16.21-.63.26-.97h.4l-.32,1.96h-4.34v-.31Z" style="fill:#fff;"/><path d="m196.74,139.13c.94,0,1.31-.84,1.31-1.67s-.38-1.67-1.32-1.67h-.79c-.05,0-.12-.06-.12-.12v-.11c0-.05.06-.12.12-.12l.66-.04c.8,0,1.23-.98,1.23-1.67s-.42-1.11-1.1-1.11c-.51,0-1.1.14-1.44.54.31,0,.53.28.53.57,0,.32-.24.56-.56.56s-.57-.24-.57-.56c0-1.04,1.18-1.44,2.05-1.44s2.14.42,2.14,1.44c0,.92-.69,1.58-1.52,1.86.91.18,1.86.85,1.86,1.86,0,1.29-1.32,2.05-2.48,2.05-.99,0-2.37-.44-2.37-1.64,0-.34.26-.6.61-.6s.6.26.6.6-.25.61-.58.61c.39.51,1.13.65,1.74.65Z" style="fill:#fff;"/><path d="m193.85,68.93l3.51-4.78s.09-.07.15-.07h.21c.08,0,.16.06.16.15v4.7h1.14v.42h-1.16v.99c0,.32.86.32,1.14.32v.42c-.53,0-1.06-.04-1.59-.04s-1.08.04-1.6.04v-.42c.27,0,1.13,0,1.13-.32v-.99h-3.08v-.42Zm3.15,0v-3.68l-2.7,3.68h2.7Z" style="fill:#fff;"/><path d="m107.38,70.92c1.16,0,1.52-.95,1.52-1.95,0-.76-.14-1.95-1.16-1.95-1.2,0-1.4.75-1.65.81h-.12c-.07-.02-.11-.05-.13-.14v-3.49c0-.06.06-.12.13-.12h.03c.53.22,1.09.35,1.66.35s1.13-.13,1.67-.35h.03c.06,0,.13.05.13.12v.11s-.01.05-.03.07c-.55.63-1.36.99-2.19.99-.34,0-.66-.03-.99-.12v1.93c.41-.35.93-.51,1.47-.51,1.25,0,2.2,1.08,2.2,2.3,0,1.37-1.25,2.32-2.56,2.32-1.08,0-2.1-.78-2.1-1.92,0-.31.24-.55.55-.55s.55.24.55.55-.23.56-.55.56h-.04c.27.61.93.98,1.59.98Z" style="fill:#fff;"/><path d="m60.51,101.5c0-1.74,1.17-3.58,3.07-3.58.76,0,1.49.34,1.49,1.19,0,.29-.23.52-.52.52s-.53-.22-.53-.52c0-.25.2-.52.47-.52-.22-.26-.59-.34-.92-.34-.63,0-1.21.38-1.54.91-.42.65-.48,1.46-.48,2.22.31-.57.85-.98,1.51-.98,1.32,0,2.29,1.04,2.29,2.34s-1.08,2.37-2.41,2.37c-1.95,0-2.43-2.05-2.43-3.62Zm3.8,1.24c0-.93-.1-2-1.31-2-.93,0-1.39.97-1.39,1.78v.27c0,.84.29,1.94,1.33,1.94,1.23,0,1.37-1.01,1.37-1.99Z" style="fill:#fff;"/><path d="m18.08,134.66l.97-1.22h-1.22c-.75,0-2.06,0-2.12.05-.15.17-.22.63-.27.97h-.4l.37-2.3h.4v.03c0,.17.22.23.35.24.53.06,1.17.06,1.75.06h2.15v.28s-.01.06-.03.08l-1.59,1.99c-.93,1.15-.93,2.72-.93,4.11,0,.29-.23.53-.52.53s-.53-.23-.53-.53c0-1.57.64-3.09,1.62-4.31Z" style="fill:#fff;"/><path d="m107.11,135.75l-.36-.21c-.52-.31-.91-.85-.91-1.46,0-1.12,1.09-1.77,2.1-1.77.93,0,2.1.48,2.1,1.57,0,.8-.65,1.3-1.31,1.6l.6.36c.59.34,1.03.95,1.03,1.66,0,1.28-1.27,2.01-2.42,2.01-1.08,0-2.43-.58-2.43-1.83,0-.96.79-1.57,1.59-1.92Zm.83,3.37c.75,0,1.75-.38,1.75-1.26,0-.43-.31-.78-.65-.99l-1.54-.9c-.69.32-1.31.91-1.31,1.7,0,.92.92,1.46,1.75,1.46Zm.42-3.86c.54-.27,1.08-.74,1.08-1.39,0-.79-.79-1.23-1.5-1.23-.61,0-1.5.29-1.5,1.03,0,.34.25.62.54.78l1.38.81Z" style="fill:#fff;"/></svg>