<?xml version="1.0" encoding="UTF-8"?><svg id="a" xmlns="http://www.w3.org/2000/svg" width="290.64" height="148.75" viewBox="0 0 290.64 148.75"><path d="m2.52,135.51c-5.07-16.99,36.77-39.47,52.42-50.31s39.61-40.28,58.03-38.23,8.95,32.56,8.79,48.74,10.08,38.82.43,47.19c-7.54,6.53-22.78,1.33-44.4-.86-14.94-1.51-31.61-1.68-42.63-.03s-27.57,10.49-32.63-6.5Z" style="fill:#b4b4b4;"/><path d="m223.99,7.81c6.47-9.02,19.77-11.12,28.16-1.55,4.18,4.77,5.21,15.82,14.05,26.63s23.01,21.99,23.43,29.25c.69,11.82-6.7,20.81-21.81,14-8.43-3.8-44.25-8.11-60.42-1.01-11.17,4.91-24.32-1.33-23.06-11.33.98-7.83,14.63-17.72,24.99-31.03,7.95-10.22,11.3-20.27,14.66-24.96Z" style="fill:#b4b4b4;"/><path d="m275.47,116.3c14.41,3.86,21.44,21.57,5.25,27.2-9.74,3.39-21.68-.87-39.04-1.26-20.41-.45-32.22,4.06-43.5,3.06-17.96-1.58-20-22.53-1.17-27.9,11.49-3.28,22.34-.69,42.03-.17,15.58.42,26.6-3.57,36.43-.93Z" style="fill:#b4b4b4;"/><circle cx="238.01" cy="13.8" r="10" style="stroke:#000;"/><circle cx="274.9" cy="63.8" r="10" style="stroke:#000;"/><circle cx="198.72" cy="63.8" r="10" style="stroke:#000;"/><circle cx="274.9" cy="131.8" r="10" style="stroke:#000;"/><circle cx="198.72" cy="131.8" r="10" style="stroke:#000;"/><line x1="198.72" y1="63.8" x2="238.01" y2="14.68" style="fill:none; stroke:#000; stroke-linecap:round; stroke-linejoin:round;"/><line x1="64.03" y1="97.4" x2="109.95" y2="63.8" style="fill:none; stroke:#000; stroke-linecap:round; stroke-linejoin:round;"/><line x1="274.9" y1="63.8" x2="238.01" y2="14.68" style="fill:none; stroke:#000; stroke-linecap:round; stroke-linejoin:round;"/><line x1="274.9" y1="123.24" x2="274.9" y2="63.8" style="fill:none; stroke:#000; stroke-linecap:round; stroke-linejoin:round;"/><line x1="198.72" y1="123.24" x2="198.72" y2="63.8" style="fill:none; stroke:#000; stroke-linecap:round; stroke-linejoin:round;"/><line x1="109.35" y1="123.24" x2="109.35" y2="63.8" style="fill:none; stroke:#000; stroke-linecap:round; stroke-linejoin:round;"/><line x1="109.35" y1="131.8" x2="65.4" y2="97.4" style="fill:none; stroke:#000; stroke-linecap:round; stroke-linejoin:round;"/><line x1="198.72" y1="63.8" x2="274.9" y2="63.8" style="fill:none; stroke:#000; stroke-linecap:round; stroke-linejoin:round;"/><line x1="109.35" y1="63.8" x2="198.72" y2="63.8" style="fill:none; stroke:#000; stroke-linecap:round; stroke-linejoin:round;"/><line x1="18.59" y1="131.8" x2="109.35" y2="131.8" style="fill:none; stroke:#000; stroke-linecap:round; stroke-linejoin:round;"/><line x1="198.72" y1="131.8" x2="274.9" y2="131.8" style="fill:none; stroke:#000; stroke-linecap:round; stroke-linejoin:round;"/><rect x="100.61" y="55.06" width="17.48" height="17.48" style="stroke:#000;"/><rect x="100.61" y="123.06" width="17.48" height="17.48" style="stroke:#000;"/><rect x="56.03" y="88.66" width="17.48" height="17.48" style="stroke:#000;"/><line x1="18.86" y1="131.8" x2="64.77" y2="98.2" style="fill:none; stroke:#000; stroke-linecap:round; stroke-linejoin:round;"/><rect x="10.86" y="123.06" width="17.48" height="17.48" style="stroke:#000;"/><path d="m235.63,13.82c0-1.66.39-3.65,2.46-3.65s2.46,1.99,2.46,3.65-.41,3.56-2.46,3.56-2.46-1.92-2.46-3.56Zm3.91-.18c0-1.11,0-3.13-1.46-3.13s-1.46,2.02-1.46,3.13,0,3.41,1.46,3.41,1.46-2.29,1.46-3.41Z" style="fill:#fff;"/><path d="m273.16,66.65c.28,0,1.46,0,1.46-.32v-5.45c-.46.22-.99.29-1.52.29v-.42c.74,0,1.54-.14,2.1-.67h.19c.07.02.11.05.13.13v6.14c0,.32,1.17.32,1.46.32v.42c-.63,0-1.27-.04-1.9-.04s-1.28.04-1.91.04v-.42Z" style="fill:#fff;"/><path d="m272.62,134.97s.02-.06.04-.08l1.88-1.83c.12-.13.24-.24.36-.36.63-.63,1.33-1.39,1.33-2.34s-.66-1.66-1.61-1.66c-.61,0-1.19.34-1.44.9h.03c.33,0,.59.25.59.58s-.26.58-.59.58-.58-.25-.58-.58c0-1.16,1.1-1.9,2.17-1.9,1.23,0,2.48.71,2.48,2.08s-1.38,2.11-2.29,2.89l-1.29,1.1h.97c.69,0,1.89,0,1.95-.05.14-.16.21-.63.26-.97h.4l-.32,1.96h-4.34v-.31Z" style="fill:#fff;"/><path d="m198.47,135.11c.94,0,1.31-.84,1.31-1.67s-.38-1.67-1.32-1.67h-.79c-.05,0-.12-.06-.12-.12v-.11c0-.05.06-.12.12-.12l.66-.04c.8,0,1.23-.98,1.23-1.67s-.42-1.11-1.1-1.11c-.51,0-1.1.14-1.44.54.31,0,.53.28.53.57,0,.32-.24.56-.56.56s-.57-.24-.57-.56c0-1.04,1.18-1.44,2.05-1.44s2.14.42,2.14,1.44c0,.92-.69,1.58-1.52,1.86.91.18,1.86.85,1.86,1.86,0,1.29-1.32,2.05-2.48,2.05-.99,0-2.37-.44-2.37-1.64,0-.34.26-.6.61-.6s.6.26.6.6-.25.61-.58.61c.39.51,1.13.65,1.74.65Z" style="fill:#fff;"/><path d="m195.58,64.92l3.51-4.78s.09-.07.15-.07h.21c.08,0,.16.06.16.15v4.7h1.14v.42h-1.16v.99c0,.32.86.32,1.14.32v.42c-.53,0-1.06-.04-1.59-.04s-1.08.04-1.6.04v-.42c.27,0,1.13,0,1.13-.32v-.99h-3.08v-.42Zm3.15,0v-3.68l-2.7,3.68h2.7Z" style="fill:#fff;"/><path d="m109.11,66.9c1.16,0,1.52-.95,1.52-1.95,0-.76-.14-1.95-1.16-1.95-1.2,0-1.4.75-1.65.81h-.12c-.07-.02-.11-.05-.13-.14v-3.49c0-.06.06-.12.13-.12h.03c.53.22,1.09.35,1.66.35s1.13-.13,1.67-.35h.03c.06,0,.13.05.13.12v.11s-.01.05-.03.07c-.55.63-1.36.99-2.19.99-.34,0-.66-.03-.99-.12v1.93c.41-.35.93-.51,1.47-.51,1.25,0,2.2,1.07,2.2,2.3,0,1.37-1.25,2.32-2.56,2.32-1.08,0-2.1-.78-2.1-1.92,0-.31.24-.55.55-.55s.55.24.55.55-.23.56-.55.56h-.04c.27.61.93.98,1.59.98Z" style="fill:#fff;"/><path d="m62.24,97.48c0-1.74,1.17-3.58,3.07-3.58.76,0,1.49.34,1.49,1.19,0,.29-.23.52-.52.52s-.53-.22-.53-.52c0-.25.2-.52.47-.52-.22-.26-.59-.34-.92-.34-.63,0-1.21.38-1.54.91-.42.65-.48,1.46-.48,2.22.31-.57.85-.98,1.51-.98,1.32,0,2.29,1.04,2.29,2.34s-1.08,2.37-2.41,2.37c-1.95,0-2.43-2.05-2.43-3.62Zm3.8,1.24c0-.93-.1-2-1.31-2-.93,0-1.39.97-1.39,1.78v.27c0,.84.29,1.94,1.33,1.94,1.23,0,1.37-1.01,1.37-1.99Z" style="fill:#fff;"/><path d="m19.81,130.65l.97-1.22h-1.22c-.75,0-2.06,0-2.12.05-.15.17-.22.63-.27.97h-.4l.37-2.3h.4v.03c0,.17.22.23.35.24.53.06,1.17.06,1.75.06h2.15v.28s-.01.06-.03.08l-1.59,1.99c-.93,1.15-.93,2.72-.93,4.11,0,.29-.23.53-.52.53s-.53-.23-.53-.53c0-1.57.64-3.09,1.62-4.31Z" style="fill:#fff;"/><path d="m108.84,131.73l-.36-.21c-.52-.31-.91-.85-.91-1.46,0-1.12,1.09-1.77,2.1-1.77.93,0,2.1.48,2.1,1.57,0,.8-.65,1.3-1.31,1.6l.6.36c.59.34,1.03.95,1.03,1.66,0,1.28-1.27,2.01-2.42,2.01-1.08,0-2.43-.58-2.43-1.83,0-.96.79-1.57,1.59-1.92Zm.83,3.37c.75,0,1.75-.38,1.75-1.26,0-.43-.31-.78-.65-.99l-1.54-.9c-.69.32-1.31.91-1.31,1.7,0,.92.92,1.46,1.75,1.46Zm.42-3.86c.54-.27,1.08-.74,1.08-1.39,0-.79-.79-1.23-1.5-1.23-.61,0-1.5.29-1.5,1.03,0,.34.25.62.54.78l1.38.81Z" style="fill:#fff;"/></svg>