<?xml version="1.0" encoding="UTF-8"?><svg id="a" xmlns="http://www.w3.org/2000/svg" width="257.9" height="83.9" viewBox="0 0 257.9 83.9"><path d="m3.7,10c3.9-11.1,21.7-13.9,28.5-1.7s-1.5,16.2-1.9,29.6c-.5,15.8,5.2,26.1,3.1,33.6-3.9,13.6-23.9,16.2-29.2,1.7s2.2-18.3,2.7-33.5S1.1,17.6,3.7,10Z" style="fill:#b4b4b4;"/><g id="b"><path d="m18.3,15.3v52.3" style="fill:none; stroke:#000;"/></g><g id="c"><circle cx="18.3" cy="16" r="10" style="stroke:#000;"/><circle cx="18.3" cy="67.6" r="10" style="stroke:#000;"/></g><path d="m63.3,10c3.9-11.1,21.7-13.9,28.5-1.7s-1.5,16.2-1.9,29.6c-.5,15.8,5.2,26.1,3.1,33.6-3.9,13.6-23.9,16.2-29.2,1.7s2.2-18.3,2.7-33.5-5.7-22.1-3.1-29.6Z" style="fill:#b4b4b4;"/><g id="d"><path d="m77.9,15.3v52.3" style="fill:none; stroke:#000;"/></g><g id="e"><circle cx="77.9" cy="16" r="10" style="stroke:#000;"/><circle cx="77.9" cy="67.6" r="10" style="stroke:#000;"/></g><path d="m122.8,10c3.9-11.1,21.7-13.9,28.5-1.7s-1.5,16.2-1.9,29.6c-.5,15.8,5.2,26.1,3.1,33.6-3.9,13.6-23.9,16.2-29.2,1.7-3.3-8.9,2.2-18.3,2.7-33.5.4-12-5.7-22.1-3.1-29.6Z" style="fill:#b4b4b4;"/><g id="f"><path d="m137.4,15.3v52.3" style="fill:none; stroke:#000;"/></g><g id="g"><circle cx="137.4" cy="16" r="10" style="stroke:#000;"/><circle cx="137.4" cy="67.6" r="10" style="stroke:#000;"/></g><path d="m182.4,10c3.9-11.1,21.7-13.9,28.5-1.7,4.1,7.4-1.5,16.2-1.9,29.6-.5,15.8,5.2,26.1,3.1,33.6-3.9,13.6-23.9,16.2-29.2,1.7-3.3-8.9,2.2-18.3,2.7-33.5.4-12-5.7-22.1-3.1-29.6Z" style="fill:#b4b4b4;"/><g id="h"><path d="m197,15.3v52.3" style="fill:none; stroke:#000;"/></g><g id="i"><circle cx="197" cy="16" r="10" style="stroke:#000;"/><circle cx="197" cy="67.6" r="10" style="stroke:#000;"/></g><path d="m232.4,44.3c.6,0,1.1.5,1.1,1.1s-.5,1.1-1.1,1.1-1.1-.5-1.1-1.1.5-1.1,1.1-1.1Z"/><path d="m241.5,44.3c.6,0,1.1.5,1.1,1.1s-.5,1.1-1.1,1.1-1.1-.5-1.1-1.1.5-1.1,1.1-1.1Z"/><path d="m250.6,44.3c.6,0,1.1.5,1.1,1.1s-.5,1.1-1.1,1.1-1.1-.5-1.1-1.1.5-1.1,1.1-1.1Z"/></svg>