<?xml version="1.0" encoding="UTF-8" standalone="no"?>
<svg
   xmlns:dc="http://purl.org/dc/elements/1.1/"
   xmlns:cc="http://creativecommons.org/ns#"
   xmlns:rdf="http://www.w3.org/1999/02/22-rdf-syntax-ns#"
   xmlns:svg="http://www.w3.org/2000/svg"
   xmlns="http://www.w3.org/2000/svg"
   viewBox="0 0 463.67868 130.76773"
   height="130.76773"
   width="463.67868"
   xml:space="preserve"
   id="svg2"
   version="1.1"><metadata
     id="metadata8"><rdf:RDF><cc:Work
         rdf:about=""><dc:format>image/svg+xml</dc:format><dc:type
           rdf:resource="http://purl.org/dc/dcmitype/StillImage" /></cc:Work></rdf:RDF></metadata><defs
     id="defs6"><clipPath
       id="clipPath18"
       clipPathUnits="userSpaceOnUse"><path
         id="path16"
         d="M 0,98.076 H 347.759 V 0 H 0 Z" /></clipPath><clipPath
       id="clipPath154"
       clipPathUnits="userSpaceOnUse"><path
         id="path152"
         d="M 1.083,3.644 H 87.239 V 92.522 H 1.083 Z" /></clipPath><clipPath
       id="clipPath526"
       clipPathUnits="userSpaceOnUse"><path
         id="path524"
         d="M 0,98.076 H 347.759 V 0 H 0 Z" /></clipPath><clipPath
       id="clipPath534"
       clipPathUnits="userSpaceOnUse"><path
         id="path532"
         d="M 31.2013,56.486 H 57.1199 V 39.7923 H 31.2013 Z" /></clipPath></defs><g
     transform="matrix(1.3333333,0,0,-1.3333333,0,130.76773)"
     id="g10"><g
       id="g12"><g
         clip-path="url(#clipPath18)"
         id="g14"><g
           transform="translate(13.7678,81.2899)"
           id="g20"><path
             id="path22"
             style="fill:#b5b4b4;fill-opacity:1;fill-rule:nonzero;stroke:none"
             d="M 0,0 C 9.522,12.181 49.627,14.308 62.193,2.279 74.759,-9.749 75.875,-49.954 66.126,-64.615 56.377,-79.276 12.261,-80.497 -4.261,-68.866 -20.782,-57.234 -9.522,-12.181 0,0" /></g><g
           transform="translate(337.3428,9.6125)"
           id="g24"><path
             id="path26"
             style="fill:#b5b4b4;fill-opacity:1;fill-rule:nonzero;stroke:none"
             d="m 0,0 c -15.643,-16.46 -76.928,-3.103 -108.028,-3.103 -31.1,0 -92.544,-11.201 -110.344,0 -17.18,10.81 -7.12,24.789 -7.05,41.925 0.055,13.482 -16.26,34.818 4.728,44.506 18.516,8.547 75.904,-1.872 109.892,-1.681 33.987,0.191 97.381,11.696 111.534,1.015 C 16.947,70.423 4.628,53.606 4.633,39.424 4.638,25.495 11.095,11.675 0,0" /></g><g
           transform="translate(126.6486,88.2615)"
           id="g28"><path
             id="path30"
             style="fill:#000000;fill-opacity:1;fill-rule:nonzero;stroke:none"
             d="m 0,0 c 5.523,0 10,-4.477 10,-10 0,-5.523 -4.477,-10 -10,-10 -5.523,0 -10,4.477 -10,10 0,5.523 4.477,10 10,10" /></g><g
           transform="translate(126.6486,88.2615)"
           id="g32"><path
             id="path34"
             style="fill:none;stroke:#000000;stroke-width:1;stroke-linecap:butt;stroke-linejoin:miter;stroke-miterlimit:4;stroke-dasharray:none;stroke-opacity:1"
             d="m 0,0 c 5.523,0 10,-4.477 10,-10 0,-5.523 -4.477,-10 -10,-10 -5.523,0 -10,4.477 -10,10 0,5.523 4.477,10 10,10 z" /></g><g
           transform="translate(185.3972,88.2615)"
           id="g36"><path
             id="path38"
             style="fill:#000000;fill-opacity:1;fill-rule:nonzero;stroke:none"
             d="m 0,0 c 5.523,0 10,-4.477 10,-10 0,-5.523 -4.477,-10 -10,-10 -5.523,0 -10,4.477 -10,10 0,5.523 4.477,10 10,10" /></g><g
           transform="translate(185.3972,88.2615)"
           id="g40"><path
             id="path42"
             style="fill:none;stroke:#000000;stroke-width:1;stroke-linecap:butt;stroke-linejoin:miter;stroke-miterlimit:4;stroke-dasharray:none;stroke-opacity:1"
             d="m 0,0 c 5.523,0 10,-4.477 10,-10 0,-5.523 -4.477,-10 -10,-10 -5.523,0 -10,4.477 -10,10 0,5.523 4.477,10 10,10 z" /></g><g
           transform="translate(126.6486,78.2615)"
           id="g44"><path
             id="path46"
             style="fill:none;stroke:#000000;stroke-width:1;stroke-linecap:round;stroke-linejoin:round;stroke-miterlimit:4;stroke-dasharray:none;stroke-opacity:1"
             d="M 0,0 H 58.749" /></g><g
           transform="translate(185.3972,21.2872)"
           id="g48"><path
             id="path50"
             style="fill:none;stroke:#000000;stroke-width:1;stroke-linecap:round;stroke-linejoin:round;stroke-miterlimit:4;stroke-dasharray:none;stroke-opacity:1"
             d="M 0,0 H 83.331" /></g><g
           transform="translate(76.5488,31.1441)"
           id="g52"><path
             id="path54"
             style="fill:#000000;fill-opacity:1;fill-rule:nonzero;stroke:none"
             d="m 0,0 c 12.872,-3.25 27.316,-6.179 40.213,-9.37 0.595,-0.156 0.411,-1.101 -0.227,-0.974 -9.299,2.052 -20.815,4.916 -30.148,7.077 -1.637,0.387 -5.945,1.406 -7.534,1.782 -0.843,0.172 -1.66,0.459 -2.531,0.511 -0.28,0.017 -0.493,0.257 -0.476,0.537 C -0.688,-0.094 -0.314,0.138 0,0" /></g><g
           transform="translate(126.6486,21.2872)"
           id="g56"><path
             id="path58"
             style="fill:none;stroke:#000000;stroke-width:1;stroke-linecap:round;stroke-linejoin:round;stroke-miterlimit:4;stroke-dasharray:none;stroke-opacity:1"
             d="M 0,0 58.749,56.974" /></g><g
           transform="translate(126.6486,78.2615)"
           id="g60"><path
             id="path62"
             style="fill:none;stroke:#000000;stroke-width:1;stroke-linecap:round;stroke-linejoin:round;stroke-miterlimit:4;stroke-dasharray:none;stroke-opacity:1"
             d="M 0,0 58.749,-56.974" /></g><g
           transform="translate(126.6486,80.0358)"
           id="g64"><path
             id="path66"
             style="fill:none;stroke:#000000;stroke-width:1;stroke-linecap:round;stroke-linejoin:round;stroke-miterlimit:4;stroke-dasharray:none;stroke-opacity:1"
             d="M 0,0 V -58.749" /></g><g
           transform="translate(185.3972,80.0358)"
           id="g68"><path
             id="path70"
             style="fill:none;stroke:#000000;stroke-width:1;stroke-linecap:round;stroke-linejoin:round;stroke-miterlimit:4;stroke-dasharray:none;stroke-opacity:1"
             d="M 0,0 V -58.749" /></g><g
           transform="translate(126.6486,31.2872)"
           id="g72"><path
             id="path74"
             style="fill:#000000;fill-opacity:1;fill-rule:nonzero;stroke:none"
             d="m 0,0 c 5.523,0 10,-4.477 10,-10 0,-5.523 -4.477,-10 -10,-10 -5.523,0 -10,4.477 -10,10 0,5.523 4.477,10 10,10" /></g><g
           transform="translate(126.6486,31.2872)"
           id="g76"><path
             id="path78"
             style="fill:none;stroke:#000000;stroke-width:1;stroke-linecap:butt;stroke-linejoin:miter;stroke-miterlimit:4;stroke-dasharray:none;stroke-opacity:1"
             d="m 0,0 c 5.523,0 10,-4.477 10,-10 0,-5.523 -4.477,-10 -10,-10 -5.523,0 -10,4.477 -10,10 0,5.523 4.477,10 10,10 z" /></g><g
           transform="translate(185.3972,31.2872)"
           id="g80"><path
             id="path82"
             style="fill:#000000;fill-opacity:1;fill-rule:nonzero;stroke:none"
             d="m 0,0 c 5.523,0 10,-4.477 10,-10 0,-5.523 -4.477,-10 -10,-10 -5.523,0 -10,4.477 -10,10 0,5.523 4.477,10 10,10" /></g><g
           transform="translate(185.3972,31.2872)"
           id="g84"><path
             id="path86"
             style="fill:none;stroke:#000000;stroke-width:1;stroke-linecap:butt;stroke-linejoin:miter;stroke-miterlimit:4;stroke-dasharray:none;stroke-opacity:1"
             d="m 0,0 c 5.523,0 10,-4.477 10,-10 0,-5.523 -4.477,-10 -10,-10 -5.523,0 -10,4.477 -10,10 0,5.523 4.477,10 10,10 z" /></g><g
           transform="translate(126.6486,21.2872)"
           id="g88"><path
             id="path90"
             style="fill:none;stroke:#000000;stroke-width:1;stroke-linecap:round;stroke-linejoin:round;stroke-miterlimit:4;stroke-dasharray:none;stroke-opacity:1"
             d="M 0,0 H 58.749" /></g><g
           transform="translate(268.0865,88.2615)"
           id="g92"><path
             id="path94"
             style="fill:#000000;fill-opacity:1;fill-rule:nonzero;stroke:none"
             d="m 0,0 c 5.523,0 10,-4.477 10,-10 0,-5.523 -4.477,-10 -10,-10 -5.523,0 -10,4.477 -10,10 0,5.523 4.477,10 10,10" /></g><g
           transform="translate(268.0865,88.2615)"
           id="g96"><path
             id="path98"
             style="fill:none;stroke:#000000;stroke-width:1;stroke-linecap:butt;stroke-linejoin:miter;stroke-miterlimit:4;stroke-dasharray:none;stroke-opacity:1"
             d="m 0,0 c 5.523,0 10,-4.477 10,-10 0,-5.523 -4.477,-10 -10,-10 -5.523,0 -10,4.477 -10,10 0,5.523 4.477,10 10,10 z" /></g><g
           transform="translate(326.8351,88.2615)"
           id="g100"><path
             id="path102"
             style="fill:#000000;fill-opacity:1;fill-rule:nonzero;stroke:none"
             d="m 0,0 c 5.523,0 10,-4.477 10,-10 0,-5.523 -4.477,-10 -10,-10 -5.523,0 -10,4.477 -10,10 0,5.523 4.477,10 10,10" /></g><g
           transform="translate(326.8351,88.2615)"
           id="g104"><path
             id="path106"
             style="fill:none;stroke:#000000;stroke-width:1;stroke-linecap:butt;stroke-linejoin:miter;stroke-miterlimit:4;stroke-dasharray:none;stroke-opacity:1"
             d="m 0,0 c 5.523,0 10,-4.477 10,-10 0,-5.523 -4.477,-10 -10,-10 -5.523,0 -10,4.477 -10,10 0,5.523 4.477,10 10,10 z" /></g><g
           transform="translate(268.0865,78.2615)"
           id="g108"><path
             id="path110"
             style="fill:none;stroke:#000000;stroke-width:1;stroke-linecap:round;stroke-linejoin:round;stroke-miterlimit:4;stroke-dasharray:none;stroke-opacity:1"
             d="M 0,0 H 58.749" /></g><g
           transform="translate(268.0865,21.2872)"
           id="g112"><path
             id="path114"
             style="fill:none;stroke:#000000;stroke-width:1;stroke-linecap:round;stroke-linejoin:round;stroke-miterlimit:4;stroke-dasharray:none;stroke-opacity:1"
             d="M 0,0 58.749,56.974" /></g><g
           transform="translate(268.0865,78.2615)"
           id="g116"><path
             id="path118"
             style="fill:none;stroke:#000000;stroke-width:1;stroke-linecap:round;stroke-linejoin:round;stroke-miterlimit:4;stroke-dasharray:none;stroke-opacity:1"
             d="M 0,0 58.749,-56.974" /></g><g
           transform="translate(268.0865,80.0358)"
           id="g120"><path
             id="path122"
             style="fill:none;stroke:#000000;stroke-width:1;stroke-linecap:round;stroke-linejoin:round;stroke-miterlimit:4;stroke-dasharray:none;stroke-opacity:1"
             d="M 0,0 V -58.749" /></g><g
           transform="translate(326.8351,80.0358)"
           id="g124"><path
             id="path126"
             style="fill:none;stroke:#000000;stroke-width:1;stroke-linecap:round;stroke-linejoin:round;stroke-miterlimit:4;stroke-dasharray:none;stroke-opacity:1"
             d="M 0,0 V -58.749" /></g><g
           transform="translate(268.0865,31.2872)"
           id="g128"><path
             id="path130"
             style="fill:#000000;fill-opacity:1;fill-rule:nonzero;stroke:none"
             d="m 0,0 c 5.523,0 10,-4.477 10,-10 0,-5.523 -4.477,-10 -10,-10 -5.523,0 -10,4.477 -10,10 0,5.523 4.477,10 10,10" /></g><g
           transform="translate(268.0865,31.2872)"
           id="g132"><path
             id="path134"
             style="fill:none;stroke:#000000;stroke-width:1;stroke-linecap:butt;stroke-linejoin:miter;stroke-miterlimit:4;stroke-dasharray:none;stroke-opacity:1"
             d="m 0,0 c 5.523,0 10,-4.477 10,-10 0,-5.523 -4.477,-10 -10,-10 -5.523,0 -10,4.477 -10,10 0,5.523 4.477,10 10,10 z" /></g><g
           transform="translate(326.8351,31.2872)"
           id="g136"><path
             id="path138"
             style="fill:#000000;fill-opacity:1;fill-rule:nonzero;stroke:none"
             d="m 0,0 c 5.523,0 10,-4.477 10,-10 0,-5.523 -4.477,-10 -10,-10 -5.523,0 -10,4.477 -10,10 0,5.523 4.477,10 10,10" /></g><g
           transform="translate(326.8351,31.2872)"
           id="g140"><path
             id="path142"
             style="fill:none;stroke:#000000;stroke-width:1;stroke-linecap:butt;stroke-linejoin:miter;stroke-miterlimit:4;stroke-dasharray:none;stroke-opacity:1"
             d="m 0,0 c 5.523,0 10,-4.477 10,-10 0,-5.523 -4.477,-10 -10,-10 -5.523,0 -10,4.477 -10,10 0,5.523 4.477,10 10,10 z" /></g><g
           transform="translate(268.0865,21.2872)"
           id="g144"><path
             id="path146"
             style="fill:none;stroke:#000000;stroke-width:1;stroke-linecap:round;stroke-linejoin:round;stroke-miterlimit:4;stroke-dasharray:none;stroke-opacity:1"
             d="M 0,0 H 58.749" /></g></g></g><g
       id="g148"><g
         clip-path="url(#clipPath154)"
         id="g150"><g
           transform="translate(79.7621,48.083)"
           id="g156"><path
             id="path158"
             style="fill:none;stroke:#000000;stroke-width:0.5;stroke-linecap:butt;stroke-linejoin:round;stroke-miterlimit:4;stroke-dasharray:none;stroke-opacity:1"
             d="M 0,0 -4.138,17.193" /></g><g
           transform="translate(79.7621,48.083)"
           id="g160"><path
             id="path162"
             style="fill:none;stroke:#000000;stroke-width:0.5;stroke-linecap:butt;stroke-linejoin:round;stroke-miterlimit:4;stroke-dasharray:none;stroke-opacity:1"
             d="M 0,0 -15.604,30.447" /></g><g
           transform="translate(79.7621,48.083)"
           id="g164"><path
             id="path166"
             style="fill:none;stroke:#000000;stroke-width:0.5;stroke-linecap:butt;stroke-linejoin:round;stroke-miterlimit:4;stroke-dasharray:none;stroke-opacity:1"
             d="M 0,0 -31.772,36.726" /></g><g
           transform="translate(79.7621,48.083)"
           id="g168"><path
             id="path170"
             style="fill:none;stroke:#000000;stroke-width:0.5;stroke-linecap:butt;stroke-linejoin:round;stroke-miterlimit:4;stroke-dasharray:none;stroke-opacity:1"
             d="M 0,0 -48.937,34.592" /></g><g
           transform="translate(79.7621,48.083)"
           id="g172"><path
             id="path174"
             style="fill:none;stroke:#000000;stroke-width:0.5;stroke-linecap:butt;stroke-linejoin:round;stroke-miterlimit:4;stroke-dasharray:none;stroke-opacity:1"
             d="M 0,0 -63.167,24.533" /></g><g
           transform="translate(79.7621,48.083)"
           id="g176"><path
             id="path178"
             style="fill:none;stroke:#000000;stroke-width:0.5;stroke-linecap:butt;stroke-linejoin:round;stroke-miterlimit:4;stroke-dasharray:none;stroke-opacity:1"
             d="M 0,0 -71.203,8.854" /></g><g
           transform="translate(79.7621,48.083)"
           id="g180"><path
             id="path182"
             style="fill:none;stroke:#000000;stroke-width:0.5;stroke-linecap:butt;stroke-linejoin:round;stroke-miterlimit:4;stroke-dasharray:none;stroke-opacity:1"
             d="M 0,0 -71.203,-8.854" /></g><g
           transform="translate(79.7621,48.083)"
           id="g184"><path
             id="path186"
             style="fill:none;stroke:#000000;stroke-width:0.5;stroke-linecap:butt;stroke-linejoin:round;stroke-miterlimit:4;stroke-dasharray:none;stroke-opacity:1"
             d="M 0,0 -63.167,-24.533" /></g><g
           transform="translate(79.7621,48.083)"
           id="g188"><path
             id="path190"
             style="fill:none;stroke:#000000;stroke-width:0.5;stroke-linecap:butt;stroke-linejoin:round;stroke-miterlimit:4;stroke-dasharray:none;stroke-opacity:1"
             d="M 0,0 -48.937,-34.592" /></g><g
           transform="translate(79.7621,48.083)"
           id="g192"><path
             id="path194"
             style="fill:none;stroke:#000000;stroke-width:0.5;stroke-linecap:butt;stroke-linejoin:round;stroke-miterlimit:4;stroke-dasharray:none;stroke-opacity:1"
             d="M 0,0 -31.772,-36.726" /></g><g
           transform="translate(79.7621,48.083)"
           id="g196"><path
             id="path198"
             style="fill:none;stroke:#000000;stroke-width:0.5;stroke-linecap:butt;stroke-linejoin:round;stroke-miterlimit:4;stroke-dasharray:none;stroke-opacity:1"
             d="M 0,0 -15.604,-30.447" /></g><g
           transform="translate(79.7621,48.083)"
           id="g200"><path
             id="path202"
             style="fill:none;stroke:#000000;stroke-width:0.5;stroke-linecap:butt;stroke-linejoin:round;stroke-miterlimit:4;stroke-dasharray:none;stroke-opacity:1"
             d="M 0,0 -4.138,-17.193" /></g><g
           transform="translate(75.6241,65.276)"
           id="g204"><path
             id="path206"
             style="fill:none;stroke:#000000;stroke-width:0.5;stroke-linecap:butt;stroke-linejoin:round;stroke-miterlimit:4;stroke-dasharray:none;stroke-opacity:1"
             d="M 0,0 -11.466,13.254" /></g><g
           transform="translate(75.6241,65.276)"
           id="g208"><path
             id="path210"
             style="fill:none;stroke:#000000;stroke-width:0.5;stroke-linecap:butt;stroke-linejoin:round;stroke-miterlimit:4;stroke-dasharray:none;stroke-opacity:1"
             d="M 0,0 -27.634,19.533" /></g><g
           transform="translate(75.6241,65.276)"
           id="g212"><path
             id="path214"
             style="fill:none;stroke:#000000;stroke-width:0.5;stroke-linecap:butt;stroke-linejoin:round;stroke-miterlimit:4;stroke-dasharray:none;stroke-opacity:1"
             d="M 0,0 -44.799,17.399" /></g><g
           transform="translate(75.6241,65.276)"
           id="g216"><path
             id="path218"
             style="fill:none;stroke:#000000;stroke-width:0.5;stroke-linecap:butt;stroke-linejoin:round;stroke-miterlimit:4;stroke-dasharray:none;stroke-opacity:1"
             d="M 0,0 -59.029,7.34" /></g><g
           transform="translate(75.6241,65.276)"
           id="g220"><path
             id="path222"
             style="fill:none;stroke:#000000;stroke-width:0.5;stroke-linecap:butt;stroke-linejoin:round;stroke-miterlimit:4;stroke-dasharray:none;stroke-opacity:1"
             d="M 0,0 -67.065,-8.339" /></g><g
           transform="translate(75.6241,65.276)"
           id="g224"><path
             id="path226"
             style="fill:none;stroke:#000000;stroke-width:0.5;stroke-linecap:butt;stroke-linejoin:round;stroke-miterlimit:4;stroke-dasharray:none;stroke-opacity:1"
             d="M 0,0 -67.065,-26.047" /></g><g
           transform="translate(75.6241,65.276)"
           id="g228"><path
             id="path230"
             style="fill:none;stroke:#000000;stroke-width:0.5;stroke-linecap:butt;stroke-linejoin:round;stroke-miterlimit:4;stroke-dasharray:none;stroke-opacity:1"
             d="M 0,0 -59.029,-41.726" /></g><g
           transform="translate(75.6241,65.276)"
           id="g232"><path
             id="path234"
             style="fill:none;stroke:#000000;stroke-width:0.5;stroke-linecap:butt;stroke-linejoin:round;stroke-miterlimit:4;stroke-dasharray:none;stroke-opacity:1"
             d="M 0,0 -44.799,-51.785" /></g><g
           transform="translate(75.6241,65.276)"
           id="g236"><path
             id="path238"
             style="fill:none;stroke:#000000;stroke-width:0.5;stroke-linecap:butt;stroke-linejoin:round;stroke-miterlimit:4;stroke-dasharray:none;stroke-opacity:1"
             d="M 0,0 -27.634,-53.919" /></g><g
           transform="translate(75.6241,65.276)"
           id="g240"><path
             id="path242"
             style="fill:none;stroke:#000000;stroke-width:0.5;stroke-linecap:butt;stroke-linejoin:round;stroke-miterlimit:4;stroke-dasharray:none;stroke-opacity:1"
             d="M 0,0 -11.466,-47.64" /></g><g
           transform="translate(75.6241,65.276)"
           id="g244"><path
             id="path246"
             style="fill:none;stroke:#000000;stroke-width:0.5;stroke-linecap:butt;stroke-linejoin:round;stroke-miterlimit:4;stroke-dasharray:none;stroke-opacity:1"
             d="M 0,0 V -34.386" /></g><g
           transform="translate(64.1579,78.5302)"
           id="g248"><path
             id="path250"
             style="fill:none;stroke:#000000;stroke-width:0.5;stroke-linecap:butt;stroke-linejoin:round;stroke-miterlimit:4;stroke-dasharray:none;stroke-opacity:1"
             d="M 0,0 -16.168,6.279" /></g><g
           transform="translate(64.1579,78.5302)"
           id="g252"><path
             id="path254"
             style="fill:none;stroke:#000000;stroke-width:0.5;stroke-linecap:butt;stroke-linejoin:round;stroke-miterlimit:4;stroke-dasharray:none;stroke-opacity:1"
             d="M 0,0 -33.333,4.145" /></g><g
           transform="translate(64.1579,78.5302)"
           id="g256"><path
             id="path258"
             style="fill:none;stroke:#000000;stroke-width:0.5;stroke-linecap:butt;stroke-linejoin:round;stroke-miterlimit:4;stroke-dasharray:none;stroke-opacity:1"
             d="M 0,0 -47.563,-5.914" /></g><g
           transform="translate(64.1579,78.5302)"
           id="g260"><path
             id="path262"
             style="fill:none;stroke:#000000;stroke-width:0.5;stroke-linecap:butt;stroke-linejoin:round;stroke-miterlimit:4;stroke-dasharray:none;stroke-opacity:1"
             d="M 0,0 -55.599,-21.593" /></g><g
           transform="translate(64.1579,78.5302)"
           id="g264"><path
             id="path266"
             style="fill:none;stroke:#000000;stroke-width:0.5;stroke-linecap:butt;stroke-linejoin:round;stroke-miterlimit:4;stroke-dasharray:none;stroke-opacity:1"
             d="M 0,0 -55.599,-39.301" /></g><g
           transform="translate(64.1579,78.5302)"
           id="g268"><path
             id="path270"
             style="fill:none;stroke:#000000;stroke-width:0.5;stroke-linecap:butt;stroke-linejoin:round;stroke-miterlimit:4;stroke-dasharray:none;stroke-opacity:1"
             d="M 0,0 -47.563,-54.98" /></g><g
           transform="translate(64.1579,78.5302)"
           id="g272"><path
             id="path274"
             style="fill:none;stroke:#000000;stroke-width:0.5;stroke-linecap:butt;stroke-linejoin:round;stroke-miterlimit:4;stroke-dasharray:none;stroke-opacity:1"
             d="M 0,0 -33.333,-65.039" /></g><g
           transform="translate(64.1579,78.5302)"
           id="g276"><path
             id="path278"
             style="fill:none;stroke:#000000;stroke-width:0.5;stroke-linecap:butt;stroke-linejoin:round;stroke-miterlimit:4;stroke-dasharray:none;stroke-opacity:1"
             d="M 0,0 -16.168,-67.174" /></g><g
           transform="translate(64.1579,78.5302)"
           id="g280"><path
             id="path282"
             style="fill:none;stroke:#000000;stroke-width:0.5;stroke-linecap:butt;stroke-linejoin:round;stroke-miterlimit:4;stroke-dasharray:none;stroke-opacity:1"
             d="M 0,0 V -60.894" /></g><g
           transform="translate(64.1579,78.5302)"
           id="g284"><path
             id="path286"
             style="fill:none;stroke:#000000;stroke-width:0.5;stroke-linecap:butt;stroke-linejoin:round;stroke-miterlimit:4;stroke-dasharray:none;stroke-opacity:1"
             d="M 0,0 11.466,-47.64" /></g><g
           transform="translate(47.9903,84.8094)"
           id="g288"><path
             id="path290"
             style="fill:none;stroke:#000000;stroke-width:0.5;stroke-linecap:butt;stroke-linejoin:round;stroke-miterlimit:4;stroke-dasharray:none;stroke-opacity:1"
             d="M 0,0 -17.165,-2.134" /></g><g
           transform="translate(47.9903,84.8094)"
           id="g292"><path
             id="path294"
             style="fill:none;stroke:#000000;stroke-width:0.5;stroke-linecap:butt;stroke-linejoin:round;stroke-miterlimit:4;stroke-dasharray:none;stroke-opacity:1"
             d="M 0,0 -31.396,-12.193" /></g><g
           transform="translate(47.9903,84.8094)"
           id="g296"><path
             id="path298"
             style="fill:none;stroke:#000000;stroke-width:0.5;stroke-linecap:butt;stroke-linejoin:round;stroke-miterlimit:4;stroke-dasharray:none;stroke-opacity:1"
             d="M 0,0 -39.431,-27.873" /></g><g
           transform="translate(47.9903,84.8094)"
           id="g300"><path
             id="path302"
             style="fill:none;stroke:#000000;stroke-width:0.5;stroke-linecap:butt;stroke-linejoin:round;stroke-miterlimit:4;stroke-dasharray:none;stroke-opacity:1"
             d="M 0,0 -39.431,-45.58" /></g><g
           transform="translate(47.9903,84.8094)"
           id="g304"><path
             id="path306"
             style="fill:none;stroke:#000000;stroke-width:0.5;stroke-linecap:butt;stroke-linejoin:round;stroke-miterlimit:4;stroke-dasharray:none;stroke-opacity:1"
             d="M 0,0 -31.396,-61.259" /></g><g
           transform="translate(47.9903,84.8094)"
           id="g308"><path
             id="path310"
             style="fill:none;stroke:#000000;stroke-width:0.5;stroke-linecap:butt;stroke-linejoin:round;stroke-miterlimit:4;stroke-dasharray:none;stroke-opacity:1"
             d="M 0,0 -17.165,-71.318" /></g><g
           transform="translate(47.9903,84.8094)"
           id="g312"><path
             id="path314"
             style="fill:none;stroke:#000000;stroke-width:0.5;stroke-linecap:butt;stroke-linejoin:round;stroke-miterlimit:4;stroke-dasharray:none;stroke-opacity:1"
             d="M 0,0 V -73.453" /></g><g
           transform="translate(47.9903,84.8094)"
           id="g316"><path
             id="path318"
             style="fill:none;stroke:#000000;stroke-width:0.5;stroke-linecap:butt;stroke-linejoin:round;stroke-miterlimit:4;stroke-dasharray:none;stroke-opacity:1"
             d="M 0,0 16.168,-67.174" /></g><g
           transform="translate(47.9903,84.8094)"
           id="g320"><path
             id="path322"
             style="fill:none;stroke:#000000;stroke-width:0.5;stroke-linecap:butt;stroke-linejoin:round;stroke-miterlimit:4;stroke-dasharray:none;stroke-opacity:1"
             d="M 0,0 27.634,-53.919" /></g><g
           transform="translate(30.8251,82.675)"
           id="g324"><path
             id="path326"
             style="fill:none;stroke:#000000;stroke-width:0.5;stroke-linecap:butt;stroke-linejoin:round;stroke-miterlimit:4;stroke-dasharray:none;stroke-opacity:1"
             d="M 0,0 -14.23,-10.059" /></g><g
           transform="translate(30.8251,82.675)"
           id="g328"><path
             id="path330"
             style="fill:none;stroke:#000000;stroke-width:0.5;stroke-linecap:butt;stroke-linejoin:round;stroke-miterlimit:4;stroke-dasharray:none;stroke-opacity:1"
             d="M 0,0 -22.266,-25.738" /></g><g
           transform="translate(30.8251,82.675)"
           id="g332"><path
             id="path334"
             style="fill:none;stroke:#000000;stroke-width:0.5;stroke-linecap:butt;stroke-linejoin:round;stroke-miterlimit:4;stroke-dasharray:none;stroke-opacity:1"
             d="M 0,0 -22.266,-43.446" /></g><g
           transform="translate(30.8251,82.675)"
           id="g336"><path
             id="path338"
             style="fill:none;stroke:#000000;stroke-width:0.5;stroke-linecap:butt;stroke-linejoin:round;stroke-miterlimit:4;stroke-dasharray:none;stroke-opacity:1"
             d="M 0,0 -14.23,-59.125" /></g><g
           transform="translate(30.8251,82.675)"
           id="g340"><path
             id="path342"
             style="fill:none;stroke:#000000;stroke-width:0.5;stroke-linecap:butt;stroke-linejoin:round;stroke-miterlimit:4;stroke-dasharray:none;stroke-opacity:1"
             d="M 0,0 V -69.184" /></g><g
           transform="translate(30.8251,82.675)"
           id="g344"><path
             id="path346"
             style="fill:none;stroke:#000000;stroke-width:0.5;stroke-linecap:butt;stroke-linejoin:round;stroke-miterlimit:4;stroke-dasharray:none;stroke-opacity:1"
             d="M 0,0 17.165,-71.318" /></g><g
           transform="translate(30.8251,82.675)"
           id="g348"><path
             id="path350"
             style="fill:none;stroke:#000000;stroke-width:0.5;stroke-linecap:butt;stroke-linejoin:round;stroke-miterlimit:4;stroke-dasharray:none;stroke-opacity:1"
             d="M 0,0 33.333,-65.039" /></g><g
           transform="translate(30.8251,82.675)"
           id="g352"><path
             id="path354"
             style="fill:none;stroke:#000000;stroke-width:0.5;stroke-linecap:butt;stroke-linejoin:round;stroke-miterlimit:4;stroke-dasharray:none;stroke-opacity:1"
             d="M 0,0 44.799,-51.785" /></g><g
           transform="translate(16.5947,72.616)"
           id="g356"><path
             id="path358"
             style="fill:none;stroke:#000000;stroke-width:0.5;stroke-linecap:butt;stroke-linejoin:round;stroke-miterlimit:4;stroke-dasharray:none;stroke-opacity:1"
             d="M 0,0 -8.036,-15.679" /></g><g
           transform="translate(16.5947,72.616)"
           id="g360"><path
             id="path362"
             style="fill:none;stroke:#000000;stroke-width:0.5;stroke-linecap:butt;stroke-linejoin:round;stroke-miterlimit:4;stroke-dasharray:none;stroke-opacity:1"
             d="M 0,0 -8.036,-33.387" /></g><g
           transform="translate(16.5947,72.616)"
           id="g364"><path
             id="path366"
             style="fill:none;stroke:#000000;stroke-width:0.5;stroke-linecap:butt;stroke-linejoin:round;stroke-miterlimit:4;stroke-dasharray:none;stroke-opacity:1"
             d="M 0,0 V -49.066" /></g><g
           transform="translate(16.5947,72.616)"
           id="g368"><path
             id="path370"
             style="fill:none;stroke:#000000;stroke-width:0.5;stroke-linecap:butt;stroke-linejoin:round;stroke-miterlimit:4;stroke-dasharray:none;stroke-opacity:1"
             d="M 0,0 14.23,-59.125" /></g><g
           transform="translate(16.5947,72.616)"
           id="g372"><path
             id="path374"
             style="fill:none;stroke:#000000;stroke-width:0.5;stroke-linecap:butt;stroke-linejoin:round;stroke-miterlimit:4;stroke-dasharray:none;stroke-opacity:1"
             d="M 0,0 31.396,-61.259" /></g><g
           transform="translate(16.5947,72.616)"
           id="g376"><path
             id="path378"
             style="fill:none;stroke:#000000;stroke-width:0.5;stroke-linecap:butt;stroke-linejoin:round;stroke-miterlimit:4;stroke-dasharray:none;stroke-opacity:1"
             d="M 0,0 47.563,-54.98" /></g><g
           transform="translate(16.5947,72.616)"
           id="g380"><path
             id="path382"
             style="fill:none;stroke:#000000;stroke-width:0.5;stroke-linecap:butt;stroke-linejoin:round;stroke-miterlimit:4;stroke-dasharray:none;stroke-opacity:1"
             d="M 0,0 59.029,-41.726" /></g><g
           transform="translate(8.5591,56.9368)"
           id="g384"><path
             id="path386"
             style="fill:none;stroke:#000000;stroke-width:0.5;stroke-linecap:butt;stroke-linejoin:round;stroke-miterlimit:4;stroke-dasharray:none;stroke-opacity:1"
             d="M 0,0 V -17.708" /></g><g
           transform="translate(8.5591,56.9368)"
           id="g388"><path
             id="path390"
             style="fill:none;stroke:#000000;stroke-width:0.5;stroke-linecap:butt;stroke-linejoin:round;stroke-miterlimit:4;stroke-dasharray:none;stroke-opacity:1"
             d="M 0,0 8.036,-33.387" /></g><g
           transform="translate(8.5591,56.9368)"
           id="g392"><path
             id="path394"
             style="fill:none;stroke:#000000;stroke-width:0.5;stroke-linecap:butt;stroke-linejoin:round;stroke-miterlimit:4;stroke-dasharray:none;stroke-opacity:1"
             d="M 0,0 22.266,-43.446" /></g><g
           transform="translate(8.5591,56.9368)"
           id="g396"><path
             id="path398"
             style="fill:none;stroke:#000000;stroke-width:0.5;stroke-linecap:butt;stroke-linejoin:round;stroke-miterlimit:4;stroke-dasharray:none;stroke-opacity:1"
             d="M 0,0 39.431,-45.58" /></g><g
           transform="translate(8.5591,56.9368)"
           id="g400"><path
             id="path402"
             style="fill:none;stroke:#000000;stroke-width:0.5;stroke-linecap:butt;stroke-linejoin:round;stroke-miterlimit:4;stroke-dasharray:none;stroke-opacity:1"
             d="M 0,0 55.599,-39.301" /></g><g
           transform="translate(8.5591,56.9368)"
           id="g404"><path
             id="path406"
             style="fill:none;stroke:#000000;stroke-width:0.5;stroke-linecap:butt;stroke-linejoin:round;stroke-miterlimit:4;stroke-dasharray:none;stroke-opacity:1"
             d="M 0,0 67.065,-26.047" /></g><g
           transform="translate(8.5591,39.2293)"
           id="g408"><path
             id="path410"
             style="fill:none;stroke:#000000;stroke-width:0.5;stroke-linecap:butt;stroke-linejoin:round;stroke-miterlimit:4;stroke-dasharray:none;stroke-opacity:1"
             d="M 0,0 8.036,-15.679" /></g><g
           transform="translate(8.5591,39.2293)"
           id="g412"><path
             id="path414"
             style="fill:none;stroke:#000000;stroke-width:0.5;stroke-linecap:butt;stroke-linejoin:round;stroke-miterlimit:4;stroke-dasharray:none;stroke-opacity:1"
             d="M 0,0 22.266,-25.738" /></g><g
           transform="translate(8.5591,39.2293)"
           id="g416"><path
             id="path418"
             style="fill:none;stroke:#000000;stroke-width:0.5;stroke-linecap:butt;stroke-linejoin:round;stroke-miterlimit:4;stroke-dasharray:none;stroke-opacity:1"
             d="M 0,0 39.431,-27.873" /></g><g
           transform="translate(8.5591,39.2293)"
           id="g420"><path
             id="path422"
             style="fill:none;stroke:#000000;stroke-width:0.5;stroke-linecap:butt;stroke-linejoin:round;stroke-miterlimit:4;stroke-dasharray:none;stroke-opacity:1"
             d="M 0,0 55.599,-21.593" /></g><g
           transform="translate(8.5591,39.2293)"
           id="g424"><path
             id="path426"
             style="fill:none;stroke:#000000;stroke-width:0.5;stroke-linecap:butt;stroke-linejoin:round;stroke-miterlimit:4;stroke-dasharray:none;stroke-opacity:1"
             d="M 0,0 67.065,-8.339" /></g><g
           transform="translate(16.5947,23.55)"
           id="g428"><path
             id="path430"
             style="fill:none;stroke:#000000;stroke-width:0.5;stroke-linecap:butt;stroke-linejoin:round;stroke-miterlimit:4;stroke-dasharray:none;stroke-opacity:1"
             d="M 0,0 14.23,-10.059" /></g><g
           transform="translate(16.5947,23.55)"
           id="g432"><path
             id="path434"
             style="fill:none;stroke:#000000;stroke-width:0.5;stroke-linecap:butt;stroke-linejoin:round;stroke-miterlimit:4;stroke-dasharray:none;stroke-opacity:1"
             d="M 0,0 31.396,-12.193" /></g><g
           transform="translate(16.5947,23.55)"
           id="g436"><path
             id="path438"
             style="fill:none;stroke:#000000;stroke-width:0.5;stroke-linecap:butt;stroke-linejoin:round;stroke-miterlimit:4;stroke-dasharray:none;stroke-opacity:1"
             d="M 0,0 47.563,-5.914" /></g><g
           transform="translate(16.5947,23.55)"
           id="g440"><path
             id="path442"
             style="fill:none;stroke:#000000;stroke-width:0.5;stroke-linecap:butt;stroke-linejoin:round;stroke-miterlimit:4;stroke-dasharray:none;stroke-opacity:1"
             d="M 0,0 59.029,7.34" /></g><g
           transform="translate(30.8251,13.491)"
           id="g444"><path
             id="path446"
             style="fill:none;stroke:#000000;stroke-width:0.5;stroke-linecap:butt;stroke-linejoin:round;stroke-miterlimit:4;stroke-dasharray:none;stroke-opacity:1"
             d="M 0,0 17.165,-2.134" /></g><g
           transform="translate(30.8251,13.491)"
           id="g448"><path
             id="path450"
             style="fill:none;stroke:#000000;stroke-width:0.5;stroke-linecap:butt;stroke-linejoin:round;stroke-miterlimit:4;stroke-dasharray:none;stroke-opacity:1"
             d="M 0,0 33.333,4.145" /></g><g
           transform="translate(30.8251,13.491)"
           id="g452"><path
             id="path454"
             style="fill:none;stroke:#000000;stroke-width:0.5;stroke-linecap:butt;stroke-linejoin:round;stroke-miterlimit:4;stroke-dasharray:none;stroke-opacity:1"
             d="M 0,0 44.799,17.399" /></g><g
           transform="translate(47.9903,11.3566)"
           id="g456"><path
             id="path458"
             style="fill:none;stroke:#000000;stroke-width:0.5;stroke-linecap:butt;stroke-linejoin:round;stroke-miterlimit:4;stroke-dasharray:none;stroke-opacity:1"
             d="M 0,0 16.168,6.279" /></g><g
           transform="translate(47.9903,11.3566)"
           id="g460"><path
             id="path462"
             style="fill:none;stroke:#000000;stroke-width:0.5;stroke-linecap:butt;stroke-linejoin:round;stroke-miterlimit:4;stroke-dasharray:none;stroke-opacity:1"
             d="M 0,0 27.634,19.533" /></g><g
           transform="translate(64.1579,17.6358)"
           id="g464"><path
             id="path466"
             style="fill:none;stroke:#000000;stroke-width:0.5;stroke-linecap:butt;stroke-linejoin:round;stroke-miterlimit:4;stroke-dasharray:none;stroke-opacity:1"
             d="M 0,0 11.466,13.254" /></g><g
           transform="translate(79.7621,44.9519)"
           id="g468"><path
             id="path470"
             style="fill:#000000;fill-opacity:1;fill-rule:nonzero;stroke:none"
             d="m 0,0 c 0.83,0 1.627,0.33 2.214,0.917 0.587,0.587 0.917,1.384 0.917,2.214 0,0.83 -0.33,1.627 -0.917,2.214 C 1.627,5.932 0.83,6.262 0,6.262 c -0.83,0 -1.627,-0.33 -2.214,-0.917 -0.587,-0.587 -0.917,-1.384 -0.917,-2.214 0,-0.83 0.33,-1.627 0.917,-2.214 C -1.627,0.33 -0.83,0 0,0" /></g><g
           transform="translate(75.6241,62.1449)"
           id="g472"><path
             id="path474"
             style="fill:#000000;fill-opacity:1;fill-rule:nonzero;stroke:none"
             d="m 0,0 c 0.83,0 1.627,0.33 2.214,0.917 0.587,0.587 0.917,1.384 0.917,2.214 0,0.83 -0.33,1.627 -0.917,2.214 C 1.627,5.932 0.83,6.262 0,6.262 c -0.83,0 -1.627,-0.33 -2.214,-0.917 -0.587,-0.587 -0.917,-1.384 -0.917,-2.214 0,-0.83 0.33,-1.627 0.917,-2.214 C -1.627,0.33 -0.83,0 0,0" /></g><g
           transform="translate(64.1579,75.3991)"
           id="g476"><path
             id="path478"
             style="fill:#000000;fill-opacity:1;fill-rule:nonzero;stroke:none"
             d="m 0,0 c 0.83,0 1.627,0.33 2.214,0.917 0.587,0.587 0.917,1.384 0.917,2.214 0,0.83 -0.33,1.627 -0.917,2.214 C 1.627,5.932 0.83,6.262 0,6.262 c -0.83,0 -1.627,-0.33 -2.214,-0.917 -0.587,-0.587 -0.917,-1.384 -0.917,-2.214 0,-0.83 0.33,-1.627 0.917,-2.214 C -1.627,0.33 -0.83,0 0,0" /></g><g
           transform="translate(47.9903,81.6783)"
           id="g480"><path
             id="path482"
             style="fill:#000000;fill-opacity:1;fill-rule:nonzero;stroke:none"
             d="m 0,0 c 0.83,0 1.627,0.33 2.214,0.917 0.587,0.587 0.917,1.384 0.917,2.214 0,0.83 -0.33,1.627 -0.917,2.214 C 1.627,5.932 0.83,6.262 0,6.262 c -0.83,0 -1.627,-0.33 -2.214,-0.917 -0.587,-0.587 -0.917,-1.384 -0.917,-2.214 0,-0.83 0.33,-1.627 0.917,-2.214 C -1.627,0.33 -0.83,0 0,0" /></g><g
           transform="translate(30.8251,79.5439)"
           id="g484"><path
             id="path486"
             style="fill:#000000;fill-opacity:1;fill-rule:nonzero;stroke:none"
             d="m 0,0 c 0.83,0 1.627,0.33 2.214,0.917 0.587,0.587 0.917,1.384 0.917,2.214 0,0.83 -0.33,1.627 -0.917,2.214 C 1.627,5.932 0.83,6.262 0,6.262 c -0.83,0 -1.627,-0.33 -2.214,-0.917 -0.587,-0.587 -0.917,-1.384 -0.917,-2.214 0,-0.83 0.33,-1.627 0.917,-2.214 C -1.627,0.33 -0.83,0 0,0" /></g><g
           transform="translate(16.5947,69.4849)"
           id="g488"><path
             id="path490"
             style="fill:#000000;fill-opacity:1;fill-rule:nonzero;stroke:none"
             d="m 0,0 c 0.83,0 1.627,0.33 2.214,0.917 0.587,0.587 0.917,1.384 0.917,2.214 0,0.83 -0.33,1.627 -0.917,2.214 C 1.627,5.932 0.83,6.262 0,6.262 c -0.83,0 -1.627,-0.33 -2.214,-0.917 -0.587,-0.587 -0.917,-1.384 -0.917,-2.214 0,-0.83 0.33,-1.627 0.917,-2.214 C -1.627,0.33 -0.83,0 0,0" /></g><g
           transform="translate(8.5591,53.8057)"
           id="g492"><path
             id="path494"
             style="fill:#000000;fill-opacity:1;fill-rule:nonzero;stroke:none"
             d="m 0,0 c 0.83,0 1.627,0.33 2.214,0.917 0.587,0.587 0.917,1.384 0.917,2.214 0,0.83 -0.33,1.627 -0.917,2.214 C 1.627,5.932 0.83,6.262 0,6.262 c -0.83,0 -1.627,-0.33 -2.214,-0.917 -0.587,-0.587 -0.917,-1.384 -0.917,-2.214 0,-0.83 0.33,-1.627 0.917,-2.214 C -1.627,0.33 -0.83,0 0,0" /></g><g
           transform="translate(8.5591,36.0982)"
           id="g496"><path
             id="path498"
             style="fill:#000000;fill-opacity:1;fill-rule:nonzero;stroke:none"
             d="m 0,0 c 0.83,0 1.627,0.33 2.214,0.917 0.587,0.587 0.917,1.384 0.917,2.214 0,0.83 -0.33,1.627 -0.917,2.214 C 1.627,5.932 0.83,6.262 0,6.262 c -0.83,0 -1.627,-0.33 -2.214,-0.917 -0.587,-0.587 -0.917,-1.384 -0.917,-2.214 0,-0.83 0.33,-1.627 0.917,-2.214 C -1.627,0.33 -0.83,0 0,0" /></g><g
           transform="translate(16.5947,20.419)"
           id="g500"><path
             id="path502"
             style="fill:#000000;fill-opacity:1;fill-rule:nonzero;stroke:none"
             d="m 0,0 c 0.83,0 1.627,0.33 2.214,0.917 0.587,0.587 0.917,1.384 0.917,2.214 0,0.83 -0.33,1.627 -0.917,2.214 C 1.627,5.932 0.83,6.262 0,6.262 c -0.83,0 -1.627,-0.33 -2.214,-0.917 -0.587,-0.587 -0.917,-1.384 -0.917,-2.214 0,-0.83 0.33,-1.627 0.917,-2.214 C -1.627,0.33 -0.83,0 0,0" /></g><g
           transform="translate(30.8251,10.3599)"
           id="g504"><path
             id="path506"
             style="fill:#000000;fill-opacity:1;fill-rule:nonzero;stroke:none"
             d="m 0,0 c 0.83,0 1.627,0.33 2.214,0.917 0.587,0.587 0.917,1.384 0.917,2.214 0,0.83 -0.33,1.627 -0.917,2.214 C 1.627,5.932 0.83,6.262 0,6.262 c -0.83,0 -1.627,-0.33 -2.214,-0.917 -0.587,-0.587 -0.917,-1.384 -0.917,-2.214 0,-0.83 0.33,-1.627 0.917,-2.214 C -1.627,0.33 -0.83,0 0,0" /></g><g
           transform="translate(47.9903,8.2255)"
           id="g508"><path
             id="path510"
             style="fill:#000000;fill-opacity:1;fill-rule:nonzero;stroke:none"
             d="m 0,0 c 0.83,0 1.627,0.33 2.214,0.917 0.587,0.587 0.917,1.384 0.917,2.214 0,0.83 -0.33,1.627 -0.917,2.214 C 1.627,5.932 0.83,6.262 0,6.262 c -0.83,0 -1.627,-0.33 -2.214,-0.917 -0.587,-0.587 -0.917,-1.384 -0.917,-2.214 0,-0.83 0.33,-1.627 0.917,-2.214 C -1.627,0.33 -0.83,0 0,0" /></g><g
           transform="translate(64.1579,14.5047)"
           id="g512"><path
             id="path514"
             style="fill:#000000;fill-opacity:1;fill-rule:nonzero;stroke:none"
             d="m 0,0 c 0.83,0 1.627,0.33 2.214,0.917 0.587,0.587 0.917,1.384 0.917,2.214 0,0.83 -0.33,1.627 -0.917,2.214 C 1.627,5.932 0.83,6.262 0,6.262 c -0.83,0 -1.627,-0.33 -2.214,-0.917 -0.587,-0.587 -0.917,-1.384 -0.917,-2.214 0,-0.83 0.33,-1.627 0.917,-2.214 C -1.627,0.33 -0.83,0 0,0" /></g><g
           transform="translate(75.6241,27.759)"
           id="g516"><path
             id="path518"
             style="fill:#000000;fill-opacity:1;fill-rule:nonzero;stroke:none"
             d="m 0,0 c 0.83,0 1.627,0.33 2.214,0.917 0.587,0.587 0.917,1.384 0.917,2.214 0,0.83 -0.33,1.627 -0.917,2.214 C 1.627,5.932 0.83,6.262 0,6.262 c -0.83,0 -1.627,-0.33 -2.214,-0.917 -0.587,-0.587 -0.917,-1.384 -0.917,-2.214 0,-0.83 0.33,-1.627 0.917,-2.214 C -1.627,0.33 -0.83,0 0,0" /></g></g></g><g
       id="g520"><g
         clip-path="url(#clipPath526)"
         id="g522"><g
           id="g528"><g
             id="g530" /><g
             id="g542"><g
               style="opacity:0.80000299"
               id="g540"
               clip-path="url(#clipPath534)"><g
                 id="g538"
                 transform="translate(56.8017,39.7923)"><path
                   id="path536"
                   style="fill:#ffffff;fill-opacity:1;fill-rule:nonzero;stroke:none"
                   d="M 0,0 H -25.282 C -25.457,0 -25.6,0.143 -25.6,0.318 v 16.058 c 0,0.175 0.143,0.318 0.318,0.318 H 0 c 0.175,0 0.318,-0.143 0.318,-0.318 V 0.318 C 0.318,0.143 0.175,0 0,0" /></g></g></g></g></g></g><text
       id="text546"
       style="font-variant:normal;font-weight:normal;font-stretch:normal;font-size:14.59910011px;font-family:BKM-cmmi10;-inkscape-font-specification:cmmi10;writing-mode:lr-tb;fill:#000000;fill-opacity:1;fill-rule:nonzero;stroke:none"
       transform="matrix(1,0,0,-1,31.7598,44.0801)"><tspan
         id="tspan544"
         y="0"
         x="0">K</tspan></text>
<text
       id="text550"
       style="font-variant:normal;font-weight:normal;font-stretch:normal;font-size:10.21930027px;font-family:BKM-cmr7;-inkscape-font-specification:cmr7;writing-mode:lr-tb;fill:#000000;fill-opacity:1;fill-rule:nonzero;stroke:none"
       transform="matrix(1,0,0,-1,44.1606,41.8916)"><tspan
         id="tspan548"
         y="0"
         x="0 5.8147817">13</tspan></text>
<text
       id="text554"
       style="font-variant:normal;font-weight:normal;font-stretch:normal;font-size:13.20969963px;font-family:BKM-cmmi10;-inkscape-font-specification:cmmi10;writing-mode:lr-tb;fill:#000000;fill-opacity:1;fill-rule:nonzero;stroke:none"
       transform="matrix(1,0,0,-1,147.7642,29.376)"><tspan
         id="tspan552"
         y="0"
         x="0">K</tspan></text>
<text
       id="text558"
       style="font-variant:normal;font-weight:normal;font-stretch:normal;font-size:9.24680042px;font-family:BKM-cmr7;-inkscape-font-specification:cmr7;writing-mode:lr-tb;fill:#000000;fill-opacity:1;fill-rule:nonzero;stroke:none"
       transform="matrix(1,0,0,-1,158.9849,27.3955)"><tspan
         id="tspan556"
         y="0"
         x="0">4</tspan></text>
<text
       id="text562"
       style="font-variant:normal;font-weight:normal;font-stretch:normal;font-size:13.20969963px;font-family:BKM-cmmi10;-inkscape-font-specification:cmmi10;writing-mode:lr-tb;fill:#000000;fill-opacity:1;fill-rule:nonzero;stroke:none"
       transform="matrix(1,0,0,-1,289.0293,29.376)"><tspan
         id="tspan560"
         y="0"
         x="0">K</tspan></text>
<text
       id="text566"
       style="font-variant:normal;font-weight:normal;font-stretch:normal;font-size:9.24680042px;font-family:BKM-cmr7;-inkscape-font-specification:cmr7;writing-mode:lr-tb;fill:#000000;fill-opacity:1;fill-rule:nonzero;stroke:none"
       transform="matrix(1,0,0,-1,300.25,27.3955)"><tspan
         id="tspan564"
         y="0"
         x="0">4</tspan></text>
</g></svg>