<?xml version="1.0" encoding="UTF-8"?><svg id="a" xmlns="http://www.w3.org/2000/svg" width="62.53" height="25.3" xmlns:xlink="http://www.w3.org/1999/xlink" viewBox="0 0 62.53 25.3"><defs><linearGradient id="b" x1="26.93" y1="10.19" x2="39.07" y2="10.19" gradientUnits="userSpaceOnUse"><stop offset="0" stop-color="#e53054"/><stop offset="1" stop-color="#2981b3"/></linearGradient><linearGradient id="c" x1="26.93" y1="8.75" x2="39.07" y2="8.75" xlink:href="#b"/><linearGradient id="d" x1="26.93" y1="6.71" x2="39.07" y2="6.71" xlink:href="#b"/></defs><path d="m10.69,1.54l-.47,5.96" style="fill:none; stroke:#000; stroke-linecap:round; stroke-linejoin:round; stroke-width:.5px;"/><path d="m1.33,8.63l5.76,1.18" style="fill:none; stroke:#000; stroke-linecap:round; stroke-linejoin:round; stroke-width:.5px;"/><path d="m5.94,23.75l3.74-4.59" style="fill:none; stroke:#000; stroke-linecap:round; stroke-linejoin:round; stroke-width:.5px;"/><path d="m18.91,12.11l6.75-1.58" style="fill:none; stroke:#e53054; stroke-linecap:round; stroke-linejoin:round; stroke-width:.5px;"/><path d="m15.51,18.9l2.35,4.96" style="fill:none; stroke:#000; stroke-linecap:round; stroke-linejoin:round; stroke-width:.5px;"/><path d="m4.92,5.26l3.69,3.22" style="fill:none; stroke:#000; stroke-linecap:round; stroke-linejoin:round; stroke-width:.5px;"/><circle cx="12.48" cy="13.53" r="6.18" style="fill:none; stroke:#000; stroke-width:.6px;"/><path d="m11.31,12.74c.07-.19.13-.39.13-.58,0-.15-.04-.29-.21-.29-.58,0-.89.82-1,1.29,0,.03-.04.06-.08.06h-.12s-.08-.05-.08-.09v-.03c.16-.6.57-1.48,1.3-1.48.46,0,.84.34.84.81,0,.13-.04.25-.09.38-.24.65-.6,1.49-.6,2.2,0,.37.13.77.58.77.5,0,.86-.38,1.09-.77,0-.05.02-.1.03-.15l.7-2.83c.05-.17.22-.31.41-.31.16,0,.29.11.29.27,0,.03,0,.06,0,.08l-.7,2.81c-.04.17-.07.33-.07.48,0,.19.05.42.28.42.47,0,.64-.94.73-1.29,0-.03.05-.06.08-.06h.12s.09.06.09.1c-.14.53-.33,1.5-1.03,1.5-.4,0-.77-.23-.89-.62-.28.35-.67.62-1.14.62-.74,0-1.23-.41-1.23-1.17,0-.68.36-1.48.59-2.12Z"/><path d="m50.65,23.76l-.45-5.94" style="fill:none; stroke:#2981b3; stroke-linecap:round; stroke-linejoin:round; stroke-width:.5px;"/><path d="m45.01,23.48l3.2-6.15" style="fill:none; stroke:#2981b3; stroke-linecap:round; stroke-linejoin:round; stroke-width:.5px;"/><path d="m56.91,10.03l4.23-4.41" style="fill:none; stroke:#2981b3; stroke-linecap:round; stroke-linejoin:round; stroke-width:.5px;"/><path d="m52.2,17.67l3.65,5.47" style="fill:none; stroke:#2981b3; stroke-linecap:round; stroke-linejoin:round; stroke-width:.5px;"/><path d="m39.96,7.43l4.33,2.78" style="fill:none; stroke:#2981b3; stroke-linecap:round; stroke-linejoin:round; stroke-width:.5px;"/><circle cx="50.72" cy="11.45" r="6.18" style="fill:none; stroke:#000; stroke-width:.6px;"/><circle cx="61.14" cy="5.62" r=".75" style="fill:#2981b3;"/><circle cx="55.85" cy="23.14" r=".75" style="fill:#2981b3;"/><circle cx="50.65" cy="23.67" r=".75" style="fill:#2981b3;"/><circle cx="45.01" cy="23.48" r=".75" style="fill:#2981b3;"/><circle cx="25.66" cy="10.54" r=".75" style="fill:#e53054;"/><circle cx="17.86" cy="23.85" r=".75"/><circle cx="5.86" cy="23.75" r=".75"/><circle cx="1.33" cy="8.63" r=".75"/><circle cx="4.92" cy="5.26" r=".75"/><circle cx="10.69" cy="1.34" r=".75"/><circle cx="40.04" cy="7.55" r=".75" style="fill:#2981b3;"/><path d="m49.63,10.35c.07-.19.13-.39.13-.58,0-.15-.04-.29-.21-.29-.58,0-.89.82-1,1.29,0,.03-.04.06-.08.06h-.12s-.08-.05-.08-.09v-.03c.16-.6.57-1.48,1.3-1.48.46,0,.84.34.84.81,0,.13-.04.25-.09.38-.24.63-.6,1.46-.6,2.15,0,.45.2.83.69.83.59,0,.98-.58,1.22-1.04.19-.39.48-1.12.48-1.55,0-.33-.13-.53-.24-.68-.13-.15-.25-.25-.25-.39,0-.25.25-.51.51-.51.35,0,.44.42.44.7,0,.67-.35,1.85-.65,2.46-.28.58-.77,1.27-1.5,1.27-.79,0-1.35-.38-1.35-1.21,0-.66.35-1.46.58-2.08Z"/><path d="m27.28,10.21c.08-.02.17-.04.25-.05" style="fill:none; stroke:url(#b); stroke-linecap:round; stroke-linejoin:round; stroke-width:.7px;"/><path d="m28.54,10.05c2.01-.02,2.75,1.27,5.7.64,3.17-.68,1.65-4,3.72-4.05" style="fill:none; stroke:url(#c); stroke-dasharray:0 0 .51 1.02; stroke-linecap:round; stroke-linejoin:round; stroke-width:.7px;"/><path d="m38.47,6.68c.08.01.16.03.25.05" style="fill:none; stroke:url(#d); stroke-linecap:round; stroke-linejoin:round; stroke-width:.7px;"/></svg>