<?xml version="1.0" encoding="UTF-8"?><svg id="a" xmlns="http://www.w3.org/2000/svg" width="126.3" height="134.1" viewBox="0 0 126.3 134.1"><path d="m80.5,1.2c17.8-4.5,15.9,14.5,25,24.9s18.7,14.5,19.1,23.2c.8,17.7-20.7,22.9-19.1,38.1s14.5,20.1,13.8,32.4-18.3,19.8-29.1,7.8c-6.8-7.5-22.5-30.6-20.4-44.6s13.4-27.8,5.8-45.3c-5.2-11.9-12.3-32,4.9-36.4Z" style="fill:#b4b4b4;"/><path d="m1.7,44.7c3.9-11.1,21.7-13.9,28.5-1.7s-1.5,16.2-1.9,29.6c-.5,15.8,5.2,26.1,3.1,33.6-3.9,13.6-23.9,16.2-29.2,1.7s2.2-18.3,2.7-33.5S-.9,52.2,1.7,44.7Z" style="fill:#b4b4b4;"/><g id="b"><circle cx="16.3" cy="50.6" r="10" style="stroke:#000;"/><circle cx="16.3" cy="102.2" r="10" style="stroke:#000;"/></g><circle cx="83" cy="15.5" r="10" style="stroke:#000;"/><circle cx="105.5" cy="50.6" r="10" style="stroke:#000;"/><circle cx="85.5" cy="86.2" r="10" style="stroke:#000;"/><circle cx="103.6" cy="117.5" r="10" style="stroke:#000;"/><g id="c"><path d="m83.9,13.5L17.2,52.1" style="fill:none; stroke:#000;"/></g><g id="d"><path d="m107.2,51.2H16.3" style="fill:none; stroke:#000;"/></g><g id="e"><path d="m85.5,87.4l-70,14.8" style="fill:none; stroke:#000;"/></g></svg>