<?xml version="1.0" encoding="UTF-8"?><svg id="a" xmlns="http://www.w3.org/2000/svg" width="715.4" height="313" viewBox="0 0 715.4 313"><path d="m539.2,22.8c13.2-3.1,23.4,9.6,35,21.1,16.1,16.1,31,25.8,22.5,38.7-5.9,9-16.4,5-34.2,10.2-21.7,6.3-29,17.3-42.2,10.1s-1.6-30.4,3.3-43.3c6.9-18.2,1.3-33.5,15.5-36.8Z" style="fill:#b4b4b4;"/><path d="m455.8,173.8c12.7-2.6,25,18.8,19.1,27.8-5.4,8.2-31.3,10.8-35,1.2-3.4-8.8,4.4-26.7,15.9-29Z" style="fill:#2eb4ff;"/><path d="m627.3,203.2c12.7-2.6,25,18.8,19.1,27.8-5.4,8.2-31.3,10.8-35,1.2s4.4-26.7,15.9-29Z" style="fill:#2eb4ff;"/><path d="m555.3,209.5c12.2-.8,20.8,13.8,36.3,24.2,16.9,11.3,35.8,15.6,39.9,25,4.3,9.9-5.7,23.1-15.3,21.4s-22-17-37.2-26.8c-15.6-10-32-14.2-35.5-18.1-8.8-9.6-1.9-24.8,11.8-25.7Z" style="fill:#b4b4b4;"/><path d="m575.6,165.6c7.1-6.7,22.4-3,36.9-3.5s19.8-6.2,29.3-4.7c21.9,3.3,22.5,22.5,29.8,41.2s27.5,36.1,26.8,50.9c-.7,15.3-21.6,19-34.1-2.8s-11.6-47.2-25.1-52.8-42.5,2.6-55-1-14.9-21.4-8.7-27.3Z" style="fill:#b4b4b4;"/><path d="m483.1,21.7c16.1-12.2,38.9,1,23.9,24-3.7,5.6-14.4,17.4-32.2,53.6-6.6,13.4-17.2,25.4-24.8,40.4-13.4,26.4-23.8,54.8-31.9,65.2-13.4,17.1-33.6,9.3-35.5-3.6-2.1-14.6,29.1-54.8,54.2-98.3,22.8-39.6,33.9-71.7,46.5-81.2Z" style="fill:#b4b4b4;"/><g id="b"><path d="m400.4,198.6l28.7-49.8" style="fill:none; stroke:#000;"/><path d="m429.1,148.8l28.2,42.5" style="fill:none; stroke:#000;"/><path d="m400.4,198.6l56.9-7.3" style="fill:none; stroke:#000;"/><path d="m429.1,148.8l41.6-71.7" style="fill:none; stroke:#000;"/><path d="m470.7,77l23.1-43.1" style="fill:none; stroke:#000;"/><path d="m493.8,33.9l49.7,3.8" style="fill:none; stroke:#000;"/><path d="m543.5,37.7l-13.2,51.6" style="fill:none; stroke:#000;"/><path d="m470.7,77l72.8-39.3" style="fill:none; stroke:#000;"/><path d="m470.7,77l59.6,12.3" style="fill:none; stroke:#000;"/><path d="m543.5,37.7l36.8,36.6" style="fill:none; stroke:#000;"/><path d="m530.3,89.3l49.9-15" style="fill:none; stroke:#000;"/><path d="m580.3,74.3l59,100.5" style="fill:none; stroke:#000;"/><path d="m530.3,89.3l58.6,87.7" style="fill:none; stroke:#000;"/><path d="m457.3,191.3l99.3,33.4" style="fill:none; stroke:#000;"/><path d="m589,177l-32.3,47.7" style="fill:none; stroke:#000;"/><path d="m589,177l50.3-2.2" style="fill:none; stroke:#000;"/><path d="m556.6,224.6l82.7-49.8" style="fill:none; stroke:#000;"/><path d="m589,177l27.2,87.4" style="fill:none; stroke:#000;"/><path d="m616.2,264.4l-59.6-39.7" style="fill:none; stroke:#000;"/><path d="m616.2,264.4l65.5-20.2" style="fill:none; stroke:#000;"/><path d="m681.7,244.2l-42.4-69.4" style="fill:none; stroke:#000;"/><path d="m556.6,224.6l71.7-1.5" style="fill:none; stroke:#000;"/><path d="m628.3,223.1l-12.1,41.3" style="fill:none; stroke:#000;"/><path d="m628.3,223.1l53.4,21.1" style="fill:none; stroke:#000;"/><path d="m628.3,223.1l11-48.3" style="fill:none; stroke:#000;"/><path d="m589,177l39.3,46.1" style="fill:none; stroke:#000;"/><path d="m493.8,33.9l36.5,55.4" style="fill:none; stroke:#000;"/></g><g id="c"><circle cx="400.4" cy="198.6" r="10" style="stroke:#000;"/><circle cx="429.1" cy="148.8" r="10" style="stroke:#000;"/><circle cx="457.3" cy="191.3" r="10" style="stroke:#000;"/><circle cx="470.7" cy="77" r="10" style="stroke:#000;"/><circle cx="493.8" cy="33.9" r="10" style="stroke:#000;"/><circle cx="543.5" cy="37.7" r="10" style="stroke:#000;"/><circle cx="530.3" cy="89.3" r="10" style="stroke:#000;"/><circle cx="580.3" cy="74.3" r="10" style="stroke:#000;"/><circle cx="639.3" cy="174.8" r="10" style="stroke:#000;"/><circle cx="589" cy="177" r="10" style="stroke:#000;"/><circle cx="556.6" cy="224.6" r="10" style="stroke:#000;"/><circle cx="616.2" cy="264.4" r="10" style="stroke:#000;"/><circle cx="681.7" cy="244.2" r="10" style="stroke:#000;"/><circle cx="628.3" cy="223.1" r="10" style="stroke:#000;"/></g><path d="m477.9,153.1c0-3.7,3.5-7.7,7.3-7.7s4.2,2,4.2,4.5-2.2,6-5,7.1c0,.7.2,1.6,1.1,1.6s1.7-.7,2-1.6c0,0,0-.1.2-.1.1,0,.2,0,.2.2-.3,1.3-1.2,3.2-2.8,3.2s-1.4-.8-1.4-1.8,0-.9,0-1.3c-.5.2-1.1.2-1.6.2-2.6,0-4.2-1.9-4.2-4.4Zm4.9,1.6c1.1,0,1.4.9,1.5,1.8,2.3-1.3,3.6-4.5,3.6-7.1s-.9-3.4-2.8-3.4-2.4.7-3.3,1.6c-1.4,1.5-2.3,4-2.3,6.1s.5,2.6,1.7,3.2c0-.1,0-.3,0-.4,0-.9.8-1.7,1.7-1.7Zm-.5,2.4c.5,0,1.1-.1,1.6-.4h0c0-.9-.1-1.6-1-1.6s-1.2.6-1.2,1.3.2.7.7.7Z"/><path d="m495.8,151.9h0c0-1.6,1.3-2.8,2.8-2.8s3.4,2.3,5.5,2.3,2.3-.7,2.3-1.9c0-.1,0-.4.2-.4s.2.3.2.4h0c0,1.6-1.3,2.8-2.8,2.8s-3.4-2.3-5.5-2.3-2.3.7-2.3,1.9c0,.1,0,.4-.2.4s-.2-.3-.2-.4Zm0,3.9h0c0-1.6,1.3-2.8,2.8-2.8s3.4,2.3,5.5,2.3,2.3-.7,2.3-1.9c0-.1,0-.4.2-.4s.2.3.2.4h0c0,1.6-1.3,2.8-2.8,2.8s-3.4-2.3-5.5-2.3-2.3.7-2.3,1.9c0,.1,0,.4-.2.4s-.2-.3-.2-.4Z"/><path d="m513,151.8c0-2.3.4-5.8,3.5-5.8s3.5,3.4,3.5,5.8-.4,5.7-3.5,5.7-3.5-3.3-3.5-5.7Zm5.5-.3c0-1.5,0-5.1-2-5.1s-2.1,3.5-2.1,5.1,0,5.5,2.1,5.5,2-3.9,2-5.5Z"/><path d="m523,155.3c.5,0,.9.4.9.9s-.4.9-.9.9-.9-.4-.9-.9.4-.9.9-.9Z"/><path d="m526.8,156.5c.5,0,2.1,0,2.1-.5v-8.7c-.6.3-1.4.4-2.2.4v-.6c1.1,0,2.3-.2,3.1-1.1h.2c0,0,.2,0,.2.1v9.8c0,.5,1.6.5,2.1.5v.6c-.9,0-1.8,0-2.7,0s-1.8,0-2.7,0v-.6Z"/><path d="m537.6,156.9c1.4,0,1.8-1.5,1.8-2.7s-.4-2.7-1.8-2.7h-1.1c0,0-.1,0-.1-.1h0c0-.2,0-.3.1-.3h.9c1.3,0,1.7-1.8,1.7-2.8s-.4-1.8-1.5-1.8-1.7.3-2.1,1c0,0,0,0,.1,0,.5,0,.9.4.9.9s-.4.9-.9.9-.9-.4-.9-.9c0-1.5,1.6-2.3,2.9-2.3s3.1.7,3.1,2.3-1.1,2.5-2.4,3c1.4.2,2.8,1.4,2.8,2.9s-1.7,3.3-3.6,3.3-3.3-.9-3.3-2.6.4-1,1-1,1,.4,1,1-.4,1-1,1h0c.5.8,1.5,1.1,2.5,1.1Z"/><path d="m104.4,20.2c38.7-15.7,82.3-7.6,109.4,16.4,25.1,22.2,19.8,58.2-31.9,65.5-36.6,5.2-90.2,11.8-102.4-19.9-9.5-24.8.5-52.1,24.9-62Z" style="fill:#b4b4b4;"/><path d="m54.6,130.3c19.4,0,21.1,11.3,31.3,26.7,10.5,16,22.7,29.1,15.9,41.3-7.1,12.6-23.6,6.1-42.1,7.9-20.8,2-34,14.3-45.1,2.4-12.1-13.1,7.4-30.6,14.5-44.6,7-14,7.9-33.7,25.5-33.7Z" style="fill:#b4b4b4;"/><path d="m244.9,150.2c47-2.6,68.1,33.4,82.5,68.3,12.7,31-15.4,52.2-57.5,58.4-51.8,7.6-100.9-17-106.4-56.7-4.6-33.7,38-67.6,81.4-70Z" style="fill:#b4b4b4;"/><g id="d"><path d="m27,196.5l28.7-49.8" style="fill:none; stroke:#000;"/><path d="m55.7,146.6l28.2,42.5" style="fill:none; stroke:#000;"/><path d="m27,196.5l56.9-7.3" style="fill:none; stroke:#000;"/><path d="m55.7,146.6l41.6-71.7" style="fill:none; stroke:#000;"/><path d="m97.3,74.9l23.1-43.1" style="fill:none; stroke:#000;"/><path d="m120.4,31.8l49.7,3.8" style="fill:none; stroke:#000;"/><path d="m170.1,35.6l-13.2,51.6" style="fill:none; stroke:#000;"/><path d="m97.3,74.9l72.8-39.3" style="fill:none; stroke:#000;"/><path d="m97.3,74.9l59.6,12.3" style="fill:none; stroke:#000;"/><path d="m170.1,35.6l36.8,36.6" style="fill:none; stroke:#000;"/><path d="m156.9,87.1l49.9-15" style="fill:none; stroke:#000;"/><path d="m206.9,72.2l59,100.5" style="fill:none; stroke:#000;"/><path d="m156.9,87.1l58.6,87.7" style="fill:none; stroke:#000;"/><path d="m83.9,189.1l99.3,33.4" style="fill:none; stroke:#000;"/><path d="m215.6,174.9l-32.3,47.7" style="fill:none; stroke:#000;"/><path d="m215.6,174.9l50.3-2.2" style="fill:none; stroke:#000;"/><path d="m183.2,222.5l82.7-49.8" style="fill:none; stroke:#000;"/><path d="m215.6,174.9l27.2,87.4" style="fill:none; stroke:#000;"/><path d="m242.8,262.2l-59.6-39.7" style="fill:none; stroke:#000;"/><path d="m242.8,262.2l65.5-20.2" style="fill:none; stroke:#000;"/><path d="m308.3,242l-42.4-69.4" style="fill:none; stroke:#000;"/><path d="m183.2,222.5l71.7-1.5" style="fill:none; stroke:#000;"/><path d="m254.9,221l-12.1,41.3" style="fill:none; stroke:#000;"/><path d="m254.9,221l53.4,21.1" style="fill:none; stroke:#000;"/><path d="m254.9,221l11-48.3" style="fill:none; stroke:#000;"/><path d="m215.6,174.9l39.3,46.1" style="fill:none; stroke:#000;"/><path d="m120.4,31.8l36.5,55.4" style="fill:none; stroke:#000;"/></g><g id="e"><circle cx="27" cy="196.5" r="10" style="stroke:#000;"/><circle cx="55.7" cy="146.6" r="10" style="stroke:#000;"/><circle cx="83.9" cy="189.1" r="10" style="stroke:#000;"/><circle cx="97.3" cy="74.9" r="10" style="stroke:#000;"/><circle cx="120.4" cy="31.8" r="10" style="stroke:#000;"/><circle cx="170.1" cy="35.6" r="10" style="stroke:#000;"/><circle cx="156.9" cy="87.1" r="10" style="stroke:#000;"/><circle cx="206.9" cy="72.2" r="10" style="stroke:#000;"/><circle cx="265.9" cy="172.7" r="10" style="stroke:#000;"/><circle cx="215.6" cy="174.9" r="10" style="stroke:#000;"/><circle cx="183.2" cy="222.5" r="10" style="stroke:#000;"/><circle cx="242.8" cy="262.2" r="10" style="stroke:#000;"/><circle cx="308.3" cy="242" r="10" style="stroke:#000;"/><circle cx="254.9" cy="221" r="10" style="stroke:#000;"/></g><path d="m103.9,148.5c0-3.7,3.5-7.7,7.3-7.7s4.2,2,4.2,4.5-2.2,6-5,7.1c0,.7.2,1.6,1.1,1.6s1.7-.7,2-1.6c0,0,0-.1.2-.1.1,0,.2,0,.2.2-.3,1.3-1.2,3.2-2.8,3.2s-1.4-.8-1.4-1.8,0-.9,0-1.3c-.5.2-1.1.2-1.6.2-2.6,0-4.2-1.9-4.2-4.4Zm4.9,1.6c1.1,0,1.4.9,1.5,1.8,2.3-1.3,3.6-4.5,3.6-7.1s-.9-3.4-2.8-3.4-2.4.7-3.3,1.6c-1.4,1.5-2.3,4-2.3,6.1s.5,2.6,1.7,3.2c0-.1,0-.3,0-.4,0-.9.8-1.7,1.7-1.7Zm-.5,2.4c.5,0,1.1-.1,1.6-.4h0c0-.9-.1-1.6-1-1.6s-1.2.6-1.2,1.3.2.7.7.7Z"/><path d="m121.7,147.3h0c0-1.6,1.3-2.8,2.8-2.8s3.4,2.3,5.5,2.3,2.3-.7,2.3-1.9c0-.1,0-.4.2-.4s.2.3.2.4h0c0,1.6-1.3,2.8-2.8,2.8s-3.4-2.3-5.5-2.3-2.3.7-2.3,1.9c0,.1,0,.4-.2.4s-.2-.3-.2-.4Zm0,3.9h0c0-1.6,1.3-2.8,2.8-2.8s3.4,2.3,5.5,2.3,2.3-.7,2.3-1.9c0-.1,0-.4.2-.4s.2.3.2.4h0c0,1.6-1.3,2.8-2.8,2.8s-3.4-2.3-5.5-2.3-2.3.7-2.3,1.9c0,.1,0,.4-.2.4s-.2-.3-.2-.4Z"/><path d="m139,147.2c0-2.3.4-5.8,3.5-5.8s3.5,3.4,3.5,5.8-.4,5.7-3.5,5.7-3.5-3.3-3.5-5.7Zm5.5-.3c0-1.5,0-5.1-2-5.1s-2.1,3.5-2.1,5.1,0,5.5,2.1,5.5,2-3.9,2-5.5Z"/><path d="m148.9,150.7c.5,0,.9.4.9.9s-.4.9-.9.9-.9-.4-.9-.9.4-.9.9-.9Z"/><path d="m151.7,149.2l5.1-7.7s0,0,.2,0h.2c0,0,.2,0,.2.2v7.6h1.6v.6h-1.6v1.6c0,.5,1.1.5,1.6.5v.6c-.8,0-1.5,0-2.3,0s-1.5,0-2.3,0v-.6c.5,0,1.6,0,1.6-.5v-1.6h-4.4v-.6Zm4.5,0v-5.9l-3.9,5.9h3.9Z"/><path d="m160.2,147.2c0-2.5,1.5-5.7,4.4-5.7s2.1.6,2.1,1.9-.3.8-.8.8-.8-.3-.8-.8.3-.8.8-.8h0c-.3-.4-.9-.6-1.4-.6-1,0-1.8.8-2.3,1.6-.5,1-.6,2.2-.6,3.4.4-.9,1.1-1.5,2.1-1.5,2,0,3.3,1.8,3.3,3.7s-1.4,3.8-3.4,3.8-3.5-3.5-3.5-5.7Zm5.3,2c0-1.3,0-3.3-1.8-3.3s-1.9,1.8-1.9,2.9,0,.2,0,.3c0,0,0,0,0,0,0,1.2.3,3.1,1.9,3.1s1.9-1.8,1.9-3.2Z"/><path d="m141.3,294.9c0-3,1-6.2,3.4-8.2,0,0,0,0,.1,0h.2c.1,0,.2,0,.2.2s0,.1,0,.1c-1.9,2.2-2.3,5.1-2.3,7.9s.4,5.8,2.3,7.9c0,0,0,0,0,.1,0,.1,0,.2-.2.2h-.2c0,0,0,0-.1,0-2.5-2-3.4-5.2-3.4-8.2Z"/><path d="m151.2,294.6v-.6c0-.8-.3-1.8-1.3-1.8s-.7,0-1,0c.2.2.3.5.3.8,0,.6-.5,1.1-1.1,1.1s-1.1-.5-1.1-1.1c0-1.4,1.7-1.6,2.8-1.6,1.5,0,3.3.7,3.3,2.4v3.9c0,.3.6.3.8.3.1,0,.2.1.3.3v.3c0,.1-.1.2-.3.3h-1.1c-.6,0-1.4-.3-1.4-1h0c-.4.6-1.2,1.1-2,1.1s-2.8-.5-2.8-2c0-2.1,3-2.6,4.5-2.6Zm0,2.3v-1.7c-1.1,0-2.5.7-2.5,2s.3,1.3,1,1.3,1.5-.8,1.5-1.6Z"/><path d="m155.2,303s0-.1,0-.1c1.9-2.2,2.3-5.1,2.3-7.9s-.4-5.7-2.3-7.9c0,0,0,0,0-.1,0-.1,0-.2.2-.2h.2c0,0,0,0,.1,0,2.4,2,3.4,5.2,3.4,8.2s-1,6.3-3.4,8.2c0,0,0,0-.1,0h-.2c-.1,0-.2,0-.2-.2Z"/><path d="m531.1,294.9c0-3,1-6.2,3.4-8.2,0,0,0,0,.1,0h.2c.1,0,.2,0,.2.2s0,.1,0,.1c-1.9,2.2-2.3,5.1-2.3,7.9s.4,5.8,2.3,7.9c0,0,0,0,0,.1,0,.1,0,.2-.2.2h-.2c0,0,0,0-.1,0-2.5-2-3.4-5.2-3.4-8.2Z"/><path d="m537.4,289c0-.5-.7-.4-1.1-.4v-.9h3c0-.1,0,4.6,0,4.6.6-.4,1.3-.7,2-.7,2.2,0,3.4,1.7,3.4,3.8s-1.4,3.8-3.6,3.8-1.5-.3-2-.9l-.8.8h-.8v-10.1Zm3.5,9.5c1.6,0,1.6-2,1.6-3.1h0c0-1.1,0-3.1-1.4-3.1s-1.3.4-1.7.9v4.4c.3.5.9.9,1.5.9Z"/><path d="m546.2,303s0-.1,0-.1c1.9-2.2,2.3-5.1,2.3-7.9s-.4-5.7-2.3-7.9c0,0,0,0,0-.1,0-.1,0-.2.2-.2h.2c0,0,0,0,.1,0,2.4,2,3.4,5.2,3.4,8.2s-1,6.3-3.4,8.2c0,0,0,0-.1,0h-.2c-.1,0-.2,0-.2-.2Z"/></svg>