<?xml version="1.0" encoding="UTF-8"?><svg id="a" xmlns="http://www.w3.org/2000/svg" width="715.38" height="313.01" viewBox="0 0 715.38 313.01"><path d="m539.16,22.76c13.23-3.12,23.4,9.59,34.99,21.14,16.11,16.06,30.99,25.77,22.52,38.72-5.88,8.99-16.45,5.03-34.16,10.17-21.69,6.3-29.02,17.29-42.19,10.13s-1.62-30.37,3.33-43.34c6.94-18.17,1.26-33.47,15.51-36.82Z" style="fill:#b4b4b4;"/><path d="m455.76,173.84c12.71-2.59,24.98,18.83,19.14,27.76-5.35,8.18-31.28,10.83-35.01,1.23-3.4-8.77,4.37-26.65,15.87-29Z" style="fill:#2eb4ff;"/><path d="m627.3,203.24c12.71-2.59,24.98,18.83,19.14,27.76-5.35,8.18-31.28,10.83-35.01,1.23-3.4-8.77,4.37-26.65,15.87-29Z" style="fill:#2eb4ff;"/><path d="m555.28,209.5c12.19-.84,20.77,13.79,36.32,24.16,16.88,11.25,35.81,15.57,39.93,25.04,4.33,9.93-5.73,23.07-15.32,21.35-7.58-1.36-21.97-16.95-37.25-26.76-15.55-9.99-31.96-14.21-35.47-18.07-8.76-9.61-1.9-24.77,11.79-25.71Z" style="fill:#b4b4b4;"/><path d="m575.64,165.6c7.11-6.71,22.44-2.98,36.89-3.53,10.57-.4,19.78-6.16,29.34-4.72,21.91,3.31,22.5,22.47,29.83,41.24,9.76,24.96,27.54,36.06,26.82,50.9-.74,15.29-21.6,18.97-34.11-2.84-10.58-18.44-11.59-47.23-25.13-52.79-11.77-4.84-42.47,2.55-54.96-1.01-16.09-4.59-14.87-21.42-8.68-27.25Z" style="fill:#b4b4b4;"/><path d="m483.09,21.71c16.15-12.17,38.94.98,23.88,24-3.69,5.64-14.35,17.44-32.22,53.57-6.62,13.39-17.23,25.43-24.84,40.43-13.39,26.37-23.81,54.82-31.94,65.15-13.45,17.07-33.62,9.31-35.52-3.58-2.15-14.6,29.13-54.84,54.15-98.34,22.8-39.64,33.88-71.74,46.49-81.24Z" style="fill:#b4b4b4;"/><g id="b"><path d="m400.39,198.59l28.7-49.82" style="fill:none; stroke:#000;"/><path d="m429.09,148.77l28.25,42.52" style="fill:none; stroke:#000;"/><path d="m400.39,198.59l56.94-7.3" style="fill:none; stroke:#000;"/><path d="m429.09,148.77l41.65-71.75" style="fill:none; stroke:#000;"/><path d="m470.73,77.02l23.08-43.12" style="fill:none; stroke:#000;"/><path d="m493.82,33.9l49.67,3.8" style="fill:none; stroke:#000;"/><path d="m543.49,37.7l-13.16,51.58" style="fill:none; stroke:#000;"/><path d="m470.73,77.02l72.75-39.32" style="fill:none; stroke:#000;"/><path d="m470.73,77.02l59.59,12.26" style="fill:none; stroke:#000;"/><path d="m543.49,37.7l36.78,36.63" style="fill:none; stroke:#000;"/><path d="m530.33,89.29l49.94-14.95" style="fill:none; stroke:#000;"/><path d="m580.27,74.33l59.01,100.48" style="fill:none; stroke:#000;"/><path d="m530.33,89.29l58.63,87.71" style="fill:none; stroke:#000;"/><path d="m457.33,191.29l99.28,33.36" style="fill:none; stroke:#000;"/><path d="m588.96,176.99l-32.34,47.66" style="fill:none; stroke:#000;"/><path d="m588.96,176.99l50.32-2.18" style="fill:none; stroke:#000;"/><path d="m556.61,224.65l82.67-49.83" style="fill:none; stroke:#000;"/><path d="m588.96,176.99l27.25,87.4" style="fill:none; stroke:#000;"/><path d="m616.21,264.39l-59.59-39.74" style="fill:none; stroke:#000;"/><path d="m616.21,264.39l65.49-20.21" style="fill:none; stroke:#000;"/><path d="m681.7,244.19l-42.41-69.37" style="fill:none; stroke:#000;"/><path d="m556.61,224.65l71.68-1.52" style="fill:none; stroke:#000;"/><path d="m628.29,223.13l-12.09,41.26" style="fill:none; stroke:#000;"/><path d="m628.29,223.13l53.4,21.06" style="fill:none; stroke:#000;"/><path d="m628.29,223.13l10.99-48.31" style="fill:none; stroke:#000;"/><path d="m588.96,176.99l39.33,46.13" style="fill:none; stroke:#000;"/><path d="m493.82,33.9l36.51,55.39" style="fill:none; stroke:#000;"/></g><g id="c"><circle cx="400.39" cy="198.59" r="10" style="stroke:#000;"/><circle cx="429.09" cy="148.77" r="10" style="stroke:#000;"/><circle cx="457.33" cy="191.29" r="10" style="stroke:#000;"/><circle cx="470.73" cy="77.02" r="10" style="stroke:#000;"/><circle cx="493.82" cy="33.9" r="10" style="stroke:#000;"/><circle cx="543.49" cy="37.7" r="10" style="stroke:#000;"/><circle cx="530.33" cy="89.29" r="10" style="stroke:#000;"/><circle cx="580.27" cy="74.33" r="10" style="stroke:#000;"/><circle cx="639.28" cy="174.81" r="10" style="stroke:#000;"/><circle cx="588.96" cy="176.99" r="10" style="stroke:#000;"/><circle cx="556.61" cy="224.65" r="10" style="stroke:#000;"/><circle cx="616.21" cy="264.39" r="10" style="stroke:#000;"/><circle cx="681.7" cy="244.19" r="10" style="stroke:#000;"/><circle cx="628.29" cy="223.13" r="10" style="stroke:#000;"/></g><path d="m477.95,153.07c0-3.69,3.47-7.65,7.25-7.65,2.57,0,4.22,1.96,4.22,4.47,0,3.05-2.19,5.99-4.98,7.14.1.73.22,1.64,1.15,1.64s1.74-.73,1.96-1.58c.02-.08.1-.15.18-.15.13,0,.18.1.18.22-.32,1.29-1.2,3.19-2.76,3.19-1.11,0-1.39-.85-1.39-1.79,0-.45.07-.88.07-1.31-.55.17-1.1.25-1.64.25-2.57,0-4.23-1.91-4.23-4.42Zm4.9,1.56c1.06,0,1.36.88,1.49,1.76,2.26-1.33,3.55-4.52,3.55-7.06,0-1.73-.86-3.44-2.81-3.44-1.28,0-2.42.73-3.27,1.61-1.41,1.49-2.34,4.03-2.34,6.09,0,1.28.48,2.64,1.74,3.19-.07-.13-.1-.27-.1-.42,0-.9.85-1.74,1.73-1.74Zm-.55,2.37c.53,0,1.06-.13,1.56-.37v-.15c0-.73-.12-1.43-1.03-1.43-.65,0-1.23.63-1.23,1.28,0,.5.25.66.7.66Z"/><path d="m495.78,151.91v-.1c0-1.54,1.26-2.71,2.77-2.71,2.12,0,3.44,2.29,5.53,2.29,1.05,0,2.31-.71,2.31-1.88.02-.13.05-.42.23-.42s.22.28.25.42v.1c0,1.54-1.28,2.71-2.79,2.71-2.12,0-3.44-2.29-5.53-2.29-1.05,0-2.29.71-2.29,1.88-.03.13-.07.42-.25.42s-.22-.28-.23-.42Zm0,3.88v-.1c0-1.54,1.26-2.71,2.77-2.71,2.12,0,3.44,2.29,5.53,2.29,1.05,0,2.31-.71,2.31-1.88.02-.13.05-.42.23-.42s.22.28.25.42v.1c0,1.54-1.28,2.71-2.79,2.71-2.12,0-3.44-2.29-5.53-2.29-1.05,0-2.29.71-2.29,1.88-.03.13-.07.42-.25.42s-.22-.28-.23-.42Z"/><path d="m513.04,151.83c0-2.34.43-5.76,3.5-5.76s3.49,3.42,3.49,5.76-.45,5.66-3.49,5.66-3.5-3.34-3.5-5.66Zm5.54-.27c0-1.54,0-5.06-2.04-5.06s-2.06,3.52-2.06,5.06,0,5.5,2.06,5.5,2.04-3.93,2.04-5.5Z"/><path d="m523,155.3c.5,0,.9.42.9.91s-.4.91-.9.91-.91-.42-.91-.91.42-.91.91-.91Z"/><path d="m526.85,156.54c.48,0,2.08,0,2.08-.53v-8.72c-.65.32-1.41.42-2.16.42v-.58c1.1,0,2.26-.25,3.05-1.06h.23c.07,0,.17.08.17.15v9.79c0,.53,1.59.53,2.08.53v.58c-.91,0-1.81-.05-2.72-.05s-1.81.05-2.72.05v-.58Z"/><path d="m537.64,156.93c1.41,0,1.78-1.54,1.78-2.66s-.37-2.71-1.79-2.71h-1.11c-.08,0-.15-.07-.15-.15v-.15c0-.07.07-.13.15-.13l.91-.05c1.26,0,1.73-1.73,1.73-2.72s-.43-1.81-1.51-1.81c-.78,0-1.66.28-2.12.96.03-.02.07-.02.12-.02.5,0,.9.38.9.88s-.4.88-.9.88-.88-.38-.88-.88c0-1.51,1.56-2.31,2.89-2.31s3.1.75,3.1,2.29c0,1.41-1.06,2.54-2.36,2.96,1.43.25,2.81,1.38,2.81,2.94,0,1.91-1.74,3.25-3.55,3.25-1.51,0-3.34-.88-3.34-2.62,0-.55.42-.96.96-.96s.96.42.96.96-.42.96-.96.96h-.08c.53.78,1.54,1.08,2.46,1.08Z"/><path d="m104.39,20.19c38.66-15.72,82.3-7.56,109.39,16.39,25.14,22.22,19.81,58.22-31.87,65.54-36.65,5.19-90.23,11.8-102.38-19.93-9.52-24.85.53-52.11,24.86-62Z" style="fill:#b4b4b4;"/><path d="m54.57,130.34c19.37,0,21.14,11.33,31.28,26.71,10.55,16,22.75,29.05,15.9,41.29-7.07,12.64-23.56,6.11-42.06,7.91-20.78,2.02-34.03,14.31-45.11,2.37-12.15-13.09,7.44-30.6,14.48-44.58,7.04-13.97,7.93-33.71,25.5-33.71Z" style="fill:#b4b4b4;"/><path d="m244.9,150.21c46.97-2.58,68.15,33.42,82.48,68.34,12.74,31.04-15.41,52.23-57.5,58.38-51.8,7.57-100.89-17-106.36-56.75-4.64-33.66,37.97-67.6,81.39-69.98Z" style="fill:#b4b4b4;"/><g id="d"><path d="m27,196.45l28.7-49.82" style="fill:none; stroke:#000;"/><path d="m55.7,146.63l28.25,42.52" style="fill:none; stroke:#000;"/><path d="m27,196.45l56.94-7.3" style="fill:none; stroke:#000;"/><path d="m55.7,146.63l41.65-71.75" style="fill:none; stroke:#000;"/><path d="m97.35,74.88l23.08-43.12" style="fill:none; stroke:#000;"/><path d="m120.43,31.76l49.67,3.8" style="fill:none; stroke:#000;"/><path d="m170.1,35.56l-13.16,51.58" style="fill:none; stroke:#000;"/><path d="m97.35,74.88l72.75-39.32" style="fill:none; stroke:#000;"/><path d="m97.35,74.88l59.59,12.26" style="fill:none; stroke:#000;"/><path d="m170.1,35.56l36.78,36.63" style="fill:none; stroke:#000;"/><path d="m156.94,87.15l49.94-14.95" style="fill:none; stroke:#000;"/><path d="m206.88,72.19l59.01,100.48" style="fill:none; stroke:#000;"/><path d="m156.94,87.15l58.63,87.71" style="fill:none; stroke:#000;"/><path d="m83.94,189.15l99.28,33.36" style="fill:none; stroke:#000;"/><path d="m215.57,174.85l-32.34,47.66" style="fill:none; stroke:#000;"/><path d="m215.57,174.85l50.32-2.18" style="fill:none; stroke:#000;"/><path d="m183.22,222.51l82.67-49.83" style="fill:none; stroke:#000;"/><path d="m215.57,174.85l27.25,87.4" style="fill:none; stroke:#000;"/><path d="m242.82,262.25l-59.59-39.74" style="fill:none; stroke:#000;"/><path d="m242.82,262.25l65.49-20.21" style="fill:none; stroke:#000;"/><path d="m308.31,242.04l-42.41-69.37" style="fill:none; stroke:#000;"/><path d="m183.22,222.51l71.68-1.52" style="fill:none; stroke:#000;"/><path d="m254.9,220.99l-12.09,41.26" style="fill:none; stroke:#000;"/><path d="m254.9,220.99l53.4,21.06" style="fill:none; stroke:#000;"/><path d="m254.9,220.99l10.99-48.31" style="fill:none; stroke:#000;"/><path d="m215.57,174.85l39.33,46.13" style="fill:none; stroke:#000;"/><path d="m120.43,31.76l36.51,55.39" style="fill:none; stroke:#000;"/></g><g id="e"><circle cx="27" cy="196.45" r="10" style="stroke:#000;"/><circle cx="55.7" cy="146.63" r="10" style="stroke:#000;"/><circle cx="83.94" cy="189.15" r="10" style="stroke:#000;"/><circle cx="97.35" cy="74.88" r="10" style="stroke:#000;"/><circle cx="120.43" cy="31.76" r="10" style="stroke:#000;"/><circle cx="170.1" cy="35.56" r="10" style="stroke:#000;"/><circle cx="156.94" cy="87.15" r="10" style="stroke:#000;"/><circle cx="206.88" cy="72.19" r="10" style="stroke:#000;"/><circle cx="265.89" cy="172.67" r="10" style="stroke:#000;"/><circle cx="215.57" cy="174.85" r="10" style="stroke:#000;"/><circle cx="183.22" cy="222.51" r="10" style="stroke:#000;"/><circle cx="242.82" cy="262.25" r="10" style="stroke:#000;"/><circle cx="308.31" cy="242.04" r="10" style="stroke:#000;"/><circle cx="254.9" cy="220.99" r="10" style="stroke:#000;"/></g><path d="m103.87,148.48c0-3.69,3.47-7.65,7.25-7.65,2.57,0,4.22,1.96,4.22,4.47,0,3.05-2.19,5.99-4.98,7.14.1.73.22,1.64,1.15,1.64s1.74-.73,1.96-1.58c.02-.08.1-.15.18-.15.13,0,.18.1.18.22-.32,1.29-1.2,3.19-2.76,3.19-1.11,0-1.39-.85-1.39-1.79,0-.45.07-.88.07-1.31-.55.17-1.1.25-1.64.25-2.57,0-4.23-1.91-4.23-4.42Zm4.9,1.56c1.06,0,1.36.88,1.49,1.76,2.26-1.33,3.55-4.52,3.55-7.06,0-1.73-.86-3.44-2.81-3.44-1.28,0-2.42.73-3.27,1.61-1.41,1.49-2.34,4.03-2.34,6.09,0,1.28.48,2.64,1.74,3.19-.07-.13-.1-.27-.1-.42,0-.9.85-1.74,1.73-1.74Zm-.55,2.37c.53,0,1.06-.13,1.56-.37v-.15c0-.73-.12-1.43-1.03-1.43-.65,0-1.23.63-1.23,1.28,0,.5.25.66.7.66Z"/><path d="m121.71,147.32v-.1c0-1.54,1.26-2.71,2.77-2.71,2.12,0,3.44,2.29,5.53,2.29,1.05,0,2.31-.71,2.31-1.88.02-.13.05-.42.23-.42s.22.28.25.42v.1c0,1.54-1.28,2.71-2.79,2.71-2.12,0-3.44-2.29-5.53-2.29-1.05,0-2.29.71-2.29,1.88-.03.13-.07.42-.25.42s-.22-.28-.23-.42Zm0,3.88v-.1c0-1.54,1.26-2.71,2.77-2.71,2.12,0,3.44,2.29,5.53,2.29,1.05,0,2.31-.71,2.31-1.88.02-.13.05-.42.23-.42s.22.28.25.42v.1c0,1.54-1.28,2.71-2.79,2.71-2.12,0-3.44-2.29-5.53-2.29-1.05,0-2.29.71-2.29,1.88-.03.13-.07.42-.25.42s-.22-.28-.23-.42Z"/><path d="m138.96,147.23c0-2.34.43-5.76,3.5-5.76s3.49,3.42,3.49,5.76-.45,5.66-3.49,5.66-3.5-3.34-3.5-5.66Zm5.54-.27c0-1.54,0-5.06-2.04-5.06s-2.06,3.52-2.06,5.06,0,5.5,2.06,5.5,2.04-3.93,2.04-5.5Z"/><path d="m148.92,150.7c.5,0,.9.42.9.91s-.4.91-.9.91-.91-.42-.91-.91.42-.91.91-.91Z"/><path d="m151.69,149.21l5.13-7.65s.1-.08.17-.08h.25c.1,0,.18.08.18.18v7.55h1.63v.58h-1.63v1.63c0,.53,1.13.53,1.61.53v.58c-.76,0-1.53-.05-2.27-.05s-1.53.05-2.29.05v-.58c.48,0,1.61,0,1.61-.53v-1.63h-4.38v-.58Zm4.48,0v-5.88l-3.93,5.88h3.93Z"/><path d="m160.22,147.17c0-2.51,1.49-5.69,4.37-5.69,1.15,0,2.11.63,2.11,1.86,0,.45-.35.8-.8.8s-.8-.35-.8-.8.35-.8.8-.8h.08c-.32-.43-.88-.58-1.39-.58-1.03,0-1.81.76-2.26,1.63-.51,1.03-.56,2.22-.56,3.37.38-.86,1.1-1.54,2.06-1.54,2.03,0,3.27,1.83,3.27,3.72s-1.36,3.79-3.42,3.79c-2.91,0-3.45-3.52-3.45-5.74Zm5.33,1.96c0-1.29,0-3.29-1.79-3.29-1.46,0-1.94,1.76-1.94,2.94,0,.12,0,.22.02.33,0,.03-.02.05-.02.08,0,1.2.27,3.14,1.86,3.14,1.83,0,1.88-1.84,1.88-3.2Z"/><path d="m141.29,294.92c0-3.02.96-6.24,3.42-8.22.05-.03.07-.05.15-.07h.25c.12.03.2.1.2.23,0,.05-.02.12-.05.15-1.89,2.16-2.29,5.15-2.29,7.9s.4,5.76,2.29,7.92c.03.05.05.08.05.15,0,.13-.08.2-.2.23h-.25c-.08-.02-.1-.03-.15-.07-2.46-1.98-3.42-5.2-3.42-8.23Z"/><path d="m151.23,294.64v-.6c0-.83-.33-1.81-1.33-1.81-.33,0-.66.03-.96.08.23.22.35.51.35.81,0,.61-.46,1.08-1.06,1.08s-1.08-.46-1.08-1.08c0-1.36,1.74-1.56,2.77-1.56,1.49,0,3.27.66,3.27,2.42v3.92c.07.3.58.33.83.33.15.03.23.12.27.27v.32c-.03.15-.12.23-.27.27h-1.15c-.58,0-1.36-.3-1.36-1v-.13c-.4.75-1.18,1.23-2.03,1.23-1.18,0-2.79-.53-2.79-1.96,0-2.06,2.96-2.59,4.53-2.59Zm0,2.27v-1.66c-1.13,0-2.52.68-2.52,1.98,0,.56.33,1.29.98,1.29.88,0,1.54-.76,1.54-1.61Z"/><path d="m155.21,302.99s.02-.12.07-.15c1.88-2.16,2.27-5.15,2.27-7.92s-.4-5.74-2.27-7.9c-.05-.05-.07-.08-.07-.15,0-.13.08-.2.22-.23h.25c.07.02.08.03.15.07,2.44,1.98,3.4,5.2,3.4,8.22s-.96,6.26-3.4,8.23c-.07.03-.08.05-.15.07h-.25c-.13-.03-.22-.1-.22-.23Z"/><path d="m531.07,294.92c0-3.02.96-6.24,3.42-8.22.05-.03.07-.05.15-.07h.25c.12.03.2.1.2.23,0,.05-.02.12-.05.15-1.89,2.16-2.29,5.15-2.29,7.9s.4,5.76,2.29,7.92c.03.05.05.08.05.15,0,.13-.08.2-.2.23h-.25c-.08-.02-.1-.03-.15-.07-2.46-1.98-3.42-5.2-3.42-8.23Z"/><path d="m537.39,289.01c0-.46-.73-.45-1.15-.45v-.86l3-.15v4.73c.58-.43,1.29-.66,2.01-.66,2.21,0,3.42,1.71,3.42,3.79,0,2.19-1.39,3.79-3.64,3.79-.76,0-1.49-.33-2.03-.88l-.78.78h-.85v-10.08Zm3.5,9.51c1.59,0,1.59-1.96,1.59-3.1v-.05c0-1.01,0-3.09-1.41-3.09-.7,0-1.31.37-1.73.91v4.38c.35.55.88.95,1.54.95Z"/><path d="m546.16,302.99s.02-.12.07-.15c1.88-2.16,2.27-5.15,2.27-7.92s-.4-5.74-2.27-7.9c-.05-.05-.07-.08-.07-.15,0-.13.08-.2.22-.23h.25c.07.02.08.03.15.07,2.44,1.98,3.4,5.2,3.4,8.22s-.96,6.26-3.4,8.23c-.07.03-.08.05-.15.07h-.25c-.13-.03-.22-.1-.22-.23Z"/></svg>